<svg width="1604" height="1769" xmlns="http://www.w3.org/2000/svg" xmlns:xlink="http://www.w3.org/1999/xlink" xml:space="preserve" overflow="hidden"><g transform="translate(-1045 -238)"><g><path d="M1226.5 923.637C1278.54 721.482 1330.59 519.328 1404.93 598.109 1479.28 676.89 1617.57 1327.94 1672.59 1396.32 1727.6 1464.7 1688.94 1087.89 1735.04 1008.36 1781.13 928.84 1916.45 989.04 1949.16 919.178 1981.87 849.315 1886.71 645.675 1931.32 589.191 1975.92 532.706 2126.85 476.965 2216.81 580.272 2306.77 683.579 2497.1 1030.66 2471.08 1209.03 2445.06 1387.4 2118.67 1582.87 2060.68 1650.5" stroke="#042433" stroke-width="6.875" stroke-linecap="butt" stroke-linejoin="miter" stroke-miterlimit="8" stroke-opacity="1" fill="none" fill-rule="evenodd"/><path d="M1194.5 926.5C1194.5 908.274 1209.05 893.5 1227 893.5 1244.95 893.5 1259.5 908.274 1259.5 926.5 1259.5 944.725 1244.95 959.5 1227 959.5 1209.05 959.5 1194.5 944.725 1194.5 926.5Z" stroke="#000000" stroke-width="6.875" stroke-linecap="butt" stroke-linejoin="miter" stroke-miterlimit="8" stroke-opacity="1" fill="#000000" fill-rule="evenodd" fill-opacity="1"/><path d="M1342.5 586.5C1342.5 568.275 1357.27 553.5 1375.5 553.5 1393.73 553.5 1408.5 568.275 1408.5 586.5 1408.5 604.725 1393.73 619.5 1375.5 619.5 1357.27 619.5 1342.5 604.725 1342.5 586.5Z" stroke="#000000" stroke-width="6.875" stroke-linecap="butt" stroke-linejoin="miter" stroke-miterlimit="8" stroke-opacity="1" fill="#000000" fill-rule="evenodd" fill-opacity="1"/><path d="M1512.5 1069.5C1512.5 1051.27 1527.05 1036.5 1545 1036.5 1562.95 1036.5 1577.5 1051.27 1577.5 1069.5 1577.5 1087.73 1562.95 1102.5 1545 1102.5 1527.05 1102.5 1512.5 1087.73 1512.5 1069.5Z" stroke="#000000" stroke-width="6.875" stroke-linecap="butt" stroke-linejoin="miter" stroke-miterlimit="8" stroke-opacity="1" fill="#000000" fill-rule="evenodd" fill-opacity="1"/><path d="M1646.5 1392.5C1646.5 1374.27 1661.05 1359.5 1679 1359.5 1696.95 1359.5 1711.5 1374.27 1711.5 1392.5 1711.5 1410.73 1696.95 1425.5 1679 1425.5 1661.05 1425.5 1646.5 1410.73 1646.5 1392.5Z" stroke="#000000" stroke-width="6.875" stroke-linecap="butt" stroke-linejoin="miter" stroke-miterlimit="8" stroke-opacity="1" fill="#000000" fill-rule="evenodd" fill-opacity="1"/><path d="M1913.5 894C1913.5 876.051 1928.27 861.5 1946.5 861.5 1964.73 861.5 1979.5 876.051 1979.5 894 1979.5 911.949 1964.73 926.5 1946.5 926.5 1928.27 926.5 1913.5 911.949 1913.5 894Z" stroke="#000000" stroke-width="6.875" stroke-linecap="butt" stroke-linejoin="miter" stroke-miterlimit="8" stroke-opacity="1" fill="#000000" fill-rule="evenodd" fill-opacity="1"/><path d="M1908.5 586.5C1908.5 568.275 1923.05 553.5 1941 553.5 1958.95 553.5 1973.5 568.275 1973.5 586.5 1973.5 604.725 1958.95 619.5 1941 619.5 1923.05 619.5 1908.5 604.725 1908.5 586.5Z" stroke="#000000" stroke-width="6.875" stroke-linecap="butt" stroke-linejoin="miter" stroke-miterlimit="8" stroke-opacity="1" fill="#000000" fill-rule="evenodd" fill-opacity="1"/><path d="M2158.5 563C2158.5 545.051 2173.05 530.5 2191 530.5 2208.95 530.5 2223.5 545.051 2223.5 563 2223.5 580.949 2208.95 595.5 2191 595.5 2173.05 595.5 2158.5 580.949 2158.5 563Z" stroke="#000000" stroke-width="6.875" stroke-linecap="butt" stroke-linejoin="miter" stroke-miterlimit="8" stroke-opacity="1" fill="#000000" fill-rule="evenodd" fill-opacity="1"/><path d="M2356.5 828.5C2356.5 810.275 2371.05 795.5 2389 795.5 2406.95 795.5 2421.5 810.275 2421.5 828.5 2421.5 846.725 2406.95 861.5 2389 861.5 2371.05 861.5 2356.5 846.725 2356.5 828.5Z" stroke="#000000" stroke-width="6.875" stroke-linecap="butt" stroke-linejoin="miter" stroke-miterlimit="8" stroke-opacity="1" fill="#000000" fill-rule="evenodd" fill-opacity="1"/><path d="M2034.5 1641.5C2034.5 1623.27 2049.05 1608.5 2067 1608.5 2084.95 1608.5 2099.5 1623.27 2099.5 1641.5 2099.5 1659.73 2084.95 1674.5 2067 1674.5 2049.05 1674.5 2034.5 1659.73 2034.5 1641.5Z" stroke="#000000" stroke-width="6.875" stroke-linecap="butt" stroke-linejoin="miter" stroke-miterlimit="8" stroke-opacity="1" fill="#000000" fill-rule="evenodd" fill-opacity="1"/><path d="M2442.5 1172.5C2442.5 1154.27 2457.27 1139.5 2475.5 1139.5 2493.73 1139.5 2508.5 1154.27 2508.5 1172.5 2508.5 1190.73 2493.73 1205.5 2475.5 1205.5 2457.27 1205.5 2442.5 1190.73 2442.5 1172.5Z" stroke="#000000" stroke-width="6.875" stroke-linecap="butt" stroke-linejoin="miter" stroke-miterlimit="8" stroke-opacity="1" fill="#000000" fill-rule="evenodd" fill-opacity="1"/><path d="M2377.5 1327C2377.5 1309.05 2392.05 1294.5 2410 1294.5 2427.95 1294.5 2442.5 1309.05 2442.5 1327 2442.5 1344.95 2427.95 1359.5 2410 1359.5 2392.05 1359.5 2377.5 1344.95 2377.5 1327Z" stroke="#000000" stroke-width="6.875" stroke-linecap="butt" stroke-linejoin="miter" stroke-miterlimit="8" stroke-opacity="1" fill="#000000" fill-rule="evenodd" fill-opacity="1"/><rect x="1052.5" y="242.5" width="1592" height="1592" stroke="#000000" stroke-width="6.875" stroke-linecap="butt" stroke-linejoin="miter" stroke-miterlimit="8" stroke-opacity="1" fill="none"/><text fill="#000000" fill-opacity="1" font-family="Aptos,Aptos_MSFontService,sans-serif" font-style="normal" font-variant="normal" font-weight="400" font-stretch="normal" font-size="83" text-anchor="start" direction="ltr" writing-mode="lr-tb" unicode-bidi="normal" text-decoration="none" transform="matrix(1 0 0 1 1766.25 1933)">add</text><path d="M1701.5 1004C1701.5 986.051 1716.05 971.5 1734 971.5 1751.95 971.5 1766.5 986.051 1766.5 1004 1766.5 1021.95 1751.95 1036.5 1734 1036.5 1716.05 1036.5 1701.5 1021.95 1701.5 1004Z" stroke="#000000" stroke-width="6.875" stroke-linecap="butt" stroke-linejoin="miter" stroke-miterlimit="8" stroke-opacity="1" fill="#00B050" fill-rule="evenodd" fill-opacity="1"/></g></g></svg>