<svg width="2530" height="1599" xmlns="http://www.w3.org/2000/svg" xmlns:xlink="http://www.w3.org/1999/xlink" xml:space="preserve" overflow="hidden"><g transform="translate(-307 -623)"><g><g><g><g><path d="M1466.41 986.975 1467.95 998.757 1450.29 1002.41 1447.94 1027.51 1469.09 1027.51 1497.22 1024.8 1511.75 1007.54 1496.31 1001.53 1487.86 991.805 1475.16 971.244 1469.09 942.164 1445.23 947.026 1438.54 957.275 1438.54 968.828 1450.03 976.694Z" fill="#000000" fill-rule="nonzero" fill-opacity="1"/><path d="M1446.08 996.636 1447.35 980.904 1433.35 974.866 1413.77 979.403 1399.25 1002.71 1399.25 1017.82 1416.18 1017.82Z" fill="#000000" fill-rule="nonzero" fill-opacity="1"/><path d="M1043.01 1063.44 1038.7 1074.54 1017.84 1074.54 1017.84 1085.31 1022.8 1085.31C1022.8 1085.31 1023.1 1087.6 1023.52 1090.6L1036.32 1089.52 1044.31 1084.56 1046.4 1074.54 1056.75 1073.66 1060.83 1065.24 1051.33 1063.28 1043.01 1063.44Z" fill="#000000" fill-rule="nonzero" fill-opacity="1"/><path d="M989.252 1082.99 988.437 1093.54 1003.55 1092.26 1005.11 1081.69 996.041 1074.54Z" fill="#000000" fill-rule="nonzero" fill-opacity="1"/><path d="M1896.8 1419.29C1896.58 1396.09 1895.4 1373.04 1893.21 1350.36 1885.87 1274.74 1867.79 1202.25 1840.7 1134.3 1838.68 1129.24 1836.82 1124.12 1834.66 1119.12 1798.57 1033.84 1747.88 956.198 1685.84 889.193 1681.76 884.819 1677.61 880.511 1673.47 876.268 1661.75 864.094 1649.71 852.214 1637.24 840.824 1496.18 712.395 1308.84 634 1103.48 634 896.399 634 707.721 713.799 566.27 844.186 533.306 874.571 503.018 907.731 475.538 943.241 371.881 1077.32 310 1245.27 310 1427.48 310 1865.06 665.978 2221 1103.52 2221 1411.29 2221 1678.49 2044.76 1810.02 1787.97 1838.15 1733.07 1860.05 1674.55 1874.81 1613.22 1878.56 1597.66 1881.79 1582.02 1884.6 1566.19 1892.59 1521.12 1896.97 1474.78 1896.97 1427.48 1897 1424.74 1896.84 1422.03 1896.8 1419.29ZM1747.45 1102.15 1752.06 1097C1758.09 1108.71 1763.74 1120.63 1769.13 1132.7L1761.62 1132.41 1747.45 1134.37 1747.45 1102.15ZM1632.8 963.704 1632.93 928.26C1645.4 941.478 1657.41 955.088 1668.9 969.187L1654.6 990.467 1604.63 990.01 1601.5 979.599 1632.8 963.704ZM675.606 875.616 675.606 874.277 691.5 874.277 692.871 868.827 718.883 868.827 718.883 880.185 711.409 890.172 675.573 890.172 675.606 875.616ZM700.998 911.027C700.998 911.027 716.892 908.318 718.263 908.318 719.634 908.318 718.263 924.18 718.263 924.18L682.427 926.432 675.606 918.273 700.998 911.027ZM1798.01 1226.01 1739.95 1226.01 1704.57 1199.67 1667.33 1203.3 1667.33 1226.01 1655.55 1226.01 1642.82 1216.94 1578.33 1200.59 1578.33 1158.81 1496.6 1165.18 1471.28 1178.79 1438.83 1178.79 1422.94 1177.19 1383.55 1199.05 1383.55 1240.21 1303.03 1298.3 1309.72 1323.11 1326.04 1323.11 1321.76 1346.74 1310.28 1350.95 1309.66 1412.7 1379.24 1491.94 1409.53 1491.94 1411.35 1487.11 1465.79 1487.11 1481.49 1472.59 1512.37 1472.59 1529.31 1489.56 1575.32 1494.33 1569.22 1555.52 1620.3 1645.7 1593.41 1697.1 1595.23 1721.32 1616.42 1742.44 1616.42 1800.66 1644.22 1838.06 1644.22 1886.43 1668.24 1886.43C1534.56 2050.57 1331.1 2155.69 1103.45 2155.69 701.944 2155.72 375.275 1829.02 375.275 1427.48 375.275 1326.41 396.033 1230.06 433.403 1142.49L433.403 1119.78 459.447 1088.15C468.488 1071.08 478.181 1054.44 488.527 1038.22L489.702 1051.43 459.48 1088.15C450.113 1105.84 441.366 1123.92 433.435 1142.49L433.435 1183.94 463.69 1198.5 463.69 1256.1 492.705 1305.61 516.302 1309.24 519.337 1292.27 491.497 1249.32 486.047 1207.57 502.366 1207.57 509.252 1250.52 549.494 1309.24 539.116 1328.2 564.703 1367.33 628.249 1383.06 628.249 1372.78 653.673 1376.41 651.258 1394.55 671.232 1398.21 702.075 1406.63 745.646 1456.27 801.293 1460.48 806.743 1505.88 768.655 1532.51 766.86 1573.05 761.41 1597.85 816.502 1666.81 820.712 1690.44C820.712 1690.44 840.686 1695.86 843.134 1695.86 845.549 1695.86 887.913 1727.94 887.913 1727.94L887.913 1852.59 903.024 1856.83 892.743 1914.34 918.168 1948.25 913.468 2005.23 947.052 2064.27 990.166 2101.94 1033.51 2102.72 1037.75 2088.79 1005.9 2061.96 1007.73 2048.64 1013.44 2032.32 1014.64 2015.68 993.104 2015.02 982.235 2001.38 1000.12 1984.18 1002.54 1971.19 982.562 1965.48 983.737 1953.4 1012.2 1949.1 1055.47 1928.31 1070 1901.67 1115.4 1843.58 1105.08 1798.15 1119.02 1773.96 1160.76 1775.24 1188.86 1752.98 1197.94 1665.31 1229.11 1625.72 1234.56 1600.3 1206.13 1591.19 1187.36 1560.42 1123.23 1559.76 1072.38 1540.38 1069.97 1504.12 1052.99 1474.45 1007.01 1473.76 980.44 1432.05 956.843 1420.53 955.636 1433.26 912.685 1435.81 896.953 1413.91 852.142 1404.8 815.229 1447.46 757.134 1437.6 752.924 1372.13 710.528 1364.88 727.532 1332.77 722.669 1314.33 666.957 1351.57 631.904 1347.29 619.404 1319.91 627.041 1291.68 646.362 1256.07 690.847 1233.55 776.749 1233.52 776.521 1259.73 807.396 1274.09 804.948 1229.31 827.207 1206.92 872.116 1177.41 875.184 1156.66 919.963 1110.05 967.581 1083.68 963.371 1080.22 995.617 1049.87 1007.43 1053 1012.85 1059.79 1025.09 1046.21 1028.09 1044.87 1014.68 1042.98 1001.07 1038.44 1001.07 1025.39 1008.28 1019.48 1024.17 1019.48 1031.45 1022.68 1037.75 1035.41 1045.45 1034.23 1045.45 1033.12 1047.67 1033.88 1070 1030.45 1073.16 1019.55 1085.89 1022.75 1085.89 1034.56 1074.08 1042.69 1074.11 1042.69 1075.84 1055.64 1116.28 1068.11C1116.28 1068.11 1116.31 1068.27 1116.38 1068.6L1125.68 1067.82 1126.3 1050.29 1094.25 1035.7 1092.42 1027.28 1119.02 1018.21 1120.19 992.752 1092.39 975.813 1090.56 932.894 1052.44 951.628 1038.54 951.628 1042.19 918.958 990.297 906.719 968.821 922.94 968.821 972.419 930.211 984.658 914.741 1016.9 897.965 1019.61 897.965 978.359 861.672 973.332 843.526 961.518 836.215 934.787 901.131 896.797 932.887 887.137 936.086 908.482 953.775 907.568 955.146 896.83 973.652 894.186 973.978 890.433 966.015 887.137 964.187 875.779 986.935 873.853 1000.68 859.558 1001.43 858.513 1001.59 858.579 1005.77 854.271 1053.58 848.233 1074.73 866.183 1019.28 895.72 1089.84 912.365 1098.98 888.768 1129.82 888.768 1140.72 868.207 1118.92 862.756 1118.92 836.744 1050.55 806.457 1003.35 811.907 976.72 825.843 978.547 859.721 950.708 855.478 946.432 836.744 973.097 812.527 924.695 810.112 910.792 814.322 904.754 830.641 922.9 833.709 919.278 851.855 888.435 853.683 883.605 865.759 838.859 866.999C838.859 866.999 837.618 841.607 835.823 841.607 834.028 841.607 870.909 840.987 870.909 840.987L897.574 814.942 883.017 807.664 863.663 826.463 831.548 824.636 812.194 798.003 771.038 798.003 728.087 830.086 767.448 830.086 771.038 841.607 760.822 851.105 804.393 852.312 811.052 868.044 761.997 866.216 759.615 854.107 728.772 847.449 712.421 838.376 675.704 838.67C795.908 751.103 943.723 699.275 1103.48 699.275 1287.62 699.275 1455.87 768.108 1584.23 881.197L1575.59 896.667 1542 909.82 1527.84 925.192 1531.1 943.11 1548.43 945.525 1558.88 971.635 1588.77 959.592 1593.7 994.514 1584.69 994.514 1560.15 990.891 1532.93 995.461 1506.59 1032.67 1468.93 1038.57 1463.48 1070.82 1479.37 1074.57 1474.77 1095.3 1437.37 1087.79 1403.06 1095.3 1395.79 1114.39 1401.73 1154.47 1421.86 1163.9 1455.64 1163.71 1478.46 1161.65 1485.41 1143.5 1521.05 1097.19 1544.51 1101.99 1567.62 1081.1 1571.93 1097.42 1628.79 1135.77 1621.83 1145.1 1596.21 1143.73 1606.07 1157.7 1621.83 1161.16 1640.31 1153.46 1639.91 1131.2 1648.11 1127.09 1641.51 1120.1 1603.59 1098.95 1593.6 1070.85 1625.13 1070.85 1635.21 1080.84 1662.37 1104.24 1663.51 1132.54 1691.64 1162.5 1702.12 1121.44 1721.61 1110.8 1725.26 1144.39 1744.29 1165.27 1782.25 1164.62C1789.59 1183.52 1796.18 1202.74 1801.96 1222.36L1798.01 1226.01ZM742.806 994.514 761.867 985.441 779.099 989.553 773.159 1012.69 754.556 1018.6 742.806 994.514ZM843.95 1048.99 843.95 1063.97 800.412 1063.97 784.093 1059.43 788.173 1048.99 809.093 1040.34 837.684 1040.34 837.684 1048.99 843.95 1048.99ZM863.99 1069.87 863.99 1084.4 853.089 1091.41 839.511 1093.93C839.511 1093.93 839.511 1072.16 839.511 1069.87L863.99 1069.87ZM851.718 1063.97 851.718 1046.7 866.698 1060.34 851.718 1063.97ZM858.539 1098.89 858.539 1113.02 848.128 1123.46 824.988 1123.46 828.611 1107.6 839.544 1106.66 841.796 1101.21 858.539 1098.89ZM800.901 1069.87 824.955 1069.87 794.113 1112.99 781.384 1106.17 784.126 1088.02 800.901 1069.87ZM899.401 1093.93 899.401 1108.03 876.261 1108.03 869.93 1098.89 869.93 1085.77 871.757 1085.77 899.401 1093.93ZM878.024 1074.54 884.617 1067.62 895.746 1074.54 886.836 1081.88 878.024 1074.54ZM1809.83 1262.76 1812.11 1260.09C1813.06 1264.2 1814.07 1268.31 1814.98 1272.49L1809.83 1262.76Z" fill="#000000" fill-rule="nonzero" fill-opacity="1"/><path d="M433.435 1119.78 433.435 1142.49C441.366 1123.95 450.113 1105.87 459.48 1088.15L433.435 1119.78Z" fill="#000000" fill-rule="nonzero" fill-opacity="1"/></g></g></g><path d="M0.248816-11.4556 25.5545-10.906 51.0473-9.26499 76.4271-6.57422 101.646-2.86951 126.655 1.81349 151.408 7.43945 175.855 13.9733 199.95 21.3802 223.644 29.6255 246.89 38.675 269.64 48.4945 291.846 59.0503 313.462 70.3089 334.438 82.237 354.727 94.8018 374.281 107.971 393.052 121.711 410.991 135.992 428.05 150.781 444.181 166.048 459.333 181.763 473.457 197.894 486.502 214.414 498.416 231.292 509.145 248.499 518.637 266.006 526.833 283.784 533.676 301.799 539.105 320.02 543.035 338.292 544.457 347.65 545.47 356.921 546.083 366.213 546.283 375.264 546.478 384.065 546.456 383.564 547.036 392.36 546.993 391.87 547.953 400.658 547.891 400.181 549.224 408.955 549.098 408.267 552.86 425.761 552.639 424.898 557.821 442.288 557.552 441.492 564.105 458.745 563.799 458.016 571.674 475.097 571.342 474.433 580.49 491.308 580.14 490.706 590.512 507.34 590.15 506.795 601.698 523.154 601.329 522.661 614.003 538.71 613.632 538.263 627.383 553.969 627.01 553.564 641.789 568.891 641.417 568.523 657.176 583.438 656.805 583.102 673.494 597.57 673.125 597.263 690.695 611.25 690.327 610.969 708.729 624.44 708.362 624.181 727.548 637.102 727.18 636.865 747.101 649.201 746.732 648.982 767.338 660.7 766.967 660.498 788.21 671.563 787.836 671.377 809.666 681.753 809.288 681.582 831.656 691.237 831.272 691.079 854.131 699.978 853.74 699.834 877.039 707.942 876.64 707.811 900.331 715.094 899.922 714.976 923.956 721.4 923.537 721.296 947.865 726.825 947.434 726.736 972.006 731.337 971.563 731.263 996.331 734.902 995.539 734.813 1013.34 736.175 1011.59 759.025 993.394 757.633 968.009 753.904 943 749.221 918.247 743.595 893.8 737.061 869.705 729.654 846.011 721.409 822.765 712.359 800.015 702.54 777.809 691.984 756.193 680.726 735.217 668.797 714.928 656.233 695.374 643.064 676.603 629.323 658.664 615.043 641.605 600.253 625.474 584.986 610.322 569.272 596.198 553.141 583.153 536.621 571.24 519.743 560.51 502.536 551.018 485.029 542.822 467.252 535.979 449.236 530.55 431.015 526.62 412.744 525.198 403.385 524.186 394.114 523.572 384.823 523.372 375.771 523.177 366.971 523.199 367.472 522.619 358.676 522.662 359.165 521.702 350.378 521.764 350.855 520.431 342.08 520.557 342.768 516.795 325.274 517.016 326.137 511.834 308.747 512.103 309.543 505.55 292.29 505.856 293.019 497.981 275.938 498.313 276.602 489.165 259.727 489.515 260.329 479.143 243.695 479.505 244.24 467.957 227.881 468.326 228.374 455.652 212.325 456.023 212.771 442.272 197.066 442.645 197.471 427.866 182.143 428.238 182.512 412.479 167.597 412.85 167.933 396.161 153.465 396.531 153.772 378.96 139.785 379.328 140.066 360.926 126.595 361.293 126.853 342.107 113.932 342.475 114.17 322.554 101.833 322.923 102.052 302.317 90.3343 302.688 90.5362 281.445 79.4717 281.819 79.6579 259.989 69.281 260.368 69.4526 237.999 59.7976 238.383 59.9552 215.524 51.0566 215.915 51.2006 192.616 43.0928 193.015 43.2235 169.324 35.9407 169.733 36.058 145.699 29.6348 146.118 29.7383 121.79 24.2089 122.221 24.2982 97.649 19.697 98.0925 19.7711 73.3244 16.1326 73.7817 16.1904 48.8667 13.5489 49.3387 13.5891 24.3258 11.979 24.8131 12-0.248816 11.4556ZM1003.09 712.6 1069.66 751.034 998.968 781.226Z" fill="#3B7D23" fill-rule="nonzero" fill-opacity="1" transform="matrix(1 0 0 -1 1164.5 1699.53)"/><g><g><g><path d="M591.461 293.152 972.251 293.152 972.251 813.137C972.251 855.199 938.153 889.297 896.092 889.297L515.3 889.297 515.3 369.312C515.3 327.25 549.399 293.152 591.461 293.152Z" stroke="#042433" stroke-width="9.66627" stroke-linecap="butt" stroke-linejoin="miter" stroke-miterlimit="8" stroke-opacity="1" fill="#156082" fill-rule="evenodd" fill-opacity="1" transform="matrix(1.00007 0 0 1 1802.33 342.393)"/><path d="M636.686 340.956 1018.65 340.956 1018.65 860.706C1018.65 902.899 984.447 937.101 942.255 937.101L560.292 937.101 560.292 417.35C560.292 375.158 594.495 340.956 636.686 340.956Z" stroke="#042433" stroke-width="9.66627" stroke-linecap="butt" stroke-linejoin="miter" stroke-miterlimit="8" stroke-opacity="1" fill="#156082" fill-rule="evenodd" fill-opacity="1" transform="matrix(1.00007 0 0 1 1802.33 342.393)"/><text fill="#000000" fill-opacity="1" font-family="Aptos,Aptos_MSFontService,sans-serif" font-style="normal" font-variant="normal" font-weight="400" font-stretch="normal" font-size="83" text-anchor="start" direction="ltr" writing-mode="lr-tb" unicode-bidi="normal" text-decoration="none" transform="matrix(1.4061 0 0 1.406 2307.15 1408)">.</text><text fill="#000000" fill-opacity="1" font-family="Aptos,Aptos_MSFontService,sans-serif" font-style="normal" font-variant="normal" font-weight="400" font-stretch="normal" font-size="83" text-anchor="start" direction="ltr" writing-mode="lr-tb" unicode-bidi="normal" text-decoration="none" transform="matrix(1.4061 0 0 1.406 2340.18 1408)">kml</text><text fill="#000000" fill-opacity="1" font-family="Aptos,Aptos_MSFontService,sans-serif" font-style="normal" font-variant="normal" font-weight="400" font-stretch="normal" font-size="83" text-anchor="start" direction="ltr" writing-mode="lr-tb" unicode-bidi="normal" text-decoration="none" transform="matrix(1.4061 0 0 1.406 2548.82 1408)">files</text></g></g></g></g></g></svg>