<svg width="1270" height="1517" xmlns="http://www.w3.org/2000/svg" xmlns:xlink="http://www.w3.org/1999/xlink" xml:space="preserve" overflow="hidden"><g transform="translate(-320 -348)"><g><g><g><g><path d="M321 351 1586 351 1586 1616 321 1616Z" fill="#FFFFFF" fill-rule="nonzero" fill-opacity="1"/><path d="M662.892 421.088 695.372 419.378 697.081 451.858 664.601 453.568Z" fill="#2B67B5" fill-rule="nonzero" fill-opacity="1"/><path d="M732.98 427.926 756.912 421.088 763.75 445.02 739.818 451.858Z" fill="#2B67B5" fill-rule="nonzero" fill-opacity="1"/><path d="M768.195 420.746 766.827 450.832 796.914 452.2 798.281 422.113Z" fill="#2B67B5" fill-rule="nonzero" fill-opacity="1"/><path d="M802.384 420.746 801.016 450.832 831.103 452.2 832.47 422.113Z" fill="#2B67B5" fill-rule="nonzero" fill-opacity="1"/><path d="M836.573 420.746 835.205 450.832 865.292 452.2 866.659 422.113Z" fill="#2B67B5" fill-rule="nonzero" fill-opacity="1"/><path d="M873.155 421.088 869.737 448.439 897.088 451.858 900.507 424.507Z" fill="#2B67B5" fill-rule="nonzero" fill-opacity="1"/><path d="M936.405 423.481 966.492 419.378 970.595 449.465 940.508 453.568Z" fill="#2B67B5" fill-rule="nonzero" fill-opacity="1"/><path d="M973.33 420.746 971.962 450.832 1002.05 452.2 1003.42 422.113Z" fill="#2B67B5" fill-rule="nonzero" fill-opacity="1"/><path d="M1007.52 420.746 1006.15 450.832 1036.24 452.2 1037.61 422.113Z" fill="#2B67B5" fill-rule="nonzero" fill-opacity="1"/><path d="M1041.71 420.746 1040.34 450.832 1070.43 452.2 1071.79 422.113Z" fill="#2B67B5" fill-rule="nonzero" fill-opacity="1"/><path d="M1075.9 420.746 1074.53 450.832 1104.62 452.2 1105.98 422.113Z" fill="#2B67B5" fill-rule="nonzero" fill-opacity="1"/><path d="M1112.48 421.088 1109.06 448.439 1136.41 451.858 1139.83 424.507Z" fill="#2B67B5" fill-rule="nonzero" fill-opacity="1"/><path d="M1175.73 421.088 1208.21 419.378 1209.92 451.858 1177.44 453.568Z" fill="#2B67B5" fill-rule="nonzero" fill-opacity="1"/><path d="M667.337 453.568 662.892 483.312 692.637 487.757 697.081 458.012Z" fill="#2B67B5" fill-rule="nonzero" fill-opacity="1"/><path d="M702.21 455.277 698.791 482.628 726.142 486.047 729.561 458.696Z" fill="#2B67B5" fill-rule="nonzero" fill-opacity="1"/><path d="M768.195 454.935 766.827 485.022 796.914 486.389 798.281 456.303Z" fill="#2B67B5" fill-rule="nonzero" fill-opacity="1"/><path d="M802.384 454.935 801.016 485.022 831.103 486.389 832.47 456.303Z" fill="#2B67B5" fill-rule="nonzero" fill-opacity="1"/><path d="M833.838 459.38 862.215 453.568 868.027 481.945 839.65 487.757Z" fill="#2B67B5" fill-rule="nonzero" fill-opacity="1"/><path d="M939.141 454.935 937.773 485.022 967.859 486.389 969.227 456.303Z" fill="#2B67B5" fill-rule="nonzero" fill-opacity="1"/><path d="M1004.78 456.986 1035.55 453.568 1038.97 484.338 1008.2 487.757Z" fill="#2B67B5" fill-rule="nonzero" fill-opacity="1"/><path d="M1073.16 456.986 1103.93 453.568 1107.35 484.338 1076.58 487.757Z" fill="#2B67B5" fill-rule="nonzero" fill-opacity="1"/><path d="M1141.54 457.67 1171.63 453.568 1175.73 483.654 1145.64 487.757Z" fill="#2B67B5" fill-rule="nonzero" fill-opacity="1"/><path d="M1178.46 454.935 1177.1 485.022 1207.18 486.389 1208.55 456.303Z" fill="#2B67B5" fill-rule="nonzero" fill-opacity="1"/><path d="M1217.44 453.568 1209.92 480.235 1236.59 487.757 1244.11 461.089Z" fill="#2B67B5" fill-rule="nonzero" fill-opacity="1"/><path d="M731.27 491.859 761.357 487.757 765.46 517.843 735.373 521.946Z" fill="#2B67B5" fill-rule="nonzero" fill-opacity="1"/><path d="M765.46 493.569 793.837 487.757 799.649 516.134 771.272 521.946Z" fill="#2B67B5" fill-rule="nonzero" fill-opacity="1"/><path d="M902.216 491.859 932.303 487.757 936.406 517.843 906.319 521.946Z" fill="#2B67B5" fill-rule="nonzero" fill-opacity="1"/><path d="M939.141 489.124 937.773 519.211 967.859 520.578 969.227 490.492Z" fill="#2B67B5" fill-rule="nonzero" fill-opacity="1"/><path d="M975.723 489.466 972.304 516.818 999.655 520.236 1003.07 492.885Z" fill="#2B67B5" fill-rule="nonzero" fill-opacity="1"/><path d="M1038.97 489.466 1071.45 487.757 1073.16 520.236 1040.68 521.946Z" fill="#2B67B5" fill-rule="nonzero" fill-opacity="1"/><path d="M1144.28 489.124 1142.91 519.211 1172.99 520.578 1174.36 490.492Z" fill="#2B67B5" fill-rule="nonzero" fill-opacity="1"/><path d="M1209.92 491.176 1240.69 487.757 1244.11 518.527 1213.34 521.946Z" fill="#2B67B5" fill-rule="nonzero" fill-opacity="1"/><path d="M662.892 527.074 691.953 521.946 697.081 551.007 668.02 556.135Z" fill="#2B67B5" fill-rule="nonzero" fill-opacity="1"/><path d="M731.27 525.365 762.041 521.946 765.46 552.716 734.689 556.135Z" fill="#2B67B5" fill-rule="nonzero" fill-opacity="1"/><path d="M799.649 523.655 832.128 521.946 833.838 554.426 801.358 556.135Z" fill="#2B67B5" fill-rule="nonzero" fill-opacity="1"/><path d="M868.027 526.049 898.114 521.946 902.216 552.032 872.13 556.135Z" fill="#2B67B5" fill-rule="nonzero" fill-opacity="1"/><path d="M904.951 523.313 903.584 553.4 933.67 554.768 935.038 524.681Z" fill="#2B67B5" fill-rule="nonzero" fill-opacity="1"/><path d="M936.405 527.758 964.782 521.946 970.595 550.323 942.218 556.135Z" fill="#2B67B5" fill-rule="nonzero" fill-opacity="1"/><path d="M1043.42 521.946 1038.97 551.69 1068.72 556.135 1073.16 526.391Z" fill="#2B67B5" fill-rule="nonzero" fill-opacity="1"/><path d="M1080.68 521.946 1073.16 548.613 1099.83 556.135 1107.35 529.468Z" fill="#2B67B5" fill-rule="nonzero" fill-opacity="1"/><path d="M1141.54 525.365 1172.31 521.946 1175.73 552.716 1144.96 556.135Z" fill="#2B67B5" fill-rule="nonzero" fill-opacity="1"/><path d="M697.081 557.845 729.561 556.135 731.27 588.615 698.791 590.324Z" fill="#2B67B5" fill-rule="nonzero" fill-opacity="1"/><path d="M767.169 564.682 791.101 557.845 797.939 581.777 774.007 588.615Z" fill="#2B67B5" fill-rule="nonzero" fill-opacity="1"/><path d="M802.384 557.503 801.016 587.589 831.103 588.957 832.47 558.87Z" fill="#2B67B5" fill-rule="nonzero" fill-opacity="1"/><path d="M868.027 559.554 898.797 556.135 902.216 586.905 871.446 590.324Z" fill="#2B67B5" fill-rule="nonzero" fill-opacity="1"/><path d="M970.595 561.263 999.655 556.135 1004.78 585.196 975.723 590.324Z" fill="#2B67B5" fill-rule="nonzero" fill-opacity="1"/><path d="M1075.9 557.503 1074.53 587.589 1104.62 588.957 1105.98 558.87Z" fill="#2B67B5" fill-rule="nonzero" fill-opacity="1"/><path d="M1209.92 557.845 1242.4 556.135 1244.11 588.615 1211.63 590.324Z" fill="#2B67B5" fill-rule="nonzero" fill-opacity="1"/><path d="M697.081 593.743 727.851 590.324 731.27 621.095 700.5 624.513Z" fill="#2B67B5" fill-rule="nonzero" fill-opacity="1"/><path d="M802.384 591.692 801.016 621.778 831.103 623.146 832.47 593.059Z" fill="#2B67B5" fill-rule="nonzero" fill-opacity="1"/><path d="M1004.78 594.427 1034.87 590.324 1038.97 620.411 1008.89 624.513Z" fill="#2B67B5" fill-rule="nonzero" fill-opacity="1"/><path d="M1041.71 591.692 1040.34 621.778 1070.43 623.146 1071.79 593.059Z" fill="#2B67B5" fill-rule="nonzero" fill-opacity="1"/><path d="M1075.9 591.692 1074.53 621.778 1104.62 623.146 1105.98 593.059Z" fill="#2B67B5" fill-rule="nonzero" fill-opacity="1"/><path d="M1110.09 591.692 1108.72 621.778 1138.81 623.146 1140.17 593.059Z" fill="#2B67B5" fill-rule="nonzero" fill-opacity="1"/><path d="M1149.06 590.324 1141.54 616.992 1168.21 624.513 1175.73 597.846Z" fill="#2B67B5" fill-rule="nonzero" fill-opacity="1"/><path d="M1212.65 591.692 1211.29 621.778 1241.37 623.146 1242.74 593.059Z" fill="#2B67B5" fill-rule="nonzero" fill-opacity="1"/><path d="M662.892 626.223 695.372 624.513 697.081 656.993 664.601 658.703Z" fill="#2B67B5" fill-rule="nonzero" fill-opacity="1"/><path d="M731.27 629.642 760.331 624.513 765.46 653.574 736.399 658.703Z" fill="#2B67B5" fill-rule="nonzero" fill-opacity="1"/><path d="M799.649 627.932 830.419 624.513 833.838 655.284 803.068 658.703Z" fill="#2B67B5" fill-rule="nonzero" fill-opacity="1"/><path d="M868.027 629.642 897.088 624.513 902.216 653.574 873.155 658.703Z" fill="#2B67B5" fill-rule="nonzero" fill-opacity="1"/><path d="M936.405 629.642 965.466 624.513 970.595 653.574 941.534 658.703Z" fill="#2B67B5" fill-rule="nonzero" fill-opacity="1"/><path d="M1007.52 625.881 1006.15 655.968 1036.24 657.335 1037.61 627.249Z" fill="#2B67B5" fill-rule="nonzero" fill-opacity="1"/><path d="M1075.9 625.881 1074.53 655.968 1104.62 657.335 1105.98 627.249Z" fill="#2B67B5" fill-rule="nonzero" fill-opacity="1"/><path d="M1141.54 627.932 1172.31 624.513 1175.73 655.284 1144.96 658.703Z" fill="#2B67B5" fill-rule="nonzero" fill-opacity="1"/><path d="M1209.92 627.932 1240.69 624.513 1244.11 655.284 1213.34 658.703Z" fill="#2B67B5" fill-rule="nonzero" fill-opacity="1"/><path d="M667.337 658.703 662.892 688.447 692.637 692.892 697.081 663.147Z" fill="#2B67B5" fill-rule="nonzero" fill-opacity="1"/><path d="M702.21 660.412 698.791 687.763 726.142 691.182 729.561 663.831Z" fill="#2B67B5" fill-rule="nonzero" fill-opacity="1"/><path d="M765.46 660.412 797.939 658.703 799.649 691.182 767.169 692.892Z" fill="#2B67B5" fill-rule="nonzero" fill-opacity="1"/><path d="M970.595 662.805 1000.68 658.703 1004.78 688.789 974.697 692.892Z" fill="#2B67B5" fill-rule="nonzero" fill-opacity="1"/><path d="M1007.52 660.07 1006.15 690.157 1036.24 691.524 1037.61 661.438Z" fill="#2B67B5" fill-rule="nonzero" fill-opacity="1"/><path d="M1073.16 662.122 1103.93 658.703 1107.35 689.473 1076.58 692.892Z" fill="#2B67B5" fill-rule="nonzero" fill-opacity="1"/><path d="M1175.73 663.831 1204.79 658.703 1209.92 687.763 1180.86 692.892Z" fill="#2B67B5" fill-rule="nonzero" fill-opacity="1"/><path d="M389.378 694.601 421.858 692.892 423.568 725.372 391.088 727.081Z" fill="#2B67B5" fill-rule="nonzero" fill-opacity="1"/><path d="M457.757 696.995 487.843 692.892 491.946 722.978 461.86 727.081Z" fill="#2B67B5" fill-rule="nonzero" fill-opacity="1"/><path d="M499.468 692.892 491.946 719.559 518.614 727.081 526.135 700.413Z" fill="#2B67B5" fill-rule="nonzero" fill-opacity="1"/><path d="M562.034 701.439 585.966 694.601 592.804 718.534 568.872 725.372Z" fill="#2B67B5" fill-rule="nonzero" fill-opacity="1"/><path d="M597.249 694.259 595.881 724.346 625.968 725.713 627.335 695.627Z" fill="#2B67B5" fill-rule="nonzero" fill-opacity="1"/><path d="M636.224 692.892 628.703 719.559 655.37 727.081 662.892 700.413Z" fill="#2B67B5" fill-rule="nonzero" fill-opacity="1"/><path d="M732.98 701.439 756.912 694.601 763.75 718.534 739.818 725.372Z" fill="#2B67B5" fill-rule="nonzero" fill-opacity="1"/><path d="M768.195 694.259 766.827 724.346 796.914 725.713 798.281 695.627Z" fill="#2B67B5" fill-rule="nonzero" fill-opacity="1"/><path d="M804.777 694.601 801.358 721.953 828.71 725.372 832.128 698.02Z" fill="#2B67B5" fill-rule="nonzero" fill-opacity="1"/><path d="M868.027 698.02 897.088 692.892 902.216 721.953 873.155 727.081Z" fill="#2B67B5" fill-rule="nonzero" fill-opacity="1"/><path d="M975.039 692.892 970.595 722.636 1000.34 727.081 1004.78 697.336Z" fill="#2B67B5" fill-rule="nonzero" fill-opacity="1"/><path d="M1007.52 694.259 1006.15 724.346 1036.24 725.713 1037.61 695.627Z" fill="#2B67B5" fill-rule="nonzero" fill-opacity="1"/><path d="M1046.49 692.892 1038.97 719.559 1065.64 727.081 1073.16 700.413Z" fill="#2B67B5" fill-rule="nonzero" fill-opacity="1"/><path d="M1109.06 701.439 1132.99 694.601 1139.83 718.534 1115.9 725.372Z" fill="#2B67B5" fill-rule="nonzero" fill-opacity="1"/><path d="M1146.67 694.601 1143.25 721.953 1170.6 725.372 1174.02 698.02Z" fill="#2B67B5" fill-rule="nonzero" fill-opacity="1"/><path d="M1209.92 698.02 1238.98 692.892 1244.11 721.953 1215.05 727.081Z" fill="#2B67B5" fill-rule="nonzero" fill-opacity="1"/><path d="M1278.3 694.601 1310.78 692.892 1312.49 725.372 1280.01 727.081Z" fill="#2B67B5" fill-rule="nonzero" fill-opacity="1"/><path d="M1380.86 694.601 1413.34 692.892 1415.05 725.372 1382.57 727.081Z" fill="#2B67B5" fill-rule="nonzero" fill-opacity="1"/><path d="M1449.24 696.995 1479.33 692.892 1483.43 722.978 1453.35 727.081Z" fill="#2B67B5" fill-rule="nonzero" fill-opacity="1"/><path d="M1490.95 692.892 1483.43 719.559 1510.1 727.081 1517.62 700.413Z" fill="#2B67B5" fill-rule="nonzero" fill-opacity="1"/><path d="M389.378 730.5 420.149 727.081 423.568 757.851 392.797 761.27Z" fill="#2B67B5" fill-rule="nonzero" fill-opacity="1"/><path d="M462.201 727.081 457.757 756.826 487.501 761.27 491.946 731.526Z" fill="#2B67B5" fill-rule="nonzero" fill-opacity="1"/><path d="M491.946 732.893 520.323 727.081 526.135 755.458 497.758 761.27Z" fill="#2B67B5" fill-rule="nonzero" fill-opacity="1"/><path d="M628.703 730.5 659.473 727.081 662.892 757.851 632.122 761.27Z" fill="#2B67B5" fill-rule="nonzero" fill-opacity="1"/><path d="M936.405 728.791 968.885 727.081 970.595 759.561 938.115 761.27Z" fill="#2B67B5" fill-rule="nonzero" fill-opacity="1"/><path d="M1009.23 727.081 1004.78 756.826 1034.53 761.27 1038.97 731.526Z" fill="#2B67B5" fill-rule="nonzero" fill-opacity="1"/><path d="M1041.71 728.449 1040.34 758.535 1070.43 759.903 1071.79 729.816Z" fill="#2B67B5" fill-rule="nonzero" fill-opacity="1"/><path d="M1078.29 728.791 1074.87 756.142 1102.22 759.561 1105.64 732.209Z" fill="#2B67B5" fill-rule="nonzero" fill-opacity="1"/><path d="M1175.73 728.791 1208.21 727.081 1209.92 759.561 1177.44 761.27Z" fill="#2B67B5" fill-rule="nonzero" fill-opacity="1"/><path d="M1281.03 728.449 1279.66 758.535 1309.75 759.903 1311.12 729.816Z" fill="#2B67B5" fill-rule="nonzero" fill-opacity="1"/><path d="M1320.01 727.081 1312.49 753.749 1339.15 761.27 1346.68 734.603Z" fill="#2B67B5" fill-rule="nonzero" fill-opacity="1"/><path d="M1383.6 728.449 1382.23 758.535 1412.32 759.903 1413.69 729.816Z" fill="#2B67B5" fill-rule="nonzero" fill-opacity="1"/><path d="M1417.79 728.449 1416.42 758.535 1446.51 759.903 1447.88 729.816Z" fill="#2B67B5" fill-rule="nonzero" fill-opacity="1"/><path d="M1451.98 728.449 1450.61 758.535 1480.7 759.903 1482.06 729.816Z" fill="#2B67B5" fill-rule="nonzero" fill-opacity="1"/><path d="M1486.17 728.449 1484.8 758.535 1514.89 759.903 1516.25 729.816Z" fill="#2B67B5" fill-rule="nonzero" fill-opacity="1"/><path d="M560.324 765.373 590.411 761.27 594.514 791.357 564.427 795.459Z" fill="#2B67B5" fill-rule="nonzero" fill-opacity="1"/><path d="M599.642 762.98 596.223 790.331 623.574 793.75 626.993 766.399Z" fill="#2B67B5" fill-rule="nonzero" fill-opacity="1"/><path d="M664.601 769.818 688.534 762.98 695.372 786.912 671.439 793.75Z" fill="#2B67B5" fill-rule="nonzero" fill-opacity="1"/><path d="M699.816 762.638 698.449 792.724 728.535 794.092 729.903 764.005Z" fill="#2B67B5" fill-rule="nonzero" fill-opacity="1"/><path d="M738.792 761.27 731.27 787.938 757.938 795.459 765.46 768.792Z" fill="#2B67B5" fill-rule="nonzero" fill-opacity="1"/><path d="M799.649 762.98 832.128 761.27 833.838 793.75 801.358 795.459Z" fill="#2B67B5" fill-rule="nonzero" fill-opacity="1"/><path d="M868.027 762.98 900.507 761.27 902.216 793.75 869.737 795.459Z" fill="#2B67B5" fill-rule="nonzero" fill-opacity="1"/><path d="M940.85 761.27 936.405 791.015 966.15 795.459 970.595 765.715Z" fill="#2B67B5" fill-rule="nonzero" fill-opacity="1"/><path d="M975.723 762.98 972.304 790.331 999.655 793.75 1003.07 766.399Z" fill="#2B67B5" fill-rule="nonzero" fill-opacity="1"/><path d="M1175.73 764.689 1206.5 761.27 1209.92 792.041 1179.15 795.459Z" fill="#2B67B5" fill-rule="nonzero" fill-opacity="1"/><path d="M1245.82 769.818 1269.75 762.98 1276.59 786.912 1252.66 793.75Z" fill="#2B67B5" fill-rule="nonzero" fill-opacity="1"/><path d="M1281.03 762.638 1279.66 792.724 1309.75 794.092 1311.12 764.005Z" fill="#2B67B5" fill-rule="nonzero" fill-opacity="1"/><path d="M1315.22 762.638 1313.85 792.724 1343.94 794.092 1345.31 764.005Z" fill="#2B67B5" fill-rule="nonzero" fill-opacity="1"/><path d="M1349.41 762.638 1348.04 792.724 1378.13 794.092 1379.5 764.005Z" fill="#2B67B5" fill-rule="nonzero" fill-opacity="1"/><path d="M1383.6 762.638 1382.23 792.724 1412.32 794.092 1413.69 764.005Z" fill="#2B67B5" fill-rule="nonzero" fill-opacity="1"/><path d="M1483.43 764.689 1514.2 761.27 1517.62 792.041 1486.85 795.459Z" fill="#2B67B5" fill-rule="nonzero" fill-opacity="1"/><path d="M389.378 800.588 418.439 795.459 423.568 824.52 394.507 829.649Z" fill="#2B67B5" fill-rule="nonzero" fill-opacity="1"/><path d="M457.757 797.169 490.237 795.459 491.946 827.939 459.466 829.649Z" fill="#2B67B5" fill-rule="nonzero" fill-opacity="1"/><path d="M526.135 799.562 556.222 795.459 560.324 825.546 530.238 829.649Z" fill="#2B67B5" fill-rule="nonzero" fill-opacity="1"/><path d="M560.324 801.272 588.701 795.459 594.514 823.836 566.137 829.649Z" fill="#2B67B5" fill-rule="nonzero" fill-opacity="1"/><path d="M701.526 795.459 697.081 825.204 726.826 829.649 731.27 799.904Z" fill="#2B67B5" fill-rule="nonzero" fill-opacity="1"/><path d="M734.005 796.827 732.638 826.913 762.724 828.281 764.092 798.195Z" fill="#2B67B5" fill-rule="nonzero" fill-opacity="1"/><path d="M768.195 796.827 766.827 826.913 796.914 828.281 798.281 798.195Z" fill="#2B67B5" fill-rule="nonzero" fill-opacity="1"/><path d="M802.384 796.827 801.016 826.913 831.103 828.281 832.47 798.195Z" fill="#2B67B5" fill-rule="nonzero" fill-opacity="1"/><path d="M836.573 796.827 835.205 826.913 865.292 828.281 866.659 798.195Z" fill="#2B67B5" fill-rule="nonzero" fill-opacity="1"/><path d="M870.762 796.827 869.395 826.913 899.481 828.281 900.849 798.195Z" fill="#2B67B5" fill-rule="nonzero" fill-opacity="1"/><path d="M907.345 797.169 903.926 824.52 931.277 827.939 934.696 800.588Z" fill="#2B67B5" fill-rule="nonzero" fill-opacity="1"/><path d="M1004.78 797.169 1037.26 795.459 1038.97 827.939 1006.49 829.649Z" fill="#2B67B5" fill-rule="nonzero" fill-opacity="1"/><path d="M1315.22 796.827 1313.85 826.913 1343.94 828.281 1345.31 798.195Z" fill="#2B67B5" fill-rule="nonzero" fill-opacity="1"/><path d="M1383.6 796.827 1382.23 826.913 1412.32 828.281 1413.69 798.195Z" fill="#2B67B5" fill-rule="nonzero" fill-opacity="1"/><path d="M425.277 838.196 449.21 831.358 456.047 855.291 432.115 862.128Z" fill="#2B67B5" fill-rule="nonzero" fill-opacity="1"/><path d="M460.492 831.016 459.124 861.103 489.211 862.47 490.578 832.384Z" fill="#2B67B5" fill-rule="nonzero" fill-opacity="1"/><path d="M494.681 831.016 493.314 861.103 523.4 862.47 524.768 832.384Z" fill="#2B67B5" fill-rule="nonzero" fill-opacity="1"/><path d="M528.87 831.016 527.503 861.103 557.589 862.47 558.957 832.384Z" fill="#2B67B5" fill-rule="nonzero" fill-opacity="1"/><path d="M596.223 838.196 620.155 831.358 626.993 855.291 603.061 862.128Z" fill="#2B67B5" fill-rule="nonzero" fill-opacity="1"/><path d="M631.438 831.016 630.07 861.103 660.157 862.47 661.524 832.384Z" fill="#2B67B5" fill-rule="nonzero" fill-opacity="1"/><path d="M670.414 829.649 662.892 856.316 689.56 863.838 697.081 837.17Z" fill="#2B67B5" fill-rule="nonzero" fill-opacity="1"/><path d="M799.649 833.068 830.419 829.649 833.838 860.419 803.068 863.838Z" fill="#2B67B5" fill-rule="nonzero" fill-opacity="1"/><path d="M1007.52 831.016 1006.15 861.103 1036.24 862.47 1037.61 832.384Z" fill="#2B67B5" fill-rule="nonzero" fill-opacity="1"/><path d="M1143.25 838.196 1167.18 831.358 1174.02 855.291 1150.09 862.128Z" fill="#2B67B5" fill-rule="nonzero" fill-opacity="1"/><path d="M1178.46 831.016 1177.1 861.103 1207.18 862.47 1208.55 832.384Z" fill="#2B67B5" fill-rule="nonzero" fill-opacity="1"/><path d="M1212.65 831.016 1211.29 861.103 1241.37 862.47 1242.74 832.384Z" fill="#2B67B5" fill-rule="nonzero" fill-opacity="1"/><path d="M1251.63 829.649 1244.11 856.316 1270.78 863.838 1278.3 837.17Z" fill="#2B67B5" fill-rule="nonzero" fill-opacity="1"/><path d="M1315.22 831.016 1313.85 861.103 1343.94 862.47 1345.31 832.384Z" fill="#2B67B5" fill-rule="nonzero" fill-opacity="1"/><path d="M1349.41 831.016 1348.04 861.103 1378.13 862.47 1379.5 832.384Z" fill="#2B67B5" fill-rule="nonzero" fill-opacity="1"/><path d="M1383.6 831.016 1382.23 861.103 1412.32 862.47 1413.69 832.384Z" fill="#2B67B5" fill-rule="nonzero" fill-opacity="1"/><path d="M1449.24 831.358 1481.72 829.649 1483.43 862.128 1450.95 863.838Z" fill="#2B67B5" fill-rule="nonzero" fill-opacity="1"/><path d="M389.378 865.547 421.858 863.838 423.568 896.318 391.088 898.027Z" fill="#2B67B5" fill-rule="nonzero" fill-opacity="1"/><path d="M460.492 865.205 459.124 895.292 489.211 896.659 490.578 866.573Z" fill="#2B67B5" fill-rule="nonzero" fill-opacity="1"/><path d="M494.681 865.205 493.314 895.292 523.4 896.659 524.768 866.573Z" fill="#2B67B5" fill-rule="nonzero" fill-opacity="1"/><path d="M528.87 865.205 527.503 895.292 557.589 896.659 558.957 866.573Z" fill="#2B67B5" fill-rule="nonzero" fill-opacity="1"/><path d="M567.846 863.838 560.324 890.505 586.992 898.027 594.514 871.359Z" fill="#2B67B5" fill-rule="nonzero" fill-opacity="1"/><path d="M665.627 865.205 664.26 895.292 694.346 896.659 695.714 866.573Z" fill="#2B67B5" fill-rule="nonzero" fill-opacity="1"/><path d="M731.27 868.966 760.331 863.838 765.46 892.899 736.399 898.027Z" fill="#2B67B5" fill-rule="nonzero" fill-opacity="1"/><path d="M833.838 868.966 862.899 863.838 868.027 892.899 838.966 898.027Z" fill="#2B67B5" fill-rule="nonzero" fill-opacity="1"/><path d="M936.405 867.941 966.492 863.838 970.595 893.924 940.508 898.027Z" fill="#2B67B5" fill-rule="nonzero" fill-opacity="1"/><path d="M973.33 865.205 971.962 895.292 1002.05 896.659 1003.42 866.573Z" fill="#2B67B5" fill-rule="nonzero" fill-opacity="1"/><path d="M1004.78 869.65 1033.16 863.838 1038.97 892.215 1010.6 898.027Z" fill="#2B67B5" fill-rule="nonzero" fill-opacity="1"/><path d="M1107.35 865.547 1139.83 863.838 1141.54 896.318 1109.06 898.027Z" fill="#2B67B5" fill-rule="nonzero" fill-opacity="1"/><path d="M1214.36 863.838 1209.92 893.582 1239.66 898.027 1244.11 868.282Z" fill="#2B67B5" fill-rule="nonzero" fill-opacity="1"/><path d="M1244.11 869.65 1272.49 863.838 1278.3 892.215 1249.92 898.027Z" fill="#2B67B5" fill-rule="nonzero" fill-opacity="1"/><path d="M1312.49 867.257 1343.26 863.838 1346.68 894.608 1315.91 898.027Z" fill="#2B67B5" fill-rule="nonzero" fill-opacity="1"/><path d="M1380.86 867.257 1411.64 863.838 1415.05 894.608 1384.28 898.027Z" fill="#2B67B5" fill-rule="nonzero" fill-opacity="1"/><path d="M1449.24 867.257 1480.01 863.838 1483.43 894.608 1452.66 898.027Z" fill="#2B67B5" fill-rule="nonzero" fill-opacity="1"/><path d="M389.378 901.446 420.149 898.027 423.568 928.797 392.797 932.216Z" fill="#2B67B5" fill-rule="nonzero" fill-opacity="1"/><path d="M460.492 899.395 459.124 929.481 489.211 930.849 490.578 900.762Z" fill="#2B67B5" fill-rule="nonzero" fill-opacity="1"/><path d="M564.769 898.027 560.324 927.772 590.069 932.216 594.514 902.472Z" fill="#2B67B5" fill-rule="nonzero" fill-opacity="1"/><path d="M597.249 899.395 595.881 929.481 625.968 930.849 627.335 900.762Z" fill="#2B67B5" fill-rule="nonzero" fill-opacity="1"/><path d="M631.438 899.395 630.07 929.481 660.157 930.849 661.524 900.762Z" fill="#2B67B5" fill-rule="nonzero" fill-opacity="1"/><path d="M662.892 903.839 691.269 898.027 697.081 926.404 668.704 932.216Z" fill="#2B67B5" fill-rule="nonzero" fill-opacity="1"/><path d="M903.926 906.574 927.858 899.736 934.696 923.669 910.764 930.507Z" fill="#2B67B5" fill-rule="nonzero" fill-opacity="1"/><path d="M939.141 899.395 937.773 929.481 967.859 930.849 969.227 900.762Z" fill="#2B67B5" fill-rule="nonzero" fill-opacity="1"/><path d="M970.595 903.839 998.972 898.027 1004.78 926.404 976.407 932.216Z" fill="#2B67B5" fill-rule="nonzero" fill-opacity="1"/><path d="M1110.09 899.395 1108.72 929.481 1138.81 930.849 1140.17 900.762Z" fill="#2B67B5" fill-rule="nonzero" fill-opacity="1"/><path d="M1278.3 899.736 1310.78 898.027 1312.49 930.507 1280.01 932.216Z" fill="#2B67B5" fill-rule="nonzero" fill-opacity="1"/><path d="M1415.05 899.736 1447.53 898.027 1449.24 930.507 1416.76 932.216Z" fill="#2B67B5" fill-rule="nonzero" fill-opacity="1"/><path d="M423.568 936.319 453.654 932.216 457.757 962.303 427.67 966.405Z" fill="#2B67B5" fill-rule="nonzero" fill-opacity="1"/><path d="M460.492 933.584 459.124 963.67 489.211 965.038 490.578 934.951Z" fill="#2B67B5" fill-rule="nonzero" fill-opacity="1"/><path d="M526.135 937.345 555.196 932.216 560.324 961.277 531.264 966.405Z" fill="#2B67B5" fill-rule="nonzero" fill-opacity="1"/><path d="M833.838 936.319 863.924 932.216 868.027 962.303 837.941 966.405Z" fill="#2B67B5" fill-rule="nonzero" fill-opacity="1"/><path d="M875.549 932.216 868.027 958.884 894.695 966.405 902.216 939.738Z" fill="#2B67B5" fill-rule="nonzero" fill-opacity="1"/><path d="M936.405 935.635 967.176 932.216 970.595 962.986 939.824 966.405Z" fill="#2B67B5" fill-rule="nonzero" fill-opacity="1"/><path d="M1038.97 936.319 1069.06 932.216 1073.16 962.303 1043.08 966.405Z" fill="#2B67B5" fill-rule="nonzero" fill-opacity="1"/><path d="M1075.9 933.584 1074.53 963.67 1104.62 965.038 1105.98 934.951Z" fill="#2B67B5" fill-rule="nonzero" fill-opacity="1"/><path d="M1110.09 933.584 1108.72 963.67 1138.81 965.038 1140.17 934.951Z" fill="#2B67B5" fill-rule="nonzero" fill-opacity="1"/><path d="M1244.11 936.319 1274.19 932.216 1278.3 962.303 1248.21 966.405Z" fill="#2B67B5" fill-rule="nonzero" fill-opacity="1"/><path d="M1281.03 933.584 1279.66 963.67 1309.75 965.038 1311.12 934.951Z" fill="#2B67B5" fill-rule="nonzero" fill-opacity="1"/><path d="M1317.61 933.926 1314.2 961.277 1341.55 964.696 1344.97 937.345Z" fill="#2B67B5" fill-rule="nonzero" fill-opacity="1"/><path d="M1417.79 933.584 1416.42 963.67 1446.51 965.038 1447.88 934.951Z" fill="#2B67B5" fill-rule="nonzero" fill-opacity="1"/><path d="M428.012 966.405 423.568 996.15 453.312 1000.59 457.757 970.85Z" fill="#2B67B5" fill-rule="nonzero" fill-opacity="1"/><path d="M457.757 972.218 486.134 966.405 491.946 994.782 463.569 1000.59Z" fill="#2B67B5" fill-rule="nonzero" fill-opacity="1"/><path d="M596.223 974.953 620.155 968.115 626.993 992.047 603.061 998.885Z" fill="#2B67B5" fill-rule="nonzero" fill-opacity="1"/><path d="M631.438 967.773 630.07 997.859 660.157 999.227 661.524 969.141Z" fill="#2B67B5" fill-rule="nonzero" fill-opacity="1"/><path d="M668.02 968.115 664.601 995.466 691.953 998.885 695.372 971.534Z" fill="#2B67B5" fill-rule="nonzero" fill-opacity="1"/><path d="M801.358 974.953 825.291 968.115 832.128 992.047 808.196 998.885Z" fill="#2B67B5" fill-rule="nonzero" fill-opacity="1"/><path d="M836.573 967.773 835.205 997.859 865.292 999.227 866.659 969.141Z" fill="#2B67B5" fill-rule="nonzero" fill-opacity="1"/><path d="M870.762 967.773 869.395 997.859 899.481 999.227 900.849 969.141Z" fill="#2B67B5" fill-rule="nonzero" fill-opacity="1"/><path d="M909.738 966.405 902.216 993.073 928.884 1000.59 936.406 973.927Z" fill="#2B67B5" fill-rule="nonzero" fill-opacity="1"/><path d="M1006.49 974.953 1030.43 968.115 1037.26 992.047 1013.33 998.885Z" fill="#2B67B5" fill-rule="nonzero" fill-opacity="1"/><path d="M1041.71 967.773 1040.34 997.859 1070.43 999.227 1071.79 969.141Z" fill="#2B67B5" fill-rule="nonzero" fill-opacity="1"/><path d="M1075.9 967.773 1074.53 997.859 1104.62 999.227 1105.98 969.141Z" fill="#2B67B5" fill-rule="nonzero" fill-opacity="1"/><path d="M1110.09 967.773 1108.72 997.859 1138.81 999.227 1140.17 969.141Z" fill="#2B67B5" fill-rule="nonzero" fill-opacity="1"/><path d="M1144.28 967.773 1142.91 997.859 1172.99 999.227 1174.36 969.141Z" fill="#2B67B5" fill-rule="nonzero" fill-opacity="1"/><path d="M1183.25 966.405 1175.73 993.073 1202.4 1000.59 1209.92 973.927Z" fill="#2B67B5" fill-rule="nonzero" fill-opacity="1"/><path d="M1246.84 967.773 1245.48 997.859 1275.56 999.227 1276.93 969.141Z" fill="#2B67B5" fill-rule="nonzero" fill-opacity="1"/><path d="M1281.03 967.773 1279.66 997.859 1309.75 999.227 1311.12 969.141Z" fill="#2B67B5" fill-rule="nonzero" fill-opacity="1"/><path d="M1346.68 968.115 1379.16 966.405 1380.86 998.885 1348.39 1000.59Z" fill="#2B67B5" fill-rule="nonzero" fill-opacity="1"/><path d="M1415.05 969.824 1445.82 966.405 1449.24 997.176 1418.47 1000.59Z" fill="#2B67B5" fill-rule="nonzero" fill-opacity="1"/><path d="M560.324 1002.3 592.804 1000.59 594.514 1033.07 562.034 1034.78Z" fill="#2B67B5" fill-rule="nonzero" fill-opacity="1"/><path d="M732.98 1009.14 756.912 1002.3 763.75 1026.24 739.818 1033.07Z" fill="#2B67B5" fill-rule="nonzero" fill-opacity="1"/><path d="M770.588 1002.3 767.169 1029.66 794.52 1033.07 797.939 1005.72Z" fill="#2B67B5" fill-rule="nonzero" fill-opacity="1"/><path d="M836.573 1001.96 835.205 1032.05 865.292 1033.42 866.659 1003.33Z" fill="#2B67B5" fill-rule="nonzero" fill-opacity="1"/><path d="M870.762 1001.96 869.395 1032.05 899.481 1033.42 900.849 1003.33Z" fill="#2B67B5" fill-rule="nonzero" fill-opacity="1"/><path d="M904.951 1001.96 903.584 1032.05 933.67 1033.42 935.038 1003.33Z" fill="#2B67B5" fill-rule="nonzero" fill-opacity="1"/><path d="M939.141 1001.96 937.773 1032.05 967.859 1033.42 969.227 1003.33Z" fill="#2B67B5" fill-rule="nonzero" fill-opacity="1"/><path d="M978.116 1000.59 970.595 1027.26 997.262 1034.78 1004.78 1008.12Z" fill="#2B67B5" fill-rule="nonzero" fill-opacity="1"/><path d="M1075.9 1001.96 1074.53 1032.05 1104.62 1033.42 1105.98 1003.33Z" fill="#2B67B5" fill-rule="nonzero" fill-opacity="1"/><path d="M1110.09 1001.96 1108.72 1032.05 1138.81 1033.42 1140.17 1003.33Z" fill="#2B67B5" fill-rule="nonzero" fill-opacity="1"/><path d="M1144.28 1001.96 1142.91 1032.05 1172.99 1033.42 1174.36 1003.33Z" fill="#2B67B5" fill-rule="nonzero" fill-opacity="1"/><path d="M1178.46 1001.96 1177.1 1032.05 1207.18 1033.42 1208.55 1003.33Z" fill="#2B67B5" fill-rule="nonzero" fill-opacity="1"/><path d="M1212.65 1001.96 1211.29 1032.05 1241.37 1033.42 1242.74 1003.33Z" fill="#2B67B5" fill-rule="nonzero" fill-opacity="1"/><path d="M1246.84 1001.96 1245.48 1032.05 1275.56 1033.42 1276.93 1003.33Z" fill="#2B67B5" fill-rule="nonzero" fill-opacity="1"/><path d="M1278.3 1006.41 1306.67 1000.59 1312.49 1028.97 1284.11 1034.78Z" fill="#2B67B5" fill-rule="nonzero" fill-opacity="1"/><path d="M1349.41 1001.96 1348.04 1032.05 1378.13 1033.42 1379.5 1003.33Z" fill="#2B67B5" fill-rule="nonzero" fill-opacity="1"/><path d="M1385.99 1002.3 1382.57 1029.66 1409.93 1033.07 1413.34 1005.72Z" fill="#2B67B5" fill-rule="nonzero" fill-opacity="1"/><path d="M1449.24 1004.7 1479.33 1000.59 1483.43 1030.68 1453.35 1034.78Z" fill="#2B67B5" fill-rule="nonzero" fill-opacity="1"/><path d="M1488.56 1002.3 1485.14 1029.66 1512.49 1033.07 1515.91 1005.72Z" fill="#2B67B5" fill-rule="nonzero" fill-opacity="1"/><path d="M423.568 1039.91 452.628 1034.78 457.757 1063.84 428.696 1068.97Z" fill="#2B67B5" fill-rule="nonzero" fill-opacity="1"/><path d="M564.769 1034.78 560.324 1064.53 590.069 1068.97 594.514 1039.23Z" fill="#2B67B5" fill-rule="nonzero" fill-opacity="1"/><path d="M599.642 1036.49 596.223 1063.84 623.574 1067.26 626.993 1039.91Z" fill="#2B67B5" fill-rule="nonzero" fill-opacity="1"/><path d="M662.892 1038.89 692.978 1034.78 697.081 1064.87 666.995 1068.97Z" fill="#2B67B5" fill-rule="nonzero" fill-opacity="1"/><path d="M704.603 1034.78 697.081 1061.45 723.749 1068.97 731.27 1042.31Z" fill="#2B67B5" fill-rule="nonzero" fill-opacity="1"/><path d="M799.649 1038.89 829.735 1034.78 833.838 1064.87 803.751 1068.97Z" fill="#2B67B5" fill-rule="nonzero" fill-opacity="1"/><path d="M836.573 1036.15 835.205 1066.24 865.292 1067.61 866.659 1037.52Z" fill="#2B67B5" fill-rule="nonzero" fill-opacity="1"/><path d="M902.216 1038.2 932.987 1034.78 936.406 1065.55 905.635 1068.97Z" fill="#2B67B5" fill-rule="nonzero" fill-opacity="1"/><path d="M970.595 1038.2 1001.36 1034.78 1004.78 1065.55 974.014 1068.97Z" fill="#2B67B5" fill-rule="nonzero" fill-opacity="1"/><path d="M1073.16 1038.2 1103.93 1034.78 1107.35 1065.55 1076.58 1068.97Z" fill="#2B67B5" fill-rule="nonzero" fill-opacity="1"/><path d="M1144.28 1036.15 1142.91 1066.24 1172.99 1067.61 1174.36 1037.52Z" fill="#2B67B5" fill-rule="nonzero" fill-opacity="1"/><path d="M1212.65 1036.15 1211.29 1066.24 1241.37 1067.61 1242.74 1037.52Z" fill="#2B67B5" fill-rule="nonzero" fill-opacity="1"/><path d="M1314.2 1043.33 1338.13 1036.49 1344.97 1060.43 1321.03 1067.26Z" fill="#2B67B5" fill-rule="nonzero" fill-opacity="1"/><path d="M1349.41 1036.15 1348.04 1066.24 1378.13 1067.61 1379.5 1037.52Z" fill="#2B67B5" fill-rule="nonzero" fill-opacity="1"/><path d="M1416.76 1043.33 1440.7 1036.49 1447.53 1060.43 1423.6 1067.26Z" fill="#2B67B5" fill-rule="nonzero" fill-opacity="1"/><path d="M1451.98 1036.15 1450.61 1066.24 1480.7 1067.61 1482.06 1037.52Z" fill="#2B67B5" fill-rule="nonzero" fill-opacity="1"/><path d="M667.337 1068.97 662.892 1098.72 692.637 1103.16 697.081 1073.42Z" fill="#2B67B5" fill-rule="nonzero" fill-opacity="1"/><path d="M699.816 1070.34 698.449 1100.43 728.535 1101.79 729.903 1071.71Z" fill="#2B67B5" fill-rule="nonzero" fill-opacity="1"/><path d="M734.005 1070.34 732.638 1100.43 762.724 1101.79 764.092 1071.71Z" fill="#2B67B5" fill-rule="nonzero" fill-opacity="1"/><path d="M768.195 1070.34 766.827 1100.43 796.914 1101.79 798.281 1071.71Z" fill="#2B67B5" fill-rule="nonzero" fill-opacity="1"/><path d="M802.384 1070.34 801.016 1100.43 831.103 1101.79 832.47 1071.71Z" fill="#2B67B5" fill-rule="nonzero" fill-opacity="1"/><path d="M836.573 1070.34 835.205 1100.43 865.292 1101.79 866.659 1071.71Z" fill="#2B67B5" fill-rule="nonzero" fill-opacity="1"/><path d="M873.155 1070.68 869.737 1098.03 897.088 1101.45 900.507 1074.1Z" fill="#2B67B5" fill-rule="nonzero" fill-opacity="1"/><path d="M936.405 1074.1 965.466 1068.97 970.595 1098.03 941.534 1103.16Z" fill="#2B67B5" fill-rule="nonzero" fill-opacity="1"/><path d="M1038.97 1074.1 1068.03 1068.97 1073.16 1098.03 1044.1 1103.16Z" fill="#2B67B5" fill-rule="nonzero" fill-opacity="1"/><path d="M1145.99 1068.97 1141.54 1098.72 1171.29 1103.16 1175.73 1073.42Z" fill="#2B67B5" fill-rule="nonzero" fill-opacity="1"/><path d="M1178.46 1070.34 1177.1 1100.43 1207.18 1101.79 1208.55 1071.71Z" fill="#2B67B5" fill-rule="nonzero" fill-opacity="1"/><path d="M1212.65 1070.34 1211.29 1100.43 1241.37 1101.79 1242.74 1071.71Z" fill="#2B67B5" fill-rule="nonzero" fill-opacity="1"/><path d="M1249.24 1070.68 1245.82 1098.03 1273.17 1101.45 1276.59 1074.1Z" fill="#2B67B5" fill-rule="nonzero" fill-opacity="1"/><path d="M1346.68 1072.39 1377.45 1068.97 1380.86 1099.74 1350.09 1103.16Z" fill="#2B67B5" fill-rule="nonzero" fill-opacity="1"/><path d="M1451.98 1070.34 1450.61 1100.43 1480.7 1101.79 1482.06 1071.71Z" fill="#2B67B5" fill-rule="nonzero" fill-opacity="1"/><path d="M389.378 1107.26 419.465 1103.16 423.568 1133.25 393.481 1137.35Z" fill="#2B67B5" fill-rule="nonzero" fill-opacity="1"/><path d="M428.696 1104.87 425.277 1132.22 452.628 1135.64 456.047 1108.29Z" fill="#2B67B5" fill-rule="nonzero" fill-opacity="1"/><path d="M526.135 1108.29 555.196 1103.16 560.324 1132.22 531.264 1137.35Z" fill="#2B67B5" fill-rule="nonzero" fill-opacity="1"/><path d="M596.223 1111.71 620.155 1104.87 626.993 1128.8 603.061 1135.64Z" fill="#2B67B5" fill-rule="nonzero" fill-opacity="1"/><path d="M633.831 1104.87 630.412 1132.22 657.764 1135.64 661.182 1108.29Z" fill="#2B67B5" fill-rule="nonzero" fill-opacity="1"/><path d="M731.27 1106.58 762.041 1103.16 765.46 1133.93 734.689 1137.35Z" fill="#2B67B5" fill-rule="nonzero" fill-opacity="1"/><path d="M804.093 1103.16 799.649 1132.91 829.393 1137.35 833.838 1107.61Z" fill="#2B67B5" fill-rule="nonzero" fill-opacity="1"/><path d="M836.573 1104.53 835.205 1134.62 865.292 1135.98 866.659 1105.9Z" fill="#2B67B5" fill-rule="nonzero" fill-opacity="1"/><path d="M1004.78 1104.87 1037.26 1103.16 1038.97 1135.64 1006.49 1137.35Z" fill="#2B67B5" fill-rule="nonzero" fill-opacity="1"/><path d="M1074.87 1111.71 1098.8 1104.87 1105.64 1128.8 1081.71 1135.64Z" fill="#2B67B5" fill-rule="nonzero" fill-opacity="1"/><path d="M1114.87 1103.16 1107.35 1129.83 1134.02 1137.35 1141.54 1110.68Z" fill="#2B67B5" fill-rule="nonzero" fill-opacity="1"/><path d="M1209.92 1106.58 1240.69 1103.16 1244.11 1133.93 1213.34 1137.35Z" fill="#2B67B5" fill-rule="nonzero" fill-opacity="1"/><path d="M1312.49 1108.29 1341.55 1103.16 1346.68 1132.22 1317.61 1137.35Z" fill="#2B67B5" fill-rule="nonzero" fill-opacity="1"/><path d="M1380.86 1107.26 1410.95 1103.16 1415.05 1133.25 1384.97 1137.35Z" fill="#2B67B5" fill-rule="nonzero" fill-opacity="1"/><path d="M1417.79 1104.53 1416.42 1134.62 1446.51 1135.98 1447.88 1105.9Z" fill="#2B67B5" fill-rule="nonzero" fill-opacity="1"/><path d="M1449.24 1108.97 1477.62 1103.16 1483.43 1131.54 1455.06 1137.35Z" fill="#2B67B5" fill-rule="nonzero" fill-opacity="1"/><path d="M389.378 1140.77 420.149 1137.35 423.568 1168.12 392.797 1171.54Z" fill="#2B67B5" fill-rule="nonzero" fill-opacity="1"/><path d="M491.946 1139.06 524.426 1137.35 526.135 1169.83 493.655 1171.54Z" fill="#2B67B5" fill-rule="nonzero" fill-opacity="1"/><path d="M697.081 1139.06 729.561 1137.35 731.27 1169.83 698.791 1171.54Z" fill="#2B67B5" fill-rule="nonzero" fill-opacity="1"/><path d="M836.573 1138.72 835.205 1168.81 865.292 1170.17 866.659 1140.09Z" fill="#2B67B5" fill-rule="nonzero" fill-opacity="1"/><path d="M902.216 1142.48 931.277 1137.35 936.406 1166.41 907.345 1171.54Z" fill="#2B67B5" fill-rule="nonzero" fill-opacity="1"/><path d="M972.304 1145.9 996.237 1139.06 1003.07 1162.99 979.142 1169.83Z" fill="#2B67B5" fill-rule="nonzero" fill-opacity="1"/><path d="M1004.78 1143.16 1033.16 1137.35 1038.97 1165.73 1010.6 1171.54Z" fill="#2B67B5" fill-rule="nonzero" fill-opacity="1"/><path d="M1110.09 1138.72 1108.72 1168.81 1138.81 1170.17 1140.17 1140.09Z" fill="#2B67B5" fill-rule="nonzero" fill-opacity="1"/><path d="M1175.73 1139.06 1208.21 1137.35 1209.92 1169.83 1177.44 1171.54Z" fill="#2B67B5" fill-rule="nonzero" fill-opacity="1"/><path d="M1278.3 1139.06 1310.78 1137.35 1312.49 1169.83 1280.01 1171.54Z" fill="#2B67B5" fill-rule="nonzero" fill-opacity="1"/><path d="M1383.6 1138.72 1382.23 1168.81 1412.32 1170.17 1413.69 1140.09Z" fill="#2B67B5" fill-rule="nonzero" fill-opacity="1"/><path d="M1415.05 1143.16 1443.43 1137.35 1449.24 1165.73 1420.87 1171.54Z" fill="#2B67B5" fill-rule="nonzero" fill-opacity="1"/><path d="M1483.43 1139.06 1515.91 1137.35 1517.62 1169.83 1485.14 1171.54Z" fill="#2B67B5" fill-rule="nonzero" fill-opacity="1"/><path d="M459.466 1180.09 483.399 1173.25 490.237 1197.18 466.304 1204.02Z" fill="#2B67B5" fill-rule="nonzero" fill-opacity="1"/><path d="M494.681 1172.91 493.314 1202.99 523.4 1204.36 524.768 1174.28Z" fill="#2B67B5" fill-rule="nonzero" fill-opacity="1"/><path d="M528.87 1172.91 527.503 1202.99 557.589 1204.36 558.957 1174.28Z" fill="#2B67B5" fill-rule="nonzero" fill-opacity="1"/><path d="M563.06 1172.91 561.692 1202.99 591.778 1204.36 593.146 1174.28Z" fill="#2B67B5" fill-rule="nonzero" fill-opacity="1"/><path d="M597.249 1172.91 595.881 1202.99 625.968 1204.36 627.335 1174.28Z" fill="#2B67B5" fill-rule="nonzero" fill-opacity="1"/><path d="M631.438 1172.91 630.07 1202.99 660.157 1204.36 661.524 1174.28Z" fill="#2B67B5" fill-rule="nonzero" fill-opacity="1"/><path d="M665.627 1172.91 664.26 1202.99 694.346 1204.36 695.714 1174.28Z" fill="#2B67B5" fill-rule="nonzero" fill-opacity="1"/><path d="M699.816 1172.91 698.449 1202.99 728.535 1204.36 729.903 1174.28Z" fill="#2B67B5" fill-rule="nonzero" fill-opacity="1"/><path d="M801.358 1180.09 825.291 1173.25 832.128 1197.18 808.196 1204.02Z" fill="#2B67B5" fill-rule="nonzero" fill-opacity="1"/><path d="M836.573 1172.91 835.205 1202.99 865.292 1204.36 866.659 1174.28Z" fill="#2B67B5" fill-rule="nonzero" fill-opacity="1"/><path d="M873.155 1173.25 869.737 1200.6 897.088 1204.02 900.507 1176.67Z" fill="#2B67B5" fill-rule="nonzero" fill-opacity="1"/><path d="M936.405 1173.25 968.885 1171.54 970.595 1204.02 938.115 1205.73Z" fill="#2B67B5" fill-rule="nonzero" fill-opacity="1"/><path d="M1107.35 1174.96 1138.12 1171.54 1141.54 1202.31 1110.77 1205.73Z" fill="#2B67B5" fill-rule="nonzero" fill-opacity="1"/><path d="M1178.46 1172.91 1177.1 1202.99 1207.18 1204.36 1208.55 1174.28Z" fill="#2B67B5" fill-rule="nonzero" fill-opacity="1"/><path d="M1245.82 1180.09 1269.75 1173.25 1276.59 1197.18 1252.66 1204.02Z" fill="#2B67B5" fill-rule="nonzero" fill-opacity="1"/><path d="M1281.03 1172.91 1279.66 1202.99 1309.75 1204.36 1311.12 1174.28Z" fill="#2B67B5" fill-rule="nonzero" fill-opacity="1"/><path d="M1380.86 1174.96 1411.64 1171.54 1415.05 1202.31 1384.28 1205.73Z" fill="#2B67B5" fill-rule="nonzero" fill-opacity="1"/><path d="M1449.24 1175.64 1479.33 1171.54 1483.43 1201.63 1453.35 1205.73Z" fill="#2B67B5" fill-rule="nonzero" fill-opacity="1"/><path d="M1483.43 1177.35 1511.81 1171.54 1517.62 1199.92 1489.24 1205.73Z" fill="#2B67B5" fill-rule="nonzero" fill-opacity="1"/><path d="M423.568 1210.86 452.628 1205.73 457.757 1234.79 428.696 1239.92Z" fill="#2B67B5" fill-rule="nonzero" fill-opacity="1"/><path d="M491.946 1209.15 522.716 1205.73 526.135 1236.5 495.365 1239.92Z" fill="#2B67B5" fill-rule="nonzero" fill-opacity="1"/><path d="M631.438 1207.1 630.07 1237.18 660.157 1238.55 661.524 1208.46Z" fill="#2B67B5" fill-rule="nonzero" fill-opacity="1"/><path d="M665.627 1207.1 664.26 1237.18 694.346 1238.55 695.714 1208.46Z" fill="#2B67B5" fill-rule="nonzero" fill-opacity="1"/><path d="M699.816 1207.1 698.449 1237.18 728.535 1238.55 729.903 1208.46Z" fill="#2B67B5" fill-rule="nonzero" fill-opacity="1"/><path d="M734.005 1207.1 732.638 1237.18 762.724 1238.55 764.092 1208.46Z" fill="#2B67B5" fill-rule="nonzero" fill-opacity="1"/><path d="M772.981 1205.73 765.46 1232.4 792.127 1239.92 799.649 1213.25Z" fill="#2B67B5" fill-rule="nonzero" fill-opacity="1"/><path d="M836.573 1207.1 835.205 1237.18 865.292 1238.55 866.659 1208.46Z" fill="#2B67B5" fill-rule="nonzero" fill-opacity="1"/><path d="M939.141 1207.1 937.773 1237.18 967.859 1238.55 969.227 1208.46Z" fill="#2B67B5" fill-rule="nonzero" fill-opacity="1"/><path d="M1006.49 1214.28 1030.43 1207.44 1037.26 1231.37 1013.33 1238.21Z" fill="#2B67B5" fill-rule="nonzero" fill-opacity="1"/><path d="M1044.1 1207.44 1040.68 1234.79 1068.03 1238.21 1071.45 1210.86Z" fill="#2B67B5" fill-rule="nonzero" fill-opacity="1"/><path d="M1178.46 1207.1 1177.1 1237.18 1207.18 1238.55 1208.55 1208.46Z" fill="#2B67B5" fill-rule="nonzero" fill-opacity="1"/><path d="M1217.44 1205.73 1209.92 1232.4 1236.59 1239.92 1244.11 1213.25Z" fill="#2B67B5" fill-rule="nonzero" fill-opacity="1"/><path d="M1281.03 1207.1 1279.66 1237.18 1309.75 1238.55 1311.12 1208.46Z" fill="#2B67B5" fill-rule="nonzero" fill-opacity="1"/><path d="M1346.68 1207.44 1379.16 1205.73 1380.86 1238.21 1348.39 1239.92Z" fill="#2B67B5" fill-rule="nonzero" fill-opacity="1"/><path d="M1449.24 1209.15 1480.01 1205.73 1483.43 1236.5 1452.66 1239.92Z" fill="#2B67B5" fill-rule="nonzero" fill-opacity="1"/><path d="M389.378 1245.05 418.439 1239.92 423.568 1268.98 394.507 1274.11Z" fill="#2B67B5" fill-rule="nonzero" fill-opacity="1"/><path d="M457.757 1245.05 486.818 1239.92 491.946 1268.98 462.885 1274.11Z" fill="#2B67B5" fill-rule="nonzero" fill-opacity="1"/><path d="M596.223 1248.47 620.155 1241.63 626.993 1265.56 603.061 1272.4Z" fill="#2B67B5" fill-rule="nonzero" fill-opacity="1"/><path d="M628.703 1245.73 657.08 1239.92 662.892 1268.3 634.515 1274.11Z" fill="#2B67B5" fill-rule="nonzero" fill-opacity="1"/><path d="M699.816 1241.29 698.449 1271.37 728.535 1272.74 729.903 1242.65Z" fill="#2B67B5" fill-rule="nonzero" fill-opacity="1"/><path d="M734.005 1241.29 732.638 1271.37 762.724 1272.74 764.092 1242.65Z" fill="#2B67B5" fill-rule="nonzero" fill-opacity="1"/><path d="M768.195 1241.29 766.827 1271.37 796.914 1272.74 798.281 1242.65Z" fill="#2B67B5" fill-rule="nonzero" fill-opacity="1"/><path d="M802.384 1241.29 801.016 1271.37 831.103 1272.74 832.47 1242.65Z" fill="#2B67B5" fill-rule="nonzero" fill-opacity="1"/><path d="M833.838 1245.73 862.215 1239.92 868.027 1268.3 839.65 1274.11Z" fill="#2B67B5" fill-rule="nonzero" fill-opacity="1"/><path d="M902.216 1244.02 932.303 1239.92 936.406 1270.01 906.319 1274.11Z" fill="#2B67B5" fill-rule="nonzero" fill-opacity="1"/><path d="M939.141 1241.29 937.773 1271.37 967.859 1272.74 969.227 1242.65Z" fill="#2B67B5" fill-rule="nonzero" fill-opacity="1"/><path d="M978.116 1239.92 970.595 1266.59 997.262 1274.11 1004.78 1247.44Z" fill="#2B67B5" fill-rule="nonzero" fill-opacity="1"/><path d="M1143.25 1248.47 1167.18 1241.63 1174.02 1265.56 1150.09 1272.4Z" fill="#2B67B5" fill-rule="nonzero" fill-opacity="1"/><path d="M1178.46 1241.29 1177.1 1271.37 1207.18 1272.74 1208.55 1242.65Z" fill="#2B67B5" fill-rule="nonzero" fill-opacity="1"/><path d="M1212.65 1241.29 1211.29 1271.37 1241.37 1272.74 1242.74 1242.65Z" fill="#2B67B5" fill-rule="nonzero" fill-opacity="1"/><path d="M1246.84 1241.29 1245.48 1271.37 1275.56 1272.74 1276.93 1242.65Z" fill="#2B67B5" fill-rule="nonzero" fill-opacity="1"/><path d="M1281.03 1241.29 1279.66 1271.37 1309.75 1272.74 1311.12 1242.65Z" fill="#2B67B5" fill-rule="nonzero" fill-opacity="1"/><path d="M1315.22 1241.29 1313.85 1271.37 1343.94 1272.74 1345.31 1242.65Z" fill="#2B67B5" fill-rule="nonzero" fill-opacity="1"/><path d="M1349.41 1241.29 1348.04 1271.37 1378.13 1272.74 1379.5 1242.65Z" fill="#2B67B5" fill-rule="nonzero" fill-opacity="1"/><path d="M662.892 1278.21 692.978 1274.11 697.081 1304.19 666.995 1308.3Z" fill="#2B67B5" fill-rule="nonzero" fill-opacity="1"/><path d="M699.816 1275.48 698.449 1305.56 728.535 1306.93 729.903 1276.84Z" fill="#2B67B5" fill-rule="nonzero" fill-opacity="1"/><path d="M731.27 1279.92 759.647 1274.11 765.46 1302.49 737.082 1308.3Z" fill="#2B67B5" fill-rule="nonzero" fill-opacity="1"/><path d="M799.649 1277.53 830.419 1274.11 833.838 1304.88 803.068 1308.3Z" fill="#2B67B5" fill-rule="nonzero" fill-opacity="1"/><path d="M906.661 1274.11 902.216 1303.85 931.961 1308.3 936.406 1278.55Z" fill="#2B67B5" fill-rule="nonzero" fill-opacity="1"/><path d="M939.141 1275.48 937.773 1305.56 967.859 1306.93 969.227 1276.84Z" fill="#2B67B5" fill-rule="nonzero" fill-opacity="1"/><path d="M970.595 1279.92 998.972 1274.11 1004.78 1302.49 976.407 1308.3Z" fill="#2B67B5" fill-rule="nonzero" fill-opacity="1"/><path d="M1038.97 1278.21 1069.06 1274.11 1073.16 1304.19 1043.08 1308.3Z" fill="#2B67B5" fill-rule="nonzero" fill-opacity="1"/><path d="M1075.9 1275.48 1074.53 1305.56 1104.62 1306.93 1105.98 1276.84Z" fill="#2B67B5" fill-rule="nonzero" fill-opacity="1"/><path d="M1114.87 1274.11 1107.35 1300.78 1134.02 1308.3 1141.54 1281.63Z" fill="#2B67B5" fill-rule="nonzero" fill-opacity="1"/><path d="M1212.65 1275.48 1211.29 1305.56 1241.37 1306.93 1242.74 1276.84Z" fill="#2B67B5" fill-rule="nonzero" fill-opacity="1"/><path d="M1349.41 1275.48 1348.04 1305.56 1378.13 1306.93 1379.5 1276.84Z" fill="#2B67B5" fill-rule="nonzero" fill-opacity="1"/><path d="M1385.99 1275.82 1382.57 1303.17 1409.93 1306.59 1413.34 1279.24Z" fill="#2B67B5" fill-rule="nonzero" fill-opacity="1"/><path d="M1449.24 1279.24 1478.3 1274.11 1483.43 1303.17 1454.37 1308.3Z" fill="#2B67B5" fill-rule="nonzero" fill-opacity="1"/><path d="M665.627 1309.66 664.26 1339.75 694.346 1341.12 695.714 1311.03Z" fill="#2B67B5" fill-rule="nonzero" fill-opacity="1"/><path d="M697.081 1314.11 725.458 1308.3 731.27 1336.67 702.893 1342.49Z" fill="#2B67B5" fill-rule="nonzero" fill-opacity="1"/><path d="M765.46 1310.01 797.939 1308.3 799.649 1340.78 767.169 1342.49Z" fill="#2B67B5" fill-rule="nonzero" fill-opacity="1"/><path d="M833.838 1312.4 863.924 1308.3 868.027 1338.38 837.941 1342.49Z" fill="#2B67B5" fill-rule="nonzero" fill-opacity="1"/><path d="M875.549 1308.3 868.027 1334.96 894.695 1342.49 902.216 1315.82Z" fill="#2B67B5" fill-rule="nonzero" fill-opacity="1"/><path d="M1043.42 1308.3 1038.97 1338.04 1068.72 1342.49 1073.16 1312.74Z" fill="#2B67B5" fill-rule="nonzero" fill-opacity="1"/><path d="M1075.9 1309.66 1074.53 1339.75 1104.62 1341.12 1105.98 1311.03Z" fill="#2B67B5" fill-rule="nonzero" fill-opacity="1"/><path d="M1110.09 1309.66 1108.72 1339.75 1138.81 1341.12 1140.17 1311.03Z" fill="#2B67B5" fill-rule="nonzero" fill-opacity="1"/><path d="M1175.73 1312.4 1205.82 1308.3 1209.92 1338.38 1179.83 1342.49Z" fill="#2B67B5" fill-rule="nonzero" fill-opacity="1"/><path d="M1212.65 1309.66 1211.29 1339.75 1241.37 1341.12 1242.74 1311.03Z" fill="#2B67B5" fill-rule="nonzero" fill-opacity="1"/><path d="M1278.3 1313.43 1307.36 1308.3 1312.49 1337.36 1283.43 1342.49Z" fill="#2B67B5" fill-rule="nonzero" fill-opacity="1"/><path d="M1349.41 1309.66 1348.04 1339.75 1378.13 1341.12 1379.5 1311.03Z" fill="#2B67B5" fill-rule="nonzero" fill-opacity="1"/><path d="M662.892 1345.91 693.662 1342.49 697.081 1373.26 666.311 1376.68Z" fill="#2B67B5" fill-rule="nonzero" fill-opacity="1"/><path d="M731.27 1346.59 761.357 1342.49 765.46 1372.57 735.373 1376.68Z" fill="#2B67B5" fill-rule="nonzero" fill-opacity="1"/><path d="M768.195 1343.85 766.827 1373.94 796.914 1375.31 798.281 1345.22Z" fill="#2B67B5" fill-rule="nonzero" fill-opacity="1"/><path d="M838.282 1342.49 833.838 1372.23 863.582 1376.68 868.027 1346.93Z" fill="#2B67B5" fill-rule="nonzero" fill-opacity="1"/><path d="M870.762 1343.85 869.395 1373.94 899.481 1375.31 900.849 1345.22Z" fill="#2B67B5" fill-rule="nonzero" fill-opacity="1"/><path d="M936.405 1347.61 965.466 1342.49 970.595 1371.55 941.534 1376.68Z" fill="#2B67B5" fill-rule="nonzero" fill-opacity="1"/><path d="M1075.9 1343.85 1074.53 1373.94 1104.62 1375.31 1105.98 1345.22Z" fill="#2B67B5" fill-rule="nonzero" fill-opacity="1"/><path d="M1107.35 1348.3 1135.73 1342.49 1141.54 1370.86 1113.16 1376.68Z" fill="#2B67B5" fill-rule="nonzero" fill-opacity="1"/><path d="M1178.46 1343.85 1177.1 1373.94 1207.18 1375.31 1208.55 1345.22Z" fill="#2B67B5" fill-rule="nonzero" fill-opacity="1"/><path d="M1212.65 1343.85 1211.29 1373.94 1241.37 1375.31 1242.74 1345.22Z" fill="#2B67B5" fill-rule="nonzero" fill-opacity="1"/><path d="M1349.41 1343.85 1348.04 1373.94 1378.13 1375.31 1379.5 1345.22Z" fill="#2B67B5" fill-rule="nonzero" fill-opacity="1"/><path d="M1383.6 1343.85 1382.23 1373.94 1412.32 1375.31 1413.69 1345.22Z" fill="#2B67B5" fill-rule="nonzero" fill-opacity="1"/><path d="M1422.58 1342.49 1415.05 1369.15 1441.72 1376.68 1449.24 1350.01Z" fill="#2B67B5" fill-rule="nonzero" fill-opacity="1"/><path d="M1483.43 1344.2 1515.91 1342.49 1517.62 1374.97 1485.14 1376.68Z" fill="#2B67B5" fill-rule="nonzero" fill-opacity="1"/><path d="M735.715 1376.68 731.27 1406.42 761.015 1410.86 765.46 1381.12Z" fill="#2B67B5" fill-rule="nonzero" fill-opacity="1"/><path d="M768.195 1378.04 766.827 1408.13 796.914 1409.5 798.281 1379.41Z" fill="#2B67B5" fill-rule="nonzero" fill-opacity="1"/><path d="M807.17 1376.68 799.649 1403.34 826.316 1410.86 833.838 1384.2Z" fill="#2B67B5" fill-rule="nonzero" fill-opacity="1"/><path d="M868.027 1380.09 898.797 1376.68 902.216 1407.45 871.446 1410.86Z" fill="#2B67B5" fill-rule="nonzero" fill-opacity="1"/><path d="M970.595 1381.8 999.655 1376.68 1004.78 1405.74 975.723 1410.86Z" fill="#2B67B5" fill-rule="nonzero" fill-opacity="1"/><path d="M1038.97 1380.78 1069.06 1376.68 1073.16 1406.76 1043.08 1410.86Z" fill="#2B67B5" fill-rule="nonzero" fill-opacity="1"/><path d="M1075.9 1378.04 1074.53 1408.13 1104.62 1409.5 1105.98 1379.41Z" fill="#2B67B5" fill-rule="nonzero" fill-opacity="1"/><path d="M1178.46 1378.04 1177.1 1408.13 1207.18 1409.5 1208.55 1379.41Z" fill="#2B67B5" fill-rule="nonzero" fill-opacity="1"/><path d="M1212.65 1378.04 1211.29 1408.13 1241.37 1409.5 1242.74 1379.41Z" fill="#2B67B5" fill-rule="nonzero" fill-opacity="1"/><path d="M1246.84 1378.04 1245.48 1408.13 1275.56 1409.5 1276.93 1379.41Z" fill="#2B67B5" fill-rule="nonzero" fill-opacity="1"/><path d="M1281.03 1378.04 1279.66 1408.13 1309.75 1409.5 1311.12 1379.41Z" fill="#2B67B5" fill-rule="nonzero" fill-opacity="1"/><path d="M1315.22 1378.04 1313.85 1408.13 1343.94 1409.5 1345.31 1379.41Z" fill="#2B67B5" fill-rule="nonzero" fill-opacity="1"/><path d="M1346.68 1382.49 1375.05 1376.68 1380.86 1405.05 1352.49 1410.86Z" fill="#2B67B5" fill-rule="nonzero" fill-opacity="1"/><path d="M1417.79 1378.04 1416.42 1408.13 1446.51 1409.5 1447.88 1379.41Z" fill="#2B67B5" fill-rule="nonzero" fill-opacity="1"/><path d="M1486.17 1378.04 1484.8 1408.13 1514.89 1409.5 1516.25 1379.41Z" fill="#2B67B5" fill-rule="nonzero" fill-opacity="1"/><path d="M662.892 1412.57 695.372 1410.86 697.081 1443.34 664.601 1445.05Z" fill="#2B67B5" fill-rule="nonzero" fill-opacity="1"/><path d="M769.904 1410.86 765.46 1440.61 795.204 1445.05 799.649 1415.31Z" fill="#2B67B5" fill-rule="nonzero" fill-opacity="1"/><path d="M802.384 1412.23 801.016 1442.32 831.103 1443.69 832.47 1413.6Z" fill="#2B67B5" fill-rule="nonzero" fill-opacity="1"/><path d="M838.966 1412.57 835.547 1439.93 862.899 1443.34 866.318 1415.99Z" fill="#2B67B5" fill-rule="nonzero" fill-opacity="1"/><path d="M1006.49 1419.41 1030.43 1412.57 1037.26 1436.51 1013.33 1443.34Z" fill="#2B67B5" fill-rule="nonzero" fill-opacity="1"/><path d="M1041.71 1412.23 1040.34 1442.32 1070.43 1443.69 1071.79 1413.6Z" fill="#2B67B5" fill-rule="nonzero" fill-opacity="1"/><path d="M1075.9 1412.23 1074.53 1442.32 1104.62 1443.69 1105.98 1413.6Z" fill="#2B67B5" fill-rule="nonzero" fill-opacity="1"/><path d="M1110.09 1412.23 1108.72 1442.32 1138.81 1443.69 1140.17 1413.6Z" fill="#2B67B5" fill-rule="nonzero" fill-opacity="1"/><path d="M1144.28 1412.23 1142.91 1442.32 1172.99 1443.69 1174.36 1413.6Z" fill="#2B67B5" fill-rule="nonzero" fill-opacity="1"/><path d="M1175.73 1416.68 1204.11 1410.86 1209.92 1439.24 1181.54 1445.05Z" fill="#2B67B5" fill-rule="nonzero" fill-opacity="1"/><path d="M1315.22 1412.23 1313.85 1442.32 1343.94 1443.69 1345.31 1413.6Z" fill="#2B67B5" fill-rule="nonzero" fill-opacity="1"/><path d="M1380.86 1414.97 1410.95 1410.86 1415.05 1440.95 1384.97 1445.05Z" fill="#2B67B5" fill-rule="nonzero" fill-opacity="1"/><path d="M1417.79 1412.23 1416.42 1442.32 1446.51 1443.69 1447.88 1413.6Z" fill="#2B67B5" fill-rule="nonzero" fill-opacity="1"/><path d="M1483.43 1414.28 1514.2 1410.86 1517.62 1441.64 1486.85 1445.05Z" fill="#2B67B5" fill-rule="nonzero" fill-opacity="1"/><path d="M667.337 1445.05 662.892 1474.8 692.637 1479.24 697.081 1449.5Z" fill="#2B67B5" fill-rule="nonzero" fill-opacity="1"/><path d="M699.816 1446.42 698.449 1476.51 728.535 1477.88 729.903 1447.79Z" fill="#2B67B5" fill-rule="nonzero" fill-opacity="1"/><path d="M738.792 1445.05 731.27 1471.72 757.938 1479.24 765.46 1452.58Z" fill="#2B67B5" fill-rule="nonzero" fill-opacity="1"/><path d="M799.649 1448.47 830.419 1445.05 833.838 1475.82 803.068 1479.24Z" fill="#2B67B5" fill-rule="nonzero" fill-opacity="1"/><path d="M868.027 1450.18 897.088 1445.05 902.216 1474.11 873.155 1479.24Z" fill="#2B67B5" fill-rule="nonzero" fill-opacity="1"/><path d="M1041.71 1446.42 1040.34 1476.51 1070.43 1477.88 1071.79 1447.79Z" fill="#2B67B5" fill-rule="nonzero" fill-opacity="1"/><path d="M1144.28 1446.42 1142.91 1476.51 1172.99 1477.88 1174.36 1447.79Z" fill="#2B67B5" fill-rule="nonzero" fill-opacity="1"/><path d="M1278.3 1449.16 1308.38 1445.05 1312.49 1475.14 1282.4 1479.24Z" fill="#2B67B5" fill-rule="nonzero" fill-opacity="1"/><path d="M1315.22 1446.42 1313.85 1476.51 1343.94 1477.88 1345.31 1447.79Z" fill="#2B67B5" fill-rule="nonzero" fill-opacity="1"/><path d="M1385.31 1445.05 1380.86 1474.8 1410.61 1479.24 1415.05 1449.5Z" fill="#2B67B5" fill-rule="nonzero" fill-opacity="1"/><path d="M1415.05 1450.87 1443.43 1445.05 1449.24 1473.43 1420.87 1479.24Z" fill="#2B67B5" fill-rule="nonzero" fill-opacity="1"/><path d="M735.715 1479.24 731.27 1508.99 761.015 1513.43 765.46 1483.69Z" fill="#2B67B5" fill-rule="nonzero" fill-opacity="1"/><path d="M770.588 1480.95 767.169 1508.3 794.52 1511.72 797.939 1484.37Z" fill="#2B67B5" fill-rule="nonzero" fill-opacity="1"/><path d="M902.216 1483.35 932.303 1479.24 936.406 1509.33 906.319 1513.43Z" fill="#2B67B5" fill-rule="nonzero" fill-opacity="1"/><path d="M939.141 1480.61 937.773 1510.7 967.859 1512.06 969.227 1481.98Z" fill="#2B67B5" fill-rule="nonzero" fill-opacity="1"/><path d="M978.116 1479.24 970.595 1505.91 997.262 1513.43 1004.78 1486.76Z" fill="#2B67B5" fill-rule="nonzero" fill-opacity="1"/><path d="M1038.97 1482.66 1069.74 1479.24 1073.16 1510.01 1042.39 1513.43Z" fill="#2B67B5" fill-rule="nonzero" fill-opacity="1"/><path d="M1145.99 1479.24 1141.54 1508.99 1171.29 1513.43 1175.73 1483.69Z" fill="#2B67B5" fill-rule="nonzero" fill-opacity="1"/><path d="M1178.46 1480.61 1177.1 1510.7 1207.18 1512.06 1208.55 1481.98Z" fill="#2B67B5" fill-rule="nonzero" fill-opacity="1"/><path d="M1212.65 1480.61 1211.29 1510.7 1241.37 1512.06 1242.74 1481.98Z" fill="#2B67B5" fill-rule="nonzero" fill-opacity="1"/><path d="M1246.84 1480.61 1245.48 1510.7 1275.56 1512.06 1276.93 1481.98Z" fill="#2B67B5" fill-rule="nonzero" fill-opacity="1"/><path d="M1281.03 1480.61 1279.66 1510.7 1309.75 1512.06 1311.12 1481.98Z" fill="#2B67B5" fill-rule="nonzero" fill-opacity="1"/><path d="M1315.22 1480.61 1313.85 1510.7 1343.94 1512.06 1345.31 1481.98Z" fill="#2B67B5" fill-rule="nonzero" fill-opacity="1"/><path d="M1354.2 1479.24 1346.68 1505.91 1373.34 1513.43 1380.86 1486.76Z" fill="#2B67B5" fill-rule="nonzero" fill-opacity="1"/><path d="M1483.43 1484.37 1512.49 1479.24 1517.62 1508.3 1488.56 1513.43Z" fill="#2B67B5" fill-rule="nonzero" fill-opacity="1"/><path d="M664.601 1521.98 688.534 1515.14 695.372 1539.07 671.439 1545.91Z" fill="#2B67B5" fill-rule="nonzero" fill-opacity="1"/><path d="M702.21 1515.14 698.791 1542.49 726.142 1545.91 729.561 1518.56Z" fill="#2B67B5" fill-rule="nonzero" fill-opacity="1"/><path d="M869.737 1521.98 893.669 1515.14 900.507 1539.07 876.574 1545.91Z" fill="#2B67B5" fill-rule="nonzero" fill-opacity="1"/><path d="M904.951 1514.8 903.584 1544.89 933.67 1546.25 935.038 1516.17Z" fill="#2B67B5" fill-rule="nonzero" fill-opacity="1"/><path d="M939.141 1514.8 937.773 1544.89 967.859 1546.25 969.227 1516.17Z" fill="#2B67B5" fill-rule="nonzero" fill-opacity="1"/><path d="M973.33 1514.8 971.962 1544.89 1002.05 1546.25 1003.42 1516.17Z" fill="#2B67B5" fill-rule="nonzero" fill-opacity="1"/><path d="M1009.91 1515.14 1006.49 1542.49 1033.84 1545.91 1037.26 1518.56Z" fill="#2B67B5" fill-rule="nonzero" fill-opacity="1"/><path d="M1107.35 1518.56 1136.41 1513.43 1141.54 1542.49 1112.48 1547.62Z" fill="#2B67B5" fill-rule="nonzero" fill-opacity="1"/><path d="M1175.73 1516.85 1206.5 1513.43 1209.92 1544.2 1179.15 1547.62Z" fill="#2B67B5" fill-rule="nonzero" fill-opacity="1"/><path d="M1351.12 1513.43 1346.68 1543.18 1376.42 1547.62 1380.86 1517.88Z" fill="#2B67B5" fill-rule="nonzero" fill-opacity="1"/><path d="M1383.6 1514.8 1382.23 1544.89 1412.32 1546.25 1413.69 1516.17Z" fill="#2B67B5" fill-rule="nonzero" fill-opacity="1"/><path d="M1420.18 1515.14 1416.76 1542.49 1444.11 1545.91 1447.53 1518.56Z" fill="#2B67B5" fill-rule="nonzero" fill-opacity="1"/><path d="M592.804 419.378 425.277 419.378 389.378 419.378 389.378 455.277 389.378 622.804 389.378 658.703 425.277 658.703 592.804 658.703 628.703 658.703 628.703 622.804 628.703 455.277 628.703 419.378 592.804 419.378ZM592.804 622.804 425.277 622.804 425.277 455.277 592.804 455.277 592.804 622.804Z" fill="#2B67B5" fill-rule="nonzero" fill-opacity="1"/><path d="M1481.72 419.378 1314.2 419.378 1278.3 419.378 1278.3 455.277 1278.3 622.804 1278.3 658.703 1314.2 658.703 1481.72 658.703 1517.62 658.703 1517.62 622.804 1517.62 455.277 1517.62 419.378 1481.72 419.378ZM1481.72 622.804 1314.2 622.804 1314.2 455.277 1481.72 455.277 1481.72 622.804Z" fill="#2B67B5" fill-rule="nonzero" fill-opacity="1"/><path d="M592.804 1308.3 425.277 1308.3 389.378 1308.3 389.378 1344.2 389.378 1511.72 389.378 1547.62 425.277 1547.62 592.804 1547.62 628.703 1547.62 628.703 1511.72 628.703 1344.2 628.703 1308.3 592.804 1308.3ZM592.804 1511.72 425.277 1511.72 425.277 1344.2 592.804 1344.2 592.804 1511.72Z" fill="#2B67B5" fill-rule="nonzero" fill-opacity="1"/><path d="M102.63 102.551 102.63 0 0.0625662 0 0.0912851 74.2271C0.0902595 89.8512 12.585 102.568 27.925 102.568L74.622 102.568C79.4242 102.568 86.4255 102.568 92.2339 102.551 98.0279 102.551 102.63 102.551 102.63 102.551Z" fill="#2B67B5" fill-rule="nonzero" fill-opacity="1" transform="matrix(1 0 0 -1 457.757 590.324)"/><path d="M1346.61 487.773 1346.61 590.324 1449.18 590.324 1449.15 516.097C1449.15 500.473 1436.66 487.757 1421.32 487.757L1374.62 487.757C1369.82 487.757 1362.82 487.757 1357.01 487.773 1351.22 487.773 1346.61 487.773 1346.61 487.773Z" fill="#2B67B5" fill-rule="nonzero" fill-opacity="1"/><path d="M560.387 1479.23 560.387 1376.68 457.819 1376.68 457.848 1450.9C457.847 1466.53 470.342 1479.24 485.682 1479.24L532.379 1479.24C537.181 1479.24 544.182 1479.24 549.991 1479.23 555.785 1479.23 560.387 1479.23 560.387 1479.23Z" fill="#2B67B5" fill-rule="nonzero" fill-opacity="1"/></g></g></g><text fill="#000000" fill-opacity="1" font-family="Aptos,Aptos_MSFontService,sans-serif" font-style="normal" font-variant="normal" font-weight="400" font-stretch="normal" font-size="128" text-anchor="start" direction="ltr" writing-mode="lr-tb" unicode-bidi="normal" text-decoration="none" transform="matrix(1 0 0 1 520.165 1750)">PRESENTATION</text></g></g></svg>