<?xml version="1.0" encoding="utf-8"?>
<!-- Generator: Adobe Illustrator 28.3.0, SVG Export Plug-In . SVG Version: 6.00 Build 0)  -->
<svg version="1.1" id="Layer_1" xmlns="http://www.w3.org/2000/svg" xmlns:xlink="http://www.w3.org/1999/xlink" x="0px" y="0px"
	 viewBox="0 0 1270 1517" style="enable-background:new 0 0 1270 1517;" xml:space="preserve">
<style type="text/css">
	.st0{fill:#FFFFFF;}
	.st1{fill:#2B67B5;}
</style>
<g>
	<g>
		<g>
			<g>
				<path class="st0" d="M1,3h1265v1265H1V3z"/>
				<path class="st1" d="M342.9,73.1l32.5-1.7l1.7,32.5l-32.5,1.7L342.9,73.1z"/>
				<path class="st1" d="M413,79.9l23.9-6.8l6.8,23.9l-23.9,6.8L413,79.9z"/>
				<path class="st1" d="M448.2,72.7l-1.4,30.1l30.1,1.4l1.4-30.1L448.2,72.7z"/>
				<path class="st1" d="M482.4,72.7l-1.4,30.1l30.1,1.4l1.4-30.1L482.4,72.7z"/>
				<path class="st1" d="M516.6,72.7l-1.4,30.1l30.1,1.4l1.4-30.1L516.6,72.7z"/>
				<path class="st1" d="M553.2,73.1l-3.4,27.4l27.4,3.4l3.4-27.4L553.2,73.1z"/>
				<path class="st1" d="M616.4,75.5l30.1-4.1l4.1,30.1l-30.1,4.1L616.4,75.5z"/>
				<path class="st1" d="M653.3,72.7l-1.4,30.1l30.1,1.4l1.4-30.1L653.3,72.7z"/>
				<path class="st1" d="M687.5,72.7l-1.4,30.1l30.1,1.4l1.4-30.1L687.5,72.7z"/>
				<path class="st1" d="M721.7,72.7l-1.4,30.1l30.1,1.4l1.4-30.1L721.7,72.7z"/>
				<path class="st1" d="M755.9,72.7l-1.4,30.1l30.1,1.4l1.4-30.1L755.9,72.7z"/>
				<path class="st1" d="M792.5,73.1l-3.4,27.4l27.3,3.4l3.4-27.4L792.5,73.1z"/>
				<path class="st1" d="M855.7,73.1l32.5-1.7l1.7,32.5l-32.5,1.7L855.7,73.1z"/>
				<path class="st1" d="M347.3,105.6l-4.4,29.7l29.7,4.4l4.4-29.7L347.3,105.6z"/>
				<path class="st1" d="M382.2,107.3l-3.4,27.4l27.4,3.4l3.4-27.4L382.2,107.3z"/>
				<path class="st1" d="M448.2,106.9l-1.4,30.1l30.1,1.4l1.4-30.1L448.2,106.9z"/>
				<path class="st1" d="M482.4,106.9L481,137l30.1,1.4l1.4-30.1L482.4,106.9z"/>
				<path class="st1" d="M513.8,111.4l28.4-5.8l5.8,28.4l-28.4,5.8L513.8,111.4z"/>
				<path class="st1" d="M619.1,106.9l-1.4,30.1l30.1,1.4l1.4-30.1L619.1,106.9z"/>
				<path class="st1" d="M684.8,109l30.8-3.4l3.4,30.8l-30.8,3.4L684.8,109z"/>
				<path class="st1" d="M753.2,109l30.8-3.4l3.4,30.8l-30.8,3.4L753.2,109z"/>
				<path class="st1" d="M821.5,109.7l30.1-4.1l4.1,30.1l-30.1,4.1L821.5,109.7z"/>
				<path class="st1" d="M858.5,106.9l-1.4,30.1l30.1,1.4l1.4-30.1L858.5,106.9z"/>
				<path class="st1" d="M897.4,105.6l-7.5,26.7l26.7,7.5l7.5-26.7L897.4,105.6z"/>
				<path class="st1" d="M411.3,143.9l30.1-4.1l4.1,30.1l-30.1,4.1L411.3,143.9z"/>
				<path class="st1" d="M445.5,145.6l28.4-5.8l5.8,28.4l-28.4,5.8L445.5,145.6z"/>
				<path class="st1" d="M582.2,143.9l30.1-4.1l4.1,30.1l-30.1,4.1L582.2,143.9z"/>
				<path class="st1" d="M619.1,141.1l-1.4,30.1l30.1,1.4l1.4-30.1L619.1,141.1z"/>
				<path class="st1" d="M655.7,141.5l-3.4,27.4l27.4,3.4l3.4-27.4L655.7,141.5z"/>
				<path class="st1" d="M719,141.5l32.5-1.7l1.7,32.5l-32.5,1.7L719,141.5z"/>
				<path class="st1" d="M824.3,141.1l-1.4,30.1l30.1,1.4l1.4-30.1L824.3,141.1z"/>
				<path class="st1" d="M889.9,143.2l30.8-3.4l3.4,30.8l-30.8,3.4L889.9,143.2z"/>
				<path class="st1" d="M342.9,179.1l29.1-5.1l5.1,29.1l-29.1,5.1L342.9,179.1z"/>
				<path class="st1" d="M411.3,177.4l30.8-3.4l3.4,30.8l-30.8,3.4L411.3,177.4z"/>
				<path class="st1" d="M479.6,175.7l32.5-1.7l1.7,32.5l-32.5,1.7L479.6,175.7z"/>
				<path class="st1" d="M548,178l30.1-4.1l4.1,30.1l-30.1,4.1L548,178z"/>
				<path class="st1" d="M585,175.3l-1.4,30.1l30.1,1.4l1.4-30.1L585,175.3z"/>
				<path class="st1" d="M616.4,179.8l28.4-5.8l5.8,28.4l-28.4,5.8L616.4,179.8z"/>
				<path class="st1" d="M723.4,173.9l-4.5,29.7l29.8,4.4l4.4-29.7L723.4,173.9z"/>
				<path class="st1" d="M760.7,173.9l-7.5,26.7l26.7,7.5l7.5-26.7L760.7,173.9z"/>
				<path class="st1" d="M821.5,177.4l30.8-3.4l3.4,30.8l-30.8,3.4L821.5,177.4z"/>
				<path class="st1" d="M377.1,209.8l32.5-1.7l1.7,32.5l-32.5,1.7L377.1,209.8z"/>
				<path class="st1" d="M447.2,216.7l23.9-6.8l6.8,23.9l-23.9,6.8L447.2,216.7z"/>
				<path class="st1" d="M482.4,209.5l-1.4,30.1l30.1,1.4l1.4-30.1L482.4,209.5z"/>
				<path class="st1" d="M548,211.6l30.8-3.4l3.4,30.8l-30.8,3.4L548,211.6z"/>
				<path class="st1" d="M650.6,213.3l29.1-5.1l5.1,29.1l-29.1,5.1L650.6,213.3z"/>
				<path class="st1" d="M755.9,209.5l-1.4,30.1l30.1,1.4l1.4-30.1L755.9,209.5z"/>
				<path class="st1" d="M889.9,209.8l32.5-1.7l1.7,32.5l-32.5,1.7L889.9,209.8z"/>
				<path class="st1" d="M377.1,245.7l30.8-3.4l3.4,30.8l-30.8,3.4L377.1,245.7z"/>
				<path class="st1" d="M482.4,243.7l-1.4,30.1l30.1,1.4l1.4-30.1L482.4,243.7z"/>
				<path class="st1" d="M684.8,246.4l30.1-4.1l4.1,30.1l-30.1,4.1L684.8,246.4z"/>
				<path class="st1" d="M721.7,243.7l-1.4,30.1l30.1,1.4l1.4-30.1L721.7,243.7z"/>
				<path class="st1" d="M755.9,243.7l-1.4,30.1l30.1,1.4l1.4-30.1L755.9,243.7z"/>
				<path class="st1" d="M790.1,243.7l-1.4,30.1l30.1,1.4l1.4-30.1L790.1,243.7z"/>
				<path class="st1" d="M829.1,242.3l-7.5,26.7l26.7,7.5l7.5-26.7L829.1,242.3z"/>
				<path class="st1" d="M892.7,243.7l-1.4,30.1l30.1,1.4l1.4-30.1L892.7,243.7z"/>
				<path class="st1" d="M342.9,278.2l32.5-1.7l1.7,32.5l-32.5,1.7L342.9,278.2z"/>
				<path class="st1" d="M411.3,281.6l29.1-5.1l5.1,29.1l-29.1,5.1L411.3,281.6z"/>
				<path class="st1" d="M479.6,279.9l30.8-3.4l3.4,30.8l-30.8,3.4L479.6,279.9z"/>
				<path class="st1" d="M548,281.6l29.1-5.1l5.1,29.1l-29.1,5.1L548,281.6z"/>
				<path class="st1" d="M616.4,281.6l29.1-5.1l5.1,29.1l-29.1,5.1L616.4,281.6z"/>
				<path class="st1" d="M687.5,277.9l-1.4,30.1l30.1,1.4l1.4-30.1L687.5,277.9z"/>
				<path class="st1" d="M755.9,277.9l-1.4,30.1l30.1,1.4l1.4-30.1L755.9,277.9z"/>
				<path class="st1" d="M821.5,279.9l30.8-3.4l3.4,30.8l-30.8,3.4L821.5,279.9z"/>
				<path class="st1" d="M889.9,279.9l30.8-3.4l3.4,30.8l-30.8,3.4L889.9,279.9z"/>
				<path class="st1" d="M347.3,310.7l-4.4,29.7l29.7,4.4l4.4-29.7L347.3,310.7z"/>
				<path class="st1" d="M382.2,312.4l-3.4,27.4l27.4,3.4l3.4-27.4L382.2,312.4z"/>
				<path class="st1" d="M445.5,312.4l32.5-1.7l1.7,32.5l-32.5,1.7L445.5,312.4z"/>
				<path class="st1" d="M650.6,314.8l30.1-4.1l4.1,30.1l-30.1,4.1L650.6,314.8z"/>
				<path class="st1" d="M687.5,312.1l-1.4,30.1l30.1,1.4l1.4-30.1L687.5,312.1z"/>
				<path class="st1" d="M753.2,314.1l30.8-3.4l3.4,30.8l-30.8,3.4L753.2,314.1z"/>
				<path class="st1" d="M855.7,315.8l29.1-5.1l5.1,29.1l-29.1,5.1L855.7,315.8z"/>
				<path class="st1" d="M69.4,346.6l32.5-1.7l1.7,32.5l-32.5,1.7L69.4,346.6z"/>
				<path class="st1" d="M137.8,349l30.1-4.1l4.1,30.1l-30.1,4.1L137.8,349z"/>
				<path class="st1" d="M179.5,344.9l-7.5,26.7l26.7,7.5l7.5-26.7L179.5,344.9z"/>
				<path class="st1" d="M242,353.4l23.9-6.8l6.8,23.9l-23.9,6.8L242,353.4z"/>
				<path class="st1" d="M277.2,346.3l-1.4,30.1l30.1,1.4l1.4-30.1L277.2,346.3z"/>
				<path class="st1" d="M316.2,344.9l-7.5,26.7l26.7,7.5l7.5-26.7L316.2,344.9z"/>
				<path class="st1" d="M413,353.4l23.9-6.8l6.8,23.9l-23.9,6.8L413,353.4z"/>
				<path class="st1" d="M448.2,346.3l-1.4,30.1l30.1,1.4l1.4-30.1L448.2,346.3z"/>
				<path class="st1" d="M484.8,346.6l-3.4,27.4l27.4,3.4l3.4-27.4L484.8,346.6z"/>
				<path class="st1" d="M548,350l29.1-5.1l5.1,29.1l-29.1,5.1L548,350z"/>
				<path class="st1" d="M655,344.9l-4.4,29.7l29.7,4.4l4.4-29.7L655,344.9z"/>
				<path class="st1" d="M687.5,346.3l-1.4,30.1l30.1,1.4l1.4-30.1L687.5,346.3z"/>
				<path class="st1" d="M726.5,344.9l-7.5,26.7l26.7,7.5l7.5-26.7L726.5,344.9z"/>
				<path class="st1" d="M789.1,353.4l23.9-6.8l6.8,23.9l-23.9,6.8L789.1,353.4z"/>
				<path class="st1" d="M826.7,346.6l-3.4,27.4l27.3,3.4L854,350L826.7,346.6z"/>
				<path class="st1" d="M889.9,350l29.1-5.1l5.1,29.1l-29.1,5.1L889.9,350z"/>
				<path class="st1" d="M958.3,346.6l32.5-1.7l1.7,32.5l-32.5,1.7L958.3,346.6z"/>
				<path class="st1" d="M1060.9,346.6l32.5-1.7l1.7,32.5l-32.5,1.7L1060.9,346.6z"/>
				<path class="st1" d="M1129.2,349l30.1-4.1l4.1,30.1l-30.1,4.1L1129.2,349z"/>
				<path class="st1" d="M1170.9,344.9l-7.5,26.7l26.7,7.5l7.5-26.7L1170.9,344.9z"/>
				<path class="st1" d="M69.4,382.5l30.8-3.4l3.4,30.8l-30.8,3.4L69.4,382.5z"/>
				<path class="st1" d="M142.2,379.1l-4.4,29.7l29.7,4.4l4.4-29.7L142.2,379.1z"/>
				<path class="st1" d="M171.9,384.9l28.4-5.8l5.8,28.4l-28.4,5.8L171.9,384.9z"/>
				<path class="st1" d="M308.7,382.5l30.8-3.4l3.4,30.8l-30.8,3.4L308.7,382.5z"/>
				<path class="st1" d="M616.4,380.8l32.5-1.7l1.7,32.5l-32.5,1.7L616.4,380.8z"/>
				<path class="st1" d="M689.2,379.1l-4.4,29.7l29.8,4.4l4.4-29.7L689.2,379.1z"/>
				<path class="st1" d="M721.7,380.4l-1.4,30.1l30.1,1.4l1.4-30.1L721.7,380.4z"/>
				<path class="st1" d="M758.3,380.8l-3.4,27.4l27.3,3.4l3.4-27.4L758.3,380.8z"/>
				<path class="st1" d="M855.7,380.8l32.5-1.7l1.7,32.5l-32.5,1.7L855.7,380.8z"/>
				<path class="st1" d="M961,380.4l-1.4,30.1l30.1,1.4l1.4-30.1L961,380.4z"/>
				<path class="st1" d="M1000,379.1l-7.5,26.7l26.7,7.5l7.5-26.7L1000,379.1z"/>
				<path class="st1" d="M1063.6,380.4l-1.4,30.1l30.1,1.4l1.4-30.1L1063.6,380.4z"/>
				<path class="st1" d="M1097.8,380.4l-1.4,30.1l30.1,1.4l1.4-30.1L1097.8,380.4z"/>
				<path class="st1" d="M1132,380.4l-1.4,30.1l30.1,1.4l1.4-30.1L1132,380.4z"/>
				<path class="st1" d="M1166.2,380.4l-1.4,30.1l30.1,1.4l1.4-30.1L1166.2,380.4z"/>
				<path class="st1" d="M240.3,417.4l30.1-4.1l4.1,30.1l-30.1,4.1L240.3,417.4z"/>
				<path class="st1" d="M279.6,415l-3.4,27.4l27.4,3.4l3.4-27.4L279.6,415z"/>
				<path class="st1" d="M344.6,421.8l23.9-6.8l6.8,23.9l-23.9,6.8L344.6,421.8z"/>
				<path class="st1" d="M379.8,414.6l-1.4,30.1l30.1,1.4l1.4-30.1L379.8,414.6z"/>
				<path class="st1" d="M418.8,413.3l-7.5,26.7l26.7,7.5l7.5-26.7L418.8,413.3z"/>
				<path class="st1" d="M479.6,415l32.5-1.7l1.7,32.5l-32.5,1.7L479.6,415z"/>
				<path class="st1" d="M548,415l32.5-1.7l1.7,32.5l-32.5,1.7L548,415z"/>
				<path class="st1" d="M620.8,413.3l-4.4,29.7l29.7,4.4l4.4-29.7L620.8,413.3z"/>
				<path class="st1" d="M655.7,415l-3.4,27.4l27.4,3.4l3.4-27.4L655.7,415z"/>
				<path class="st1" d="M855.7,416.7l30.8-3.4l3.4,30.8l-30.8,3.4L855.7,416.7z"/>
				<path class="st1" d="M925.8,421.8l23.9-6.8l6.8,23.9l-23.9,6.8L925.8,421.8z"/>
				<path class="st1" d="M961,414.6l-1.4,30.1l30.1,1.4l1.4-30.1L961,414.6z"/>
				<path class="st1" d="M995.2,414.6l-1.4,30.1l30.1,1.4l1.4-30.1L995.2,414.6z"/>
				<path class="st1" d="M1029.4,414.6l-1.4,30.1l30.1,1.4l1.4-30.1L1029.4,414.6z"/>
				<path class="st1" d="M1063.6,414.6l-1.4,30.1l30.1,1.4l1.4-30.1L1063.6,414.6z"/>
				<path class="st1" d="M1163.4,416.7l30.8-3.4l3.4,30.8l-30.8,3.4L1163.4,416.7z"/>
				<path class="st1" d="M69.4,452.6l29.1-5.1l5.1,29.1l-29.1,5.1L69.4,452.6z"/>
				<path class="st1" d="M137.8,449.2l32.5-1.7l1.7,32.5l-32.5,1.7L137.8,449.2z"/>
				<path class="st1" d="M206.1,451.6l30.1-4.1l4.1,30.1l-30.1,4.1L206.1,451.6z"/>
				<path class="st1" d="M240.3,453.3l28.4-5.8l5.8,28.4l-28.4,5.8L240.3,453.3z"/>
				<path class="st1" d="M381.5,447.5l-4.4,29.7l29.7,4.4l4.4-29.7L381.5,447.5z"/>
				<path class="st1" d="M414,448.8l-1.4,30.1l30.1,1.4l1.4-30.1L414,448.8z"/>
				<path class="st1" d="M448.2,448.8l-1.4,30.1l30.1,1.4l1.4-30.1L448.2,448.8z"/>
				<path class="st1" d="M482.4,448.8l-1.4,30.1l30.1,1.4l1.4-30.1L482.4,448.8z"/>
				<path class="st1" d="M516.6,448.8l-1.4,30.1l30.1,1.4l1.4-30.1L516.6,448.8z"/>
				<path class="st1" d="M550.8,448.8l-1.4,30.1l30.1,1.4l1.4-30.1L550.8,448.8z"/>
				<path class="st1" d="M587.3,449.2l-3.4,27.4l27.4,3.4l3.4-27.4L587.3,449.2z"/>
				<path class="st1" d="M684.8,449.2l32.5-1.7l1.7,32.5l-32.5,1.7L684.8,449.2z"/>
				<path class="st1" d="M995.2,448.8l-1.4,30.1l30.1,1.4l1.4-30.1L995.2,448.8z"/>
				<path class="st1" d="M1063.6,448.8l-1.4,30.1l30.1,1.4l1.4-30.1L1063.6,448.8z"/>
				<path class="st1" d="M105.3,490.2l23.9-6.8l6.8,23.9l-23.9,6.8L105.3,490.2z"/>
				<path class="st1" d="M140.5,483l-1.4,30.1l30.1,1.4l1.4-30.1L140.5,483z"/>
				<path class="st1" d="M174.7,483l-1.4,30.1l30.1,1.4l1.4-30.1L174.7,483z"/>
				<path class="st1" d="M208.9,483l-1.4,30.1l30.1,1.4l1.4-30.1L208.9,483z"/>
				<path class="st1" d="M276.2,490.2l23.9-6.8l6.8,23.9l-23.9,6.8L276.2,490.2z"/>
				<path class="st1" d="M311.4,483l-1.4,30.1l30.1,1.4l1.4-30.1L311.4,483z"/>
				<path class="st1" d="M350.4,481.6l-7.5,26.7l26.7,7.5l7.5-26.7L350.4,481.6z"/>
				<path class="st1" d="M479.6,485.1l30.8-3.4l3.4,30.8l-30.8,3.4L479.6,485.1z"/>
				<path class="st1" d="M687.5,483l-1.4,30.1l30.1,1.4l1.4-30.1L687.5,483z"/>
				<path class="st1" d="M823.2,490.2l23.9-6.8l6.8,23.9l-23.9,6.8L823.2,490.2z"/>
				<path class="st1" d="M858.5,483l-1.4,30.1l30.1,1.4l1.4-30.1L858.5,483z"/>
				<path class="st1" d="M892.7,483l-1.4,30.1l30.1,1.4l1.4-30.1L892.7,483z"/>
				<path class="st1" d="M931.6,481.6l-7.5,26.7l26.7,7.5l7.5-26.7L931.6,481.6z"/>
				<path class="st1" d="M995.2,483l-1.4,30.1l30.1,1.4l1.4-30.1L995.2,483z"/>
				<path class="st1" d="M1029.4,483l-1.4,30.1l30.1,1.4l1.4-30.1L1029.4,483z"/>
				<path class="st1" d="M1063.6,483l-1.4,30.1l30.1,1.4l1.4-30.1L1063.6,483z"/>
				<path class="st1" d="M1129.2,483.4l32.5-1.7l1.7,32.5l-32.5,1.7L1129.2,483.4z"/>
				<path class="st1" d="M69.4,517.5l32.5-1.7l1.7,32.5L71.1,550L69.4,517.5z"/>
				<path class="st1" d="M140.5,517.2l-1.4,30.1l30.1,1.4l1.4-30.1L140.5,517.2z"/>
				<path class="st1" d="M174.7,517.2l-1.4,30.1l30.1,1.4l1.4-30.1L174.7,517.2z"/>
				<path class="st1" d="M208.9,517.2l-1.4,30.1l30.1,1.4l1.4-30.1L208.9,517.2z"/>
				<path class="st1" d="M247.8,515.8l-7.5,26.7L267,550l7.5-26.7L247.8,515.8z"/>
				<path class="st1" d="M345.6,517.2l-1.4,30.1l30.1,1.4l1.4-30.1L345.6,517.2z"/>
				<path class="st1" d="M411.3,521l29.1-5.1l5.1,29.1l-29.1,5.1L411.3,521z"/>
				<path class="st1" d="M513.8,521l29.1-5.1l5.1,29.1L519,550L513.8,521z"/>
				<path class="st1" d="M616.4,519.9l30.1-4.1l4.1,30.1l-30.1,4.1L616.4,519.9z"/>
				<path class="st1" d="M653.3,517.2l-1.4,30.1l30.1,1.4l1.4-30.1L653.3,517.2z"/>
				<path class="st1" d="M684.8,521.7l28.4-5.8l5.8,28.4l-28.4,5.8L684.8,521.7z"/>
				<path class="st1" d="M787.3,517.5l32.5-1.7l1.7,32.5l-32.5,1.7L787.3,517.5z"/>
				<path class="st1" d="M894.4,515.8l-4.4,29.7l29.7,4.4l4.4-29.7L894.4,515.8z"/>
				<path class="st1" d="M924.1,521.7l28.4-5.8l5.8,28.4l-28.4,5.8L924.1,521.7z"/>
				<path class="st1" d="M992.5,519.3l30.8-3.4l3.4,30.8l-30.8,3.4L992.5,519.3z"/>
				<path class="st1" d="M1060.9,519.3l30.8-3.4l3.4,30.8l-30.8,3.4L1060.9,519.3z"/>
				<path class="st1" d="M1129.2,519.3l30.8-3.4l3.4,30.8l-30.8,3.4L1129.2,519.3z"/>
				<path class="st1" d="M69.4,553.4l30.8-3.4l3.4,30.8l-30.8,3.4L69.4,553.4z"/>
				<path class="st1" d="M140.5,551.4l-1.4,30.1l30.1,1.4l1.4-30.1L140.5,551.4z"/>
				<path class="st1" d="M244.8,550l-4.4,29.7l29.7,4.4l4.4-29.7L244.8,550z"/>
				<path class="st1" d="M277.2,551.4l-1.4,30.1l30.1,1.4l1.4-30.1L277.2,551.4z"/>
				<path class="st1" d="M311.4,551.4l-1.4,30.1l30.1,1.4l1.4-30.1L311.4,551.4z"/>
				<path class="st1" d="M342.9,555.8l28.4-5.8l5.8,28.4l-28.4,5.8L342.9,555.8z"/>
				<path class="st1" d="M583.9,558.6l23.9-6.8l6.8,23.9l-23.9,6.8L583.9,558.6z"/>
				<path class="st1" d="M619.1,551.4l-1.4,30.1l30.1,1.4l1.4-30.1L619.1,551.4z"/>
				<path class="st1" d="M650.6,555.8L679,550l5.8,28.4l-28.4,5.8L650.6,555.8z"/>
				<path class="st1" d="M790.1,551.4l-1.4,30.1l30.1,1.4l1.4-30.1L790.1,551.4z"/>
				<path class="st1" d="M958.3,551.7l32.5-1.7l1.7,32.5l-32.5,1.7L958.3,551.7z"/>
				<path class="st1" d="M1095.1,551.7l32.5-1.7l1.7,32.5l-32.5,1.7L1095.1,551.7z"/>
				<path class="st1" d="M103.6,588.3l30.1-4.1l4.1,30.1l-30.1,4.1L103.6,588.3z"/>
				<path class="st1" d="M140.5,585.6l-1.4,30.1l30.1,1.4l1.4-30.1L140.5,585.6z"/>
				<path class="st1" d="M206.1,589.3l29.1-5.1l5.1,29.1l-29.1,5.1L206.1,589.3z"/>
				<path class="st1" d="M513.8,588.3l30.1-4.1l4.1,30.1l-30.1,4.1L513.8,588.3z"/>
				<path class="st1" d="M555.5,584.2l-7.5,26.7l26.7,7.5l7.5-26.7L555.5,584.2z"/>
				<path class="st1" d="M616.4,587.6l30.8-3.4l3.4,30.8l-30.8,3.4L616.4,587.6z"/>
				<path class="st1" d="M719,588.3l30.1-4.1l4.1,30.1l-30.1,4.1L719,588.3z"/>
				<path class="st1" d="M755.9,585.6l-1.4,30.1l30.1,1.4L786,587L755.9,585.6z"/>
				<path class="st1" d="M790.1,585.6l-1.4,30.1l30.1,1.4l1.4-30.1L790.1,585.6z"/>
				<path class="st1" d="M924.1,588.3l30.1-4.1l4.1,30.1l-30.1,4.1L924.1,588.3z"/>
				<path class="st1" d="M961,585.6l-1.4,30.1l30.1,1.4l1.4-30.1L961,585.6z"/>
				<path class="st1" d="M997.6,585.9l-3.4,27.4l27.4,3.4l3.4-27.4L997.6,585.9z"/>
				<path class="st1" d="M1097.8,585.6l-1.4,30.1l30.1,1.4l1.4-30.1L1097.8,585.6z"/>
				<path class="st1" d="M108,618.4l-4.4,29.7l29.7,4.4l4.4-29.7L108,618.4z"/>
				<path class="st1" d="M137.8,624.2l28.4-5.8l5.8,28.4l-28.4,5.8L137.8,624.2z"/>
				<path class="st1" d="M276.2,627l23.9-6.8L307,644l-23.9,6.8L276.2,627z"/>
				<path class="st1" d="M311.4,619.8l-1.4,30.1l30.1,1.4l1.4-30.1L311.4,619.8z"/>
				<path class="st1" d="M348,620.1l-3.4,27.4l27.4,3.4l3.4-27.4L348,620.1z"/>
				<path class="st1" d="M481.4,627l23.9-6.8l6.8,23.9l-23.9,6.8L481.4,627z"/>
				<path class="st1" d="M516.6,619.8l-1.4,30.1l30.1,1.4l1.4-30.1L516.6,619.8z"/>
				<path class="st1" d="M550.8,619.8l-1.4,30.1l30.1,1.4l1.4-30.1L550.8,619.8z"/>
				<path class="st1" d="M589.7,618.4l-7.5,26.7l26.7,7.5l7.5-26.7L589.7,618.4z"/>
				<path class="st1" d="M686.5,627l23.9-6.8l6.8,23.9l-23.9,6.8L686.5,627z"/>
				<path class="st1" d="M721.7,619.8l-1.4,30.1l30.1,1.4l1.4-30.1L721.7,619.8z"/>
				<path class="st1" d="M755.9,619.8l-1.4,30.1l30.1,1.4l1.4-30.1L755.9,619.8z"/>
				<path class="st1" d="M790.1,619.8l-1.4,30.1l30.1,1.4l1.4-30.1L790.1,619.8z"/>
				<path class="st1" d="M824.3,619.8l-1.4,30.1l30.1,1.4l1.4-30.1L824.3,619.8z"/>
				<path class="st1" d="M863.2,618.4l-7.5,26.7l26.7,7.5l7.5-26.7L863.2,618.4z"/>
				<path class="st1" d="M926.8,619.8l-1.4,30.1l30.1,1.4l1.4-30.1L926.8,619.8z"/>
				<path class="st1" d="M961,619.8l-1.4,30.1l30.1,1.4l1.4-30.1L961,619.8z"/>
				<path class="st1" d="M1026.7,620.1l32.5-1.7l1.7,32.5l-32.5,1.7L1026.7,620.1z"/>
				<path class="st1" d="M1095.1,621.8l30.8-3.4l3.4,30.8l-30.8,3.4L1095.1,621.8z"/>
				<path class="st1" d="M240.3,654.3l32.5-1.7l1.7,32.5l-32.5,1.7L240.3,654.3z"/>
				<path class="st1" d="M413,661.1l23.9-6.8l6.8,23.9l-23.9,6.8L413,661.1z"/>
				<path class="st1" d="M450.6,654.3l-3.4,27.4l27.4,3.4l3.4-27.3L450.6,654.3z"/>
				<path class="st1" d="M516.6,654l-1.4,30.1l30.1,1.4l1.4-30.1L516.6,654z"/>
				<path class="st1" d="M550.8,654l-1.4,30.1l30.1,1.4l1.4-30.1L550.8,654z"/>
				<path class="st1" d="M585,654l-1.4,30.1l30.1,1.4l1.4-30.1L585,654z"/>
				<path class="st1" d="M619.1,654l-1.4,30.1l30.1,1.4l1.4-30.1L619.1,654z"/>
				<path class="st1" d="M658.1,652.6l-7.5,26.7l26.7,7.5l7.5-26.7L658.1,652.6z"/>
				<path class="st1" d="M755.9,654l-1.4,30.1l30.1,1.4l1.4-30.1L755.9,654z"/>
				<path class="st1" d="M790.1,654l-1.4,30.1l30.1,1.4l1.4-30.1L790.1,654z"/>
				<path class="st1" d="M824.3,654l-1.4,30.1l30.1,1.4l1.4-30.1L824.3,654z"/>
				<path class="st1" d="M858.5,654l-1.4,30.1l30.1,1.4l1.4-30.1L858.5,654z"/>
				<path class="st1" d="M892.7,654l-1.4,30.1l30.1,1.4l1.4-30.1L892.7,654z"/>
				<path class="st1" d="M926.8,654l-1.4,30.1l30.1,1.4l1.4-30.1L926.8,654z"/>
				<path class="st1" d="M958.3,658.4l28.4-5.8l5.8,28.4l-28.4,5.8L958.3,658.4z"/>
				<path class="st1" d="M1029.4,654l-1.4,30.1l30.1,1.4l1.4-30.1L1029.4,654z"/>
				<path class="st1" d="M1066,654.3l-3.4,27.4l27.4,3.4l3.4-27.3L1066,654.3z"/>
				<path class="st1" d="M1129.2,656.7l30.1-4.1l4.1,30.1l-30.1,4.1L1129.2,656.7z"/>
				<path class="st1" d="M1168.6,654.3l-3.4,27.4l27.3,3.4l3.4-27.3L1168.6,654.3z"/>
				<path class="st1" d="M103.6,691.9l29.1-5.1l5.1,29.1l-29.1,5.1L103.6,691.9z"/>
				<path class="st1" d="M244.8,686.8l-4.4,29.8l29.7,4.4l4.4-29.7L244.8,686.8z"/>
				<path class="st1" d="M279.6,688.5l-3.4,27.3l27.4,3.4l3.4-27.3L279.6,688.5z"/>
				<path class="st1" d="M342.9,690.9l30.1-4.1l4.1,30.1L347,721L342.9,690.9z"/>
				<path class="st1" d="M384.6,686.8l-7.5,26.7l26.7,7.5l7.5-26.7L384.6,686.8z"/>
				<path class="st1" d="M479.6,690.9l30.1-4.1l4.1,30.1l-30.1,4.1L479.6,690.9z"/>
				<path class="st1" d="M516.6,688.2l-1.4,30.1l30.1,1.4l1.4-30.1L516.6,688.2z"/>
				<path class="st1" d="M582.2,690.2l30.8-3.4l3.4,30.8l-30.8,3.4L582.2,690.2z"/>
				<path class="st1" d="M650.6,690.2l30.8-3.4l3.4,30.8L654,721L650.6,690.2z"/>
				<path class="st1" d="M753.2,690.2l30.8-3.4l3.4,30.8l-30.8,3.4L753.2,690.2z"/>
				<path class="st1" d="M824.3,688.2l-1.4,30.1l30.1,1.4l1.4-30.1L824.3,688.2z"/>
				<path class="st1" d="M892.7,688.2l-1.4,30.1l30.1,1.4l1.4-30.1L892.7,688.2z"/>
				<path class="st1" d="M994.2,695.3l23.9-6.8l6.8,23.9l-23.9,6.8L994.2,695.3z"/>
				<path class="st1" d="M1029.4,688.2l-1.4,30.1l30.1,1.4l1.4-30.1L1029.4,688.2z"/>
				<path class="st1" d="M1096.8,695.3l23.9-6.8l6.8,23.9l-23.9,6.8L1096.8,695.3z"/>
				<path class="st1" d="M1132,688.2l-1.4,30.1l30.1,1.4l1.4-30.1L1132,688.2z"/>
				<path class="st1" d="M347.3,721l-4.4,29.8l29.7,4.4l4.4-29.7L347.3,721z"/>
				<path class="st1" d="M379.8,722.3l-1.4,30.1l30.1,1.4l1.4-30.1L379.8,722.3z"/>
				<path class="st1" d="M414,722.3l-1.4,30.1l30.1,1.4l1.4-30.1L414,722.3z"/>
				<path class="st1" d="M448.2,722.3l-1.4,30.1l30.1,1.4l1.4-30.1L448.2,722.3z"/>
				<path class="st1" d="M482.4,722.3l-1.4,30.1l30.1,1.4l1.4-30.1L482.4,722.3z"/>
				<path class="st1" d="M516.6,722.3l-1.4,30.1l30.1,1.4l1.4-30.1L516.6,722.3z"/>
				<path class="st1" d="M553.2,722.7l-3.4,27.3l27.4,3.4l3.4-27.3L553.2,722.7z"/>
				<path class="st1" d="M616.4,726.1l29.1-5.1l5.1,29.1l-29.1,5.1L616.4,726.1z"/>
				<path class="st1" d="M719,726.1L748,721l5.1,29.1l-29.1,5.1L719,726.1z"/>
				<path class="st1" d="M826,721l-4.4,29.8l29.8,4.4l4.4-29.7L826,721z"/>
				<path class="st1" d="M858.5,722.3l-1.4,30.1l30.1,1.4l1.4-30.1L858.5,722.3z"/>
				<path class="st1" d="M892.7,722.3l-1.4,30.1l30.1,1.4l1.4-30.1L892.7,722.3z"/>
				<path class="st1" d="M929.2,722.7l-3.4,27.3l27.4,3.4l3.4-27.3L929.2,722.7z"/>
				<path class="st1" d="M1026.7,724.4l30.8-3.4l3.4,30.8l-30.8,3.4L1026.7,724.4z"/>
				<path class="st1" d="M1132,722.3l-1.4,30.1l30.1,1.4l1.4-30.1L1132,722.3z"/>
				<path class="st1" d="M69.4,759.3l30.1-4.1l4.1,30.1l-30.1,4.1L69.4,759.3z"/>
				<path class="st1" d="M108.7,756.9l-3.4,27.3l27.4,3.4l3.4-27.3L108.7,756.9z"/>
				<path class="st1" d="M206.1,760.3l29.1-5.1l5.1,29.1l-29.1,5.1L206.1,760.3z"/>
				<path class="st1" d="M276.2,763.7l23.9-6.8l6.8,23.9l-23.9,6.8L276.2,763.7z"/>
				<path class="st1" d="M313.8,756.9l-3.4,27.3l27.4,3.4l3.4-27.3L313.8,756.9z"/>
				<path class="st1" d="M411.3,758.6l30.8-3.4l3.4,30.8l-30.8,3.4L411.3,758.6z"/>
				<path class="st1" d="M484.1,755.2l-4.4,29.8l29.7,4.4l4.4-29.7L484.1,755.2z"/>
				<path class="st1" d="M516.6,756.5l-1.4,30.1l30.1,1.4l1.4-30.1L516.6,756.5z"/>
				<path class="st1" d="M684.8,756.9l32.5-1.7l1.7,32.5l-32.5,1.7L684.8,756.9z"/>
				<path class="st1" d="M754.9,763.7l23.9-6.8l6.8,23.9l-23.9,6.8L754.9,763.7z"/>
				<path class="st1" d="M794.9,755.2l-7.5,26.7l26.7,7.5l7.5-26.7L794.9,755.2z"/>
				<path class="st1" d="M889.9,758.6l30.8-3.4l3.4,30.8l-30.8,3.4L889.9,758.6z"/>
				<path class="st1" d="M992.5,760.3l29.1-5.1l5.1,29.1l-29.1,5.1L992.5,760.3z"/>
				<path class="st1" d="M1060.9,759.3l30.1-4.1l4.1,30.1l-30.1,4.1L1060.9,759.3z"/>
				<path class="st1" d="M1097.8,756.5l-1.4,30.1l30.1,1.4l1.4-30.1L1097.8,756.5z"/>
				<path class="st1" d="M1129.2,761l28.4-5.8l5.8,28.4l-28.4,5.8L1129.2,761z"/>
				<path class="st1" d="M69.4,792.8l30.8-3.4l3.4,30.8l-30.8,3.4L69.4,792.8z"/>
				<path class="st1" d="M171.9,791.1l32.5-1.7l1.7,32.5l-32.5,1.7L171.9,791.1z"/>
				<path class="st1" d="M377.1,791.1l32.5-1.7l1.7,32.5l-32.5,1.7L377.1,791.1z"/>
				<path class="st1" d="M516.6,790.7l-1.4,30.1l30.1,1.4l1.4-30.1L516.6,790.7z"/>
				<path class="st1" d="M582.2,794.5l29.1-5.1l5.1,29.1l-29.1,5.1L582.2,794.5z"/>
				<path class="st1" d="M652.3,797.9l23.9-6.8l6.8,23.9l-23.9,6.8L652.3,797.9z"/>
				<path class="st1" d="M684.8,795.2l28.4-5.8l5.8,28.4l-28.4,5.8L684.8,795.2z"/>
				<path class="st1" d="M790.1,790.7l-1.4,30.1l30.1,1.4l1.4-30.1L790.1,790.7z"/>
				<path class="st1" d="M855.7,791.1l32.5-1.7l1.7,32.5l-32.5,1.7L855.7,791.1z"/>
				<path class="st1" d="M958.3,791.1l32.5-1.7l1.7,32.5l-32.5,1.7L958.3,791.1z"/>
				<path class="st1" d="M1063.6,790.7l-1.4,30.1l30.1,1.4l1.4-30.1L1063.6,790.7z"/>
				<path class="st1" d="M1095.1,795.2l28.4-5.8l5.8,28.4l-28.4,5.8L1095.1,795.2z"/>
				<path class="st1" d="M1163.4,791.1l32.5-1.7l1.7,32.5l-32.5,1.7L1163.4,791.1z"/>
				<path class="st1" d="M139.5,832.1l23.9-6.8l6.8,23.9l-23.9,6.8L139.5,832.1z"/>
				<path class="st1" d="M174.7,824.9l-1.4,30.1l30.1,1.4l1.4-30.1L174.7,824.9z"/>
				<path class="st1" d="M208.9,824.9l-1.4,30.1l30.1,1.4l1.4-30.1L208.9,824.9z"/>
				<path class="st1" d="M243.1,824.9l-1.4,30.1l30.1,1.4l1.4-30.1L243.1,824.9z"/>
				<path class="st1" d="M277.2,824.9l-1.4,30.1l30.1,1.4l1.4-30.1L277.2,824.9z"/>
				<path class="st1" d="M311.4,824.9l-1.4,30.1l30.1,1.4l1.4-30.1L311.4,824.9z"/>
				<path class="st1" d="M345.6,824.9l-1.4,30.1l30.1,1.4l1.4-30.1L345.6,824.9z"/>
				<path class="st1" d="M379.8,824.9l-1.4,30.1l30.1,1.4l1.4-30.1L379.8,824.9z"/>
				<path class="st1" d="M481.4,832.1l23.9-6.8l6.8,23.9l-23.9,6.8L481.4,832.1z"/>
				<path class="st1" d="M516.6,824.9l-1.4,30.1l30.1,1.4l1.4-30.1L516.6,824.9z"/>
				<path class="st1" d="M553.2,825.2l-3.4,27.3l27.4,3.4l3.4-27.3L553.2,825.2z"/>
				<path class="st1" d="M616.4,825.2l32.5-1.7l1.7,32.5l-32.5,1.7L616.4,825.2z"/>
				<path class="st1" d="M787.3,827l30.8-3.4l3.4,30.8l-30.8,3.4L787.3,827z"/>
				<path class="st1" d="M858.5,824.9l-1.4,30.1l30.1,1.4l1.4-30.1L858.5,824.9z"/>
				<path class="st1" d="M925.8,832.1l23.9-6.8l6.8,23.9l-23.9,6.8L925.8,832.1z"/>
				<path class="st1" d="M961,824.9l-1.4,30.1l30.1,1.4l1.4-30.1L961,824.9z"/>
				<path class="st1" d="M1060.9,827l30.8-3.4l3.4,30.8l-30.8,3.4L1060.9,827z"/>
				<path class="st1" d="M1129.2,827.6l30.1-4.1l4.1,30.1l-30.1,4.1L1129.2,827.6z"/>
				<path class="st1" d="M1163.4,829.3l28.4-5.8l5.8,28.4l-28.4,5.8L1163.4,829.3z"/>
				<path class="st1" d="M103.6,862.9l29.1-5.1l5.1,29.1l-29.1,5.1L103.6,862.9z"/>
				<path class="st1" d="M171.9,861.2l30.8-3.4l3.4,30.8l-30.8,3.4L171.9,861.2z"/>
				<path class="st1" d="M311.4,859.1l-1.4,30.1l30.1,1.4l1.4-30.1L311.4,859.1z"/>
				<path class="st1" d="M345.6,859.1l-1.4,30.1l30.1,1.4l1.4-30.1L345.6,859.1z"/>
				<path class="st1" d="M379.8,859.1l-1.4,30.1l30.1,1.4l1.4-30.1L379.8,859.1z"/>
				<path class="st1" d="M414,859.1l-1.4,30.1l30.1,1.4l1.4-30.1L414,859.1z"/>
				<path class="st1" d="M453,857.7l-7.5,26.7l26.7,7.5l7.5-26.7L453,857.7z"/>
				<path class="st1" d="M516.6,859.1l-1.4,30.1l30.1,1.4l1.4-30.1L516.6,859.1z"/>
				<path class="st1" d="M619.1,859.1l-1.4,30.1l30.1,1.4l1.4-30.1L619.1,859.1z"/>
				<path class="st1" d="M686.5,866.3l23.9-6.8l6.8,23.9l-23.9,6.8L686.5,866.3z"/>
				<path class="st1" d="M724.1,859.4l-3.4,27.4l27.3,3.4l3.4-27.3L724.1,859.4z"/>
				<path class="st1" d="M858.5,859.1l-1.4,30.1l30.1,1.4l1.4-30.1L858.5,859.1z"/>
				<path class="st1" d="M897.4,857.7l-7.5,26.7l26.7,7.5l7.5-26.7L897.4,857.7z"/>
				<path class="st1" d="M961,859.1l-1.4,30.1l30.1,1.4l1.4-30.1L961,859.1z"/>
				<path class="st1" d="M1026.7,859.4l32.5-1.7l1.7,32.5l-32.5,1.7L1026.7,859.4z"/>
				<path class="st1" d="M1129.2,861.2l30.8-3.4l3.4,30.8l-30.8,3.4L1129.2,861.2z"/>
				<path class="st1" d="M69.4,897.1l29.1-5.1l5.1,29.1l-29.1,5.1L69.4,897.1z"/>
				<path class="st1" d="M137.8,897.1l29.1-5.1l5.1,29.1l-29.1,5.1L137.8,897.1z"/>
				<path class="st1" d="M276.2,900.5l23.9-6.8l6.8,23.9l-23.9,6.8L276.2,900.5z"/>
				<path class="st1" d="M308.7,897.7l28.4-5.8l5.8,28.4l-28.4,5.8L308.7,897.7z"/>
				<path class="st1" d="M379.8,893.3l-1.4,30.1l30.1,1.4l1.4-30.1L379.8,893.3z"/>
				<path class="st1" d="M414,893.3l-1.4,30.1l30.1,1.4l1.4-30.1L414,893.3z"/>
				<path class="st1" d="M448.2,893.3l-1.4,30.1l30.1,1.4l1.4-30.1L448.2,893.3z"/>
				<path class="st1" d="M482.4,893.3l-1.4,30.1l30.1,1.4l1.4-30.1L482.4,893.3z"/>
				<path class="st1" d="M513.8,897.7l28.4-5.8l5.8,28.4l-28.4,5.8L513.8,897.7z"/>
				<path class="st1" d="M582.2,896l30.1-4.1l4.1,30.1l-30.1,4.1L582.2,896z"/>
				<path class="st1" d="M619.1,893.3l-1.4,30.1l30.1,1.4l1.4-30.1L619.1,893.3z"/>
				<path class="st1" d="M658.1,891.9l-7.5,26.7l26.7,7.5l7.5-26.7L658.1,891.9z"/>
				<path class="st1" d="M823.2,900.5l23.9-6.8l6.8,23.9l-23.9,6.8L823.2,900.5z"/>
				<path class="st1" d="M858.5,893.3l-1.4,30.1l30.1,1.4l1.4-30.1L858.5,893.3z"/>
				<path class="st1" d="M892.7,893.3l-1.4,30.1l30.1,1.4l1.4-30.1L892.7,893.3z"/>
				<path class="st1" d="M926.8,893.3l-1.4,30.1l30.1,1.4l1.4-30.1L926.8,893.3z"/>
				<path class="st1" d="M961,893.3l-1.4,30.1l30.1,1.4l1.4-30.1L961,893.3z"/>
				<path class="st1" d="M995.2,893.3l-1.4,30.1l30.1,1.4l1.4-30.1L995.2,893.3z"/>
				<path class="st1" d="M1029.4,893.3l-1.4,30.1l30.1,1.4l1.4-30.1L1029.4,893.3z"/>
				<path class="st1" d="M342.9,930.2l30.1-4.1l4.1,30.1l-30.1,4.1L342.9,930.2z"/>
				<path class="st1" d="M379.8,927.5l-1.4,30.1l30.1,1.4l1.4-30.1L379.8,927.5z"/>
				<path class="st1" d="M411.3,931.9l28.4-5.8l5.8,28.4l-28.4,5.8L411.3,931.9z"/>
				<path class="st1" d="M479.6,929.5l30.8-3.4l3.4,30.8l-30.8,3.4L479.6,929.5z"/>
				<path class="st1" d="M586.7,926.1l-4.4,29.7l29.7,4.5l4.4-29.8L586.7,926.1z"/>
				<path class="st1" d="M619.1,927.5l-1.4,30.1l30.1,1.4l1.4-30.1L619.1,927.5z"/>
				<path class="st1" d="M650.6,931.9l28.4-5.8l5.8,28.4l-28.4,5.8L650.6,931.9z"/>
				<path class="st1" d="M719,930.2l30.1-4.1l4.1,30.1l-30.1,4.1L719,930.2z"/>
				<path class="st1" d="M755.9,927.5l-1.4,30.1l30.1,1.4l1.4-30.1L755.9,927.5z"/>
				<path class="st1" d="M794.9,926.1l-7.5,26.7l26.7,7.5l7.5-26.7L794.9,926.1z"/>
				<path class="st1" d="M892.7,927.5l-1.4,30.1l30.1,1.4l1.4-30.1L892.7,927.5z"/>
				<path class="st1" d="M1029.4,927.5l-1.4,30.1l30.1,1.4l1.4-30.1L1029.4,927.5z"/>
				<path class="st1" d="M1066,927.8l-3.4,27.4l27.4,3.4l3.4-27.3L1066,927.8z"/>
				<path class="st1" d="M1129.2,931.2l29.1-5.1l5.1,29.1l-29.1,5.1L1129.2,931.2z"/>
				<path class="st1" d="M345.6,961.7l-1.4,30.1l30.1,1.4l1.4-30.1L345.6,961.7z"/>
				<path class="st1" d="M377.1,966.1l28.4-5.8l5.8,28.4l-28.4,5.8L377.1,966.1z"/>
				<path class="st1" d="M445.5,962l32.5-1.7l1.7,32.5l-32.5,1.7L445.5,962z"/>
				<path class="st1" d="M513.8,964.4l30.1-4.1l4.1,30.1l-30.1,4.1L513.8,964.4z"/>
				<path class="st1" d="M555.5,960.3L548,987l26.7,7.5l7.5-26.7L555.5,960.3z"/>
				<path class="st1" d="M723.4,960.3L719,990l29.8,4.4l4.4-29.8L723.4,960.3z"/>
				<path class="st1" d="M755.9,961.7l-1.4,30.1l30.1,1.4L786,963L755.9,961.7z"/>
				<path class="st1" d="M790.1,961.7l-1.4,30.1l30.1,1.4l1.4-30.1L790.1,961.7z"/>
				<path class="st1" d="M855.7,964.4l30.1-4.1l4.1,30.1l-30.1,4.1L855.7,964.4z"/>
				<path class="st1" d="M892.7,961.7l-1.4,30.1l30.1,1.4l1.4-30.1L892.7,961.7z"/>
				<path class="st1" d="M958.3,965.4l29.1-5.1l5.1,29.1l-29.1,5.1L958.3,965.4z"/>
				<path class="st1" d="M1029.4,961.7l-1.4,30.1l30.1,1.4l1.4-30.1L1029.4,961.7z"/>
				<path class="st1" d="M342.9,997.9l30.8-3.4l3.4,30.8l-30.8,3.4L342.9,997.9z"/>
				<path class="st1" d="M411.3,998.6l30.1-4.1l4.1,30.1l-30.1,4.1L411.3,998.6z"/>
				<path class="st1" d="M448.2,995.8l-1.4,30.1l30.1,1.4l1.4-30.1L448.2,995.8z"/>
				<path class="st1" d="M518.3,994.5l-4.4,29.7l29.7,4.5l4.4-29.8L518.3,994.5z"/>
				<path class="st1" d="M550.8,995.8l-1.4,30.1l30.1,1.4l1.4-30.1L550.8,995.8z"/>
				<path class="st1" d="M616.4,999.6l29.1-5.1l5.1,29.1l-29.1,5.1L616.4,999.6z"/>
				<path class="st1" d="M755.9,995.8l-1.4,30.1l30.1,1.4l1.4-30.1L755.9,995.8z"/>
				<path class="st1" d="M787.3,1000.3l28.4-5.8l5.8,28.4l-28.4,5.8L787.3,1000.3z"/>
				<path class="st1" d="M858.5,995.8l-1.4,30.1l30.1,1.4l1.4-30.1L858.5,995.8z"/>
				<path class="st1" d="M892.7,995.8l-1.4,30.1l30.1,1.4l1.4-30.1L892.7,995.8z"/>
				<path class="st1" d="M1029.4,995.8l-1.4,30.1l30.1,1.4l1.4-30.1L1029.4,995.8z"/>
				<path class="st1" d="M1063.6,995.8l-1.4,30.1l30.1,1.4l1.4-30.1L1063.6,995.8z"/>
				<path class="st1" d="M1102.6,994.5l-7.5,26.7l26.7,7.5l7.5-26.7L1102.6,994.5z"/>
				<path class="st1" d="M1163.4,996.2l32.5-1.7l1.7,32.5l-32.5,1.7L1163.4,996.2z"/>
				<path class="st1" d="M415.7,1028.7l-4.4,29.7l29.7,4.4l4.4-29.7L415.7,1028.7z"/>
				<path class="st1" d="M448.2,1030l-1.4,30.1l30.1,1.4l1.4-30.1L448.2,1030z"/>
				<path class="st1" d="M487.2,1028.7l-7.5,26.7l26.7,7.5l7.5-26.7L487.2,1028.7z"/>
				<path class="st1" d="M548,1032.1l30.8-3.4l3.4,30.8l-30.8,3.4L548,1032.1z"/>
				<path class="st1" d="M650.6,1033.8l29.1-5.1l5.1,29.1l-29.1,5.1L650.6,1033.8z"/>
				<path class="st1" d="M719,1032.8l30.1-4.1l4.1,30.1l-30.1,4.1L719,1032.8z"/>
				<path class="st1" d="M755.9,1030l-1.4,30.1l30.1,1.4l1.4-30.1L755.9,1030z"/>
				<path class="st1" d="M858.5,1030l-1.4,30.1l30.1,1.4l1.4-30.1L858.5,1030z"/>
				<path class="st1" d="M892.7,1030l-1.4,30.1l30.1,1.4l1.4-30.1L892.7,1030z"/>
				<path class="st1" d="M926.8,1030l-1.4,30.1l30.1,1.4l1.4-30.1L926.8,1030z"/>
				<path class="st1" d="M961,1030l-1.4,30.1l30.1,1.4l1.4-30.1L961,1030z"/>
				<path class="st1" d="M995.2,1030l-1.4,30.1l30.1,1.4l1.4-30.1L995.2,1030z"/>
				<path class="st1" d="M1026.7,1034.5l28.4-5.8l5.8,28.4l-28.4,5.8L1026.7,1034.5z"/>
				<path class="st1" d="M1097.8,1030l-1.4,30.1l30.1,1.4l1.4-30.1L1097.8,1030z"/>
				<path class="st1" d="M1166.2,1030l-1.4,30.1l30.1,1.4l1.4-30.1L1166.2,1030z"/>
				<path class="st1" d="M342.9,1064.6l32.5-1.7l1.7,32.5l-32.5,1.7L342.9,1064.6z"/>
				<path class="st1" d="M449.9,1062.9l-4.4,29.8l29.7,4.4l4.4-29.7L449.9,1062.9z"/>
				<path class="st1" d="M482.4,1064.2l-1.4,30.1l30.1,1.4l1.4-30.1L482.4,1064.2z"/>
				<path class="st1" d="M519,1064.6l-3.4,27.4l27.4,3.4l3.4-27.3L519,1064.6z"/>
				<path class="st1" d="M686.5,1071.4l23.9-6.8l6.8,23.9l-23.9,6.8L686.5,1071.4z"/>
				<path class="st1" d="M721.7,1064.2l-1.4,30.1l30.1,1.4l1.4-30.1L721.7,1064.2z"/>
				<path class="st1" d="M755.9,1064.2l-1.4,30.1l30.1,1.4l1.4-30.1L755.9,1064.2z"/>
				<path class="st1" d="M790.1,1064.2l-1.4,30.1l30.1,1.4l1.4-30.1L790.1,1064.2z"/>
				<path class="st1" d="M824.3,1064.2l-1.4,30.1l30.1,1.4l1.4-30.1L824.3,1064.2z"/>
				<path class="st1" d="M855.7,1068.7l28.4-5.8l5.8,28.4l-28.4,5.8L855.7,1068.7z"/>
				<path class="st1" d="M995.2,1064.2l-1.4,30.1l30.1,1.4l1.4-30.1L995.2,1064.2z"/>
				<path class="st1" d="M1060.9,1067l30.1-4.1l4.1,30.1l-30.1,4.1L1060.9,1067z"/>
				<path class="st1" d="M1097.8,1064.2l-1.4,30.1l30.1,1.4l1.4-30.1L1097.8,1064.2z"/>
				<path class="st1" d="M1163.4,1066.3l30.8-3.4l3.4,30.8l-30.8,3.4L1163.4,1066.3z"/>
				<path class="st1" d="M347.3,1097.1l-4.4,29.8l29.7,4.4l4.4-29.7L347.3,1097.1z"/>
				<path class="st1" d="M379.8,1098.4l-1.4,30.1l30.1,1.4l1.4-30.1L379.8,1098.4z"/>
				<path class="st1" d="M418.8,1097.1l-7.5,26.7l26.7,7.5l7.5-26.7L418.8,1097.1z"/>
				<path class="st1" d="M479.6,1100.5l30.8-3.4l3.4,30.8l-30.8,3.4L479.6,1100.5z"/>
				<path class="st1" d="M548,1102.2l29.1-5.1l5.1,29.1l-29.1,5.1L548,1102.2z"/>
				<path class="st1" d="M721.7,1098.4l-1.4,30.1l30.1,1.4l1.4-30.1L721.7,1098.4z"/>
				<path class="st1" d="M824.3,1098.4l-1.4,30.1l30.1,1.4l1.4-30.1L824.3,1098.4z"/>
				<path class="st1" d="M958.3,1101.2l30.1-4.1l4.1,30.1l-30.1,4.1L958.3,1101.2z"/>
				<path class="st1" d="M995.2,1098.4l-1.4,30.1l30.1,1.4l1.4-30.1L995.2,1098.4z"/>
				<path class="st1" d="M1065.3,1097.1l-4.5,29.8l29.8,4.4l4.4-29.7L1065.3,1097.1z"/>
				<path class="st1" d="M1095.1,1102.9l28.4-5.8l5.8,28.4l-28.4,5.8L1095.1,1102.9z"/>
				<path class="st1" d="M415.7,1131.2l-4.4,29.8l29.7,4.4l4.4-29.7L415.7,1131.2z"/>
				<path class="st1" d="M450.6,1132.9l-3.4,27.4l27.4,3.4l3.4-27.3L450.6,1132.9z"/>
				<path class="st1" d="M582.2,1135.3l30.1-4.1l4.1,30.1l-30.1,4.1L582.2,1135.3z"/>
				<path class="st1" d="M619.1,1132.6l-1.4,30.1l30.1,1.4l1.4-30.1L619.1,1132.6z"/>
				<path class="st1" d="M658.1,1131.2l-7.5,26.7l26.7,7.5l7.5-26.7L658.1,1131.2z"/>
				<path class="st1" d="M719,1134.7l30.8-3.4l3.4,30.8l-30.8,3.4L719,1134.7z"/>
				<path class="st1" d="M826,1131.2l-4.4,29.8l29.8,4.4l4.4-29.7L826,1131.2z"/>
				<path class="st1" d="M858.5,1132.6l-1.4,30.1l30.1,1.4l1.4-30.1L858.5,1132.6z"/>
				<path class="st1" d="M892.7,1132.6l-1.4,30.1l30.1,1.4l1.4-30.1L892.7,1132.6z"/>
				<path class="st1" d="M926.8,1132.6l-1.4,30.1l30.1,1.4l1.4-30.1L926.8,1132.6z"/>
				<path class="st1" d="M961,1132.6l-1.4,30.1l30.1,1.4l1.4-30.1L961,1132.6z"/>
				<path class="st1" d="M995.2,1132.6l-1.4,30.1l30.1,1.4l1.4-30.1L995.2,1132.6z"/>
				<path class="st1" d="M1034.2,1131.2l-7.5,26.7l26.7,7.5l7.5-26.7L1034.2,1131.2z"/>
				<path class="st1" d="M1163.4,1136.4l29.1-5.1l5.1,29.1l-29.1,5.1L1163.4,1136.4z"/>
				<path class="st1" d="M344.6,1174l23.9-6.8l6.8,23.9l-23.9,6.8L344.6,1174z"/>
				<path class="st1" d="M382.2,1167.1l-3.4,27.3l27.4,3.4l3.4-27.3L382.2,1167.1z"/>
				<path class="st1" d="M549.7,1174l23.9-6.8l6.8,23.9l-23.9,6.8L549.7,1174z"/>
				<path class="st1" d="M585,1166.8l-1.4,30.1l30.1,1.4l1.4-30.1L585,1166.8z"/>
				<path class="st1" d="M619.1,1166.8l-1.4,30.1l30.1,1.4l1.4-30.1L619.1,1166.8z"/>
				<path class="st1" d="M653.3,1166.8l-1.4,30.1l30.1,1.4l1.4-30.1L653.3,1166.8z"/>
				<path class="st1" d="M689.9,1167.1l-3.4,27.3l27.3,3.4l3.4-27.3L689.9,1167.1z"/>
				<path class="st1" d="M787.3,1170.6l29.1-5.1l5.1,29.1l-29.1,5.1L787.3,1170.6z"/>
				<path class="st1" d="M855.7,1168.8l30.8-3.4l3.4,30.8l-30.8,3.4L855.7,1168.8z"/>
				<path class="st1" d="M1031.1,1165.4l-4.4,29.8l29.7,4.4l4.4-29.7L1031.1,1165.4z"/>
				<path class="st1" d="M1063.6,1166.8l-1.4,30.1l30.1,1.4l1.4-30.1L1063.6,1166.8z"/>
				<path class="st1" d="M1100.2,1167.1l-3.4,27.3l27.3,3.4l3.4-27.3L1100.2,1167.1z"/>
				<path class="st1" d="M272.8,71.4H105.3H69.4v35.9v167.5v35.9h35.9h167.5h35.9v-35.9V107.3V71.4H272.8z M272.8,274.8H105.3V107.3
					h167.5V274.8z"/>
				<path class="st1" d="M1161.7,71.4H994.2h-35.9v35.9v167.5v35.9h35.9h167.5h35.9v-35.9V107.3V71.4H1161.7z M1161.7,274.8H994.2
					V107.3h167.5V274.8z"/>
				<path class="st1" d="M272.8,960.3H105.3H69.4v35.9v167.5v35.9h35.9h167.5h35.9v-35.9V996.2v-35.9H272.8z M272.8,1163.7H105.3
					V996.2h167.5V1163.7z"/>
				<path class="st1" d="M240.4,139.8v102.6H137.8l0-74.2c0-15.6,12.5-28.3,27.8-28.3h46.7c4.8,0,11.8,0,17.6,0
					C235.8,139.8,240.4,139.8,240.4,139.8z"/>
				<path class="st1" d="M1026.6,139.8v102.6h102.6l0-74.2c0-15.6-12.5-28.3-27.8-28.3h-46.7c-4.8,0-11.8,0-17.6,0
					C1031.2,139.8,1026.6,139.8,1026.6,139.8z"/>
				<path class="st1" d="M240.4,1131.2v-102.5H137.8l0,74.2c0,15.6,12.5,28.3,27.8,28.3h46.7c4.8,0,11.8,0,17.6,0
					C235.8,1131.2,240.4,1131.2,240.4,1131.2z"/>
			</g>
		</g>
	</g>
</g>
</svg>
