<?xml version="1.0" encoding="UTF-8"?>
<svg id="Layer_1" data-name="Layer 1" xmlns="http://www.w3.org/2000/svg" viewBox="0 0 1265 1265">
  <defs>
    <style>
      .cls-1 {
        fill: #2b67b5;
      }

      .cls-1, .cls-2 {
        stroke-width: 0px;
      }

      .cls-2 {
        fill: #fff;
      }
    </style>
  </defs>
  <path class="cls-2" d="M0,0h1265v1265H0V0Z"/>
  <path class="cls-1" d="M341.89,70.09l32.48-1.71,1.71,32.48-32.48,1.71-1.71-32.48Z"/>
  <path class="cls-1" d="M411.98,76.93l23.93-6.84,6.84,23.93-23.93,6.84-6.84-23.93Z"/>
  <path class="cls-1" d="M447.2,69.75l-1.37,30.09,30.09,1.37,1.37-30.09-30.09-1.37Z"/>
  <path class="cls-1" d="M481.38,69.75l-1.37,30.09,30.09,1.37,1.37-30.09-30.09-1.37Z"/>
  <path class="cls-1" d="M515.57,69.75l-1.37,30.09,30.09,1.37,1.37-30.09-30.09-1.37Z"/>
  <path class="cls-1" d="M552.16,70.09l-3.42,27.35,27.35,3.42,3.42-27.35-27.35-3.42Z"/>
  <path class="cls-1" d="M615.41,72.48l30.09-4.1,4.1,30.09-30.09,4.1-4.1-30.09Z"/>
  <path class="cls-1" d="M652.33,69.75l-1.37,30.09,30.09,1.37,1.37-30.09-30.09-1.37Z"/>
  <path class="cls-1" d="M686.52,69.75l-1.37,30.09,30.09,1.37,1.37-30.09-30.09-1.37Z"/>
  <path class="cls-1" d="M720.71,69.75l-1.37,30.09,30.09,1.37,1.36-30.09-30.08-1.37Z"/>
  <path class="cls-1" d="M754.9,69.75l-1.37,30.09,30.09,1.37,1.36-30.09-30.08-1.37Z"/>
  <path class="cls-1" d="M791.48,70.09l-3.42,27.35,27.35,3.42,3.42-27.35-27.35-3.42Z"/>
  <path class="cls-1" d="M854.73,70.09l32.48-1.71,1.71,32.48-32.48,1.71-1.71-32.48Z"/>
  <path class="cls-1" d="M346.34,102.57l-4.44,29.74,29.74,4.44,4.44-29.74-29.74-4.44Z"/>
  <path class="cls-1" d="M381.21,104.28l-3.42,27.35,27.35,3.42,3.42-27.35-27.35-3.42Z"/>
  <path class="cls-1" d="M447.2,103.93l-1.37,30.09,30.09,1.37,1.37-30.09-30.09-1.37Z"/>
  <path class="cls-1" d="M481.38,103.93l-1.37,30.09,30.09,1.37,1.37-30.09-30.09-1.37Z"/>
  <path class="cls-1" d="M512.84,108.38l28.38-5.81,5.81,28.38-28.38,5.81-5.81-28.38Z"/>
  <path class="cls-1" d="M618.14,103.93l-1.37,30.09,30.09,1.37,1.37-30.09-30.09-1.37Z"/>
  <path class="cls-1" d="M683.78,105.99l30.77-3.42,3.42,30.77-30.77,3.42-3.42-30.77Z"/>
  <path class="cls-1" d="M752.16,105.99l30.77-3.42,3.42,30.77-30.77,3.42-3.42-30.77Z"/>
  <path class="cls-1" d="M820.54,106.67l30.09-4.1,4.1,30.09-30.09,4.1-4.1-30.09Z"/>
  <path class="cls-1" d="M857.46,103.93l-1.36,30.09,30.08,1.37,1.37-30.09-30.09-1.37Z"/>
  <path class="cls-1" d="M896.44,102.57l-7.52,26.67,26.67,7.52,7.52-26.67-26.67-7.52Z"/>
  <path class="cls-1" d="M410.27,140.86l30.09-4.1,4.1,30.09-30.09,4.1-4.1-30.09Z"/>
  <path class="cls-1" d="M444.46,142.57l28.38-5.81,5.81,28.38-28.38,5.81-5.81-28.38Z"/>
  <path class="cls-1" d="M581.22,140.86l30.09-4.1,4.1,30.09-30.09,4.1-4.1-30.09Z"/>
  <path class="cls-1" d="M618.14,138.12l-1.37,30.09,30.09,1.37,1.37-30.09-30.09-1.37Z"/>
  <path class="cls-1" d="M654.72,138.47l-3.42,27.35,27.35,3.42,3.41-27.35-27.35-3.42Z"/>
  <path class="cls-1" d="M717.97,138.47l32.48-1.71,1.71,32.48-32.48,1.71-1.71-32.48Z"/>
  <path class="cls-1" d="M823.28,138.12l-1.37,30.09,30.08,1.37,1.37-30.09-30.08-1.37Z"/>
  <path class="cls-1" d="M888.92,140.18l30.77-3.42,3.42,30.77-30.77,3.42-3.42-30.77Z"/>
  <path class="cls-1" d="M341.89,176.07l29.06-5.13,5.13,29.06-29.06,5.13-5.13-29.06Z"/>
  <path class="cls-1" d="M410.27,174.36l30.77-3.42,3.42,30.77-30.77,3.42-3.42-30.77Z"/>
  <path class="cls-1" d="M478.65,172.66l32.48-1.71,1.71,32.48-32.48,1.71-1.71-32.48Z"/>
  <path class="cls-1" d="M547.03,175.05l30.09-4.1,4.1,30.09-30.09,4.1-4.1-30.09Z"/>
  <path class="cls-1" d="M583.95,172.31l-1.37,30.09,30.09,1.37,1.37-30.09-30.09-1.37Z"/>
  <path class="cls-1" d="M615.41,176.76l28.38-5.81,5.81,28.38-28.38,5.81-5.81-28.38Z"/>
  <path class="cls-1" d="M722.42,170.95l-4.45,29.74,29.75,4.45,4.44-29.74-29.74-4.45Z"/>
  <path class="cls-1" d="M759.68,170.95l-7.52,26.67,26.67,7.52,7.52-26.67-26.67-7.52Z"/>
  <path class="cls-1" d="M820.54,174.36l30.77-3.42,3.42,30.77-30.77,3.42-3.42-30.77Z"/>
  <path class="cls-1" d="M376.08,206.84l32.48-1.71,1.71,32.48-32.48,1.71-1.71-32.48Z"/>
  <path class="cls-1" d="M446.17,213.68l23.93-6.84,6.84,23.93-23.93,6.84-6.84-23.93Z"/>
  <path class="cls-1" d="M481.38,206.5l-1.37,30.09,30.09,1.37,1.37-30.09-30.09-1.37Z"/>
  <path class="cls-1" d="M547.03,208.55l30.77-3.42,3.42,30.77-30.77,3.42-3.42-30.77Z"/>
  <path class="cls-1" d="M649.59,210.26l29.06-5.13,5.12,29.06-29.06,5.13-5.13-29.06Z"/>
  <path class="cls-1" d="M754.9,206.5l-1.37,30.09,30.09,1.37,1.36-30.09-30.08-1.37Z"/>
  <path class="cls-1" d="M888.92,206.84l32.48-1.71,1.71,32.48-32.48,1.71-1.71-32.48Z"/>
  <path class="cls-1" d="M376.08,242.74l30.77-3.42,3.42,30.77-30.77,3.42-3.42-30.77Z"/>
  <path class="cls-1" d="M481.38,240.69l-1.37,30.09,30.09,1.37,1.37-30.09-30.09-1.37Z"/>
  <path class="cls-1" d="M683.78,243.43l30.09-4.1,4.1,30.09-30.08,4.1-4.11-30.09Z"/>
  <path class="cls-1" d="M720.71,240.69l-1.37,30.09,30.09,1.37,1.36-30.09-30.08-1.37Z"/>
  <path class="cls-1" d="M754.9,240.69l-1.37,30.09,30.09,1.37,1.36-30.09-30.08-1.37Z"/>
  <path class="cls-1" d="M789.09,240.69l-1.37,30.09,30.09,1.37,1.36-30.09-30.08-1.37Z"/>
  <path class="cls-1" d="M828.06,239.32l-7.52,26.67,26.67,7.52,7.52-26.67-26.67-7.52Z"/>
  <path class="cls-1" d="M891.65,240.69l-1.36,30.09,30.08,1.37,1.37-30.09-30.09-1.37Z"/>
  <path class="cls-1" d="M341.89,275.22l32.48-1.71,1.71,32.48-32.48,1.71-1.71-32.48Z"/>
  <path class="cls-1" d="M410.27,278.64l29.06-5.13,5.13,29.06-29.06,5.13-5.13-29.06Z"/>
  <path class="cls-1" d="M478.65,276.93l30.77-3.42,3.42,30.77-30.77,3.42-3.42-30.77Z"/>
  <path class="cls-1" d="M547.03,278.64l29.06-5.13,5.13,29.06-29.06,5.13-5.13-29.06Z"/>
  <path class="cls-1" d="M615.41,278.64l29.06-5.13,5.13,29.06-29.06,5.13-5.13-29.06Z"/>
  <path class="cls-1" d="M686.52,274.88l-1.37,30.09,30.09,1.37,1.37-30.09-30.09-1.37Z"/>
  <path class="cls-1" d="M754.9,274.88l-1.37,30.09,30.09,1.37,1.36-30.09-30.08-1.37Z"/>
  <path class="cls-1" d="M820.54,276.93l30.77-3.42,3.42,30.77-30.77,3.42-3.42-30.77Z"/>
  <path class="cls-1" d="M888.92,276.93l30.77-3.42,3.42,30.77-30.77,3.42-3.42-30.77Z"/>
  <path class="cls-1" d="M346.34,307.7l-4.44,29.74,29.74,4.45,4.44-29.75-29.74-4.44Z"/>
  <path class="cls-1" d="M381.21,309.41l-3.42,27.35,27.35,3.42,3.42-27.35-27.35-3.42Z"/>
  <path class="cls-1" d="M444.46,309.41l32.48-1.71,1.71,32.48-32.48,1.71-1.71-32.48Z"/>
  <path class="cls-1" d="M649.59,311.8l30.09-4.1,4.1,30.09-30.08,4.1-4.1-30.09Z"/>
  <path class="cls-1" d="M686.52,309.07l-1.37,30.09,30.09,1.37,1.37-30.09-30.09-1.37Z"/>
  <path class="cls-1" d="M752.16,311.12l30.77-3.42,3.42,30.77-30.77,3.42-3.42-30.77Z"/>
  <path class="cls-1" d="M854.73,312.83l29.06-5.13,5.13,29.06-29.06,5.13-5.13-29.06Z"/>
  <path class="cls-1" d="M68.38,343.6l32.48-1.71,1.71,32.48-32.48,1.71-1.71-32.48Z"/>
  <path class="cls-1" d="M136.76,345.99l30.09-4.1,4.1,30.09-30.09,4.1-4.1-30.09Z"/>
  <path class="cls-1" d="M178.47,341.89l-7.52,26.67,26.67,7.52,7.52-26.67-26.67-7.52Z"/>
  <path class="cls-1" d="M241.03,350.44l23.93-6.84,6.84,23.93-23.93,6.84-6.84-23.93Z"/>
  <path class="cls-1" d="M276.25,343.26l-1.37,30.09,30.09,1.37,1.37-30.09-30.09-1.37Z"/>
  <path class="cls-1" d="M315.22,341.89l-7.52,26.67,26.67,7.52,7.52-26.67-26.67-7.52Z"/>
  <path class="cls-1" d="M411.98,350.44l23.93-6.84,6.84,23.93-23.93,6.84-6.84-23.93Z"/>
  <path class="cls-1" d="M447.2,343.26l-1.37,30.09,30.09,1.37,1.37-30.09-30.09-1.37Z"/>
  <path class="cls-1" d="M483.78,343.6l-3.42,27.35,27.35,3.42,3.42-27.35-27.35-3.42Z"/>
  <path class="cls-1" d="M547.03,347.02l29.06-5.13,5.13,29.06-29.06,5.13-5.13-29.06Z"/>
  <path class="cls-1" d="M654.04,341.89l-4.44,29.74,29.75,4.45,4.44-29.74-29.74-4.44Z"/>
  <path class="cls-1" d="M686.52,343.26l-1.37,30.09,30.09,1.37,1.37-30.09-30.09-1.37Z"/>
  <path class="cls-1" d="M725.49,341.89l-7.52,26.67,26.67,7.52,7.52-26.67-26.67-7.52Z"/>
  <path class="cls-1" d="M788.06,350.44l23.93-6.84,6.84,23.93-23.93,6.84-6.84-23.93Z"/>
  <path class="cls-1" d="M825.67,343.6l-3.42,27.35,27.35,3.42,3.42-27.35-27.35-3.42Z"/>
  <path class="cls-1" d="M888.92,347.02l29.06-5.13,5.13,29.06-29.06,5.13-5.13-29.06Z"/>
  <path class="cls-1" d="M957.3,343.6l32.48-1.71,1.71,32.48-32.48,1.71-1.71-32.48Z"/>
  <path class="cls-1" d="M1059.86,343.6l32.48-1.71,1.71,32.48-32.48,1.71-1.71-32.48Z"/>
  <path class="cls-1" d="M1128.24,345.99l30.09-4.1,4.1,30.09-30.08,4.1-4.11-30.09Z"/>
  <path class="cls-1" d="M1169.95,341.89l-7.52,26.67,26.67,7.52,7.52-26.67-26.67-7.52Z"/>
  <path class="cls-1" d="M68.38,379.5l30.77-3.42,3.42,30.77-30.77,3.42-3.42-30.77Z"/>
  <path class="cls-1" d="M141.2,376.08l-4.44,29.74,29.74,4.44,4.45-29.74-29.75-4.45Z"/>
  <path class="cls-1" d="M170.95,381.89l28.38-5.81,5.81,28.38-28.38,5.81-5.81-28.38Z"/>
  <path class="cls-1" d="M307.7,379.5l30.77-3.42,3.42,30.77-30.77,3.42-3.42-30.77Z"/>
  <path class="cls-1" d="M615.41,377.79l32.48-1.71,1.71,32.48-32.48,1.71-1.71-32.48Z"/>
  <path class="cls-1" d="M688.23,376.08l-4.45,29.74,29.75,4.44,4.44-29.74-29.74-4.45Z"/>
  <path class="cls-1" d="M720.71,377.45l-1.37,30.09,30.09,1.37,1.36-30.09-30.08-1.37Z"/>
  <path class="cls-1" d="M757.29,377.79l-3.42,27.35,27.35,3.42,3.42-27.35-27.35-3.42Z"/>
  <path class="cls-1" d="M854.73,377.79l32.48-1.71,1.71,32.48-32.48,1.71-1.71-32.48Z"/>
  <path class="cls-1" d="M960.03,377.45l-1.37,30.09,30.09,1.37,1.37-30.09-30.09-1.37Z"/>
  <path class="cls-1" d="M999.01,376.08l-7.52,26.67,26.66,7.52,7.53-26.67-26.67-7.52Z"/>
  <path class="cls-1" d="M1062.6,377.45l-1.37,30.09,30.09,1.37,1.37-30.09-30.09-1.37Z"/>
  <path class="cls-1" d="M1096.79,377.45l-1.37,30.09,30.09,1.37,1.37-30.09-30.09-1.37Z"/>
  <path class="cls-1" d="M1130.98,377.45l-1.37,30.09,30.09,1.37,1.36-30.09-30.08-1.37Z"/>
  <path class="cls-1" d="M1165.17,377.45l-1.37,30.09,30.09,1.37,1.36-30.09-30.08-1.37Z"/>
  <path class="cls-1" d="M239.32,414.37l30.09-4.1,4.1,30.09-30.09,4.1-4.1-30.09Z"/>
  <path class="cls-1" d="M278.64,411.98l-3.42,27.35,27.35,3.42,3.42-27.35-27.35-3.42Z"/>
  <path class="cls-1" d="M343.6,418.82l23.93-6.84,6.84,23.93-23.93,6.84-6.84-23.93Z"/>
  <path class="cls-1" d="M378.82,411.64l-1.37,30.09,30.09,1.37,1.37-30.09-30.09-1.37Z"/>
  <path class="cls-1" d="M417.79,410.27l-7.52,26.67,26.67,7.52,7.52-26.67-26.67-7.52Z"/>
  <path class="cls-1" d="M478.65,411.98l32.48-1.71,1.71,32.48-32.48,1.71-1.71-32.48Z"/>
  <path class="cls-1" d="M547.03,411.98l32.48-1.71,1.71,32.48-32.48,1.71-1.71-32.48Z"/>
  <path class="cls-1" d="M619.85,410.27l-4.44,29.74,29.74,4.44,4.44-29.74-29.74-4.45Z"/>
  <path class="cls-1" d="M654.72,411.98l-3.42,27.35,27.35,3.42,3.41-27.35-27.35-3.42Z"/>
  <path class="cls-1" d="M854.73,413.69l30.77-3.42,3.42,30.77-30.77,3.42-3.42-30.77Z"/>
  <path class="cls-1" d="M924.82,418.82l23.93-6.84,6.84,23.93-23.93,6.84-6.84-23.93Z"/>
  <path class="cls-1" d="M960.03,411.64l-1.37,30.09,30.09,1.37,1.37-30.09-30.09-1.37Z"/>
  <path class="cls-1" d="M994.22,411.64l-1.37,30.09,30.09,1.37,1.37-30.09-30.09-1.37Z"/>
  <path class="cls-1" d="M1028.41,411.64l-1.37,30.09,30.09,1.37,1.37-30.09-30.09-1.37Z"/>
  <path class="cls-1" d="M1062.6,411.64l-1.37,30.09,30.09,1.37,1.37-30.09-30.09-1.37Z"/>
  <path class="cls-1" d="M1162.43,413.69l30.77-3.42,3.42,30.77-30.77,3.42-3.42-30.77Z"/>
  <path class="cls-1" d="M68.38,449.59l29.06-5.13,5.13,29.06-29.06,5.13-5.13-29.06Z"/>
  <path class="cls-1" d="M136.76,446.17l32.48-1.71,1.71,32.48-32.48,1.71-1.71-32.48Z"/>
  <path class="cls-1" d="M205.14,448.56l30.09-4.1,4.1,30.09-30.09,4.1-4.1-30.09Z"/>
  <path class="cls-1" d="M239.32,450.27l28.38-5.81,5.81,28.38-28.38,5.81-5.81-28.38Z"/>
  <path class="cls-1" d="M380.53,444.46l-4.45,29.74,29.74,4.45,4.44-29.74-29.74-4.45Z"/>
  <path class="cls-1" d="M413.01,445.83l-1.37,30.09,30.09,1.37,1.37-30.09-30.09-1.37Z"/>
  <path class="cls-1" d="M447.2,445.83l-1.37,30.09,30.09,1.37,1.37-30.09-30.09-1.37Z"/>
  <path class="cls-1" d="M481.38,445.83l-1.37,30.09,30.09,1.37,1.37-30.09-30.09-1.37Z"/>
  <path class="cls-1" d="M515.57,445.83l-1.37,30.09,30.09,1.37,1.37-30.09-30.09-1.37Z"/>
  <path class="cls-1" d="M549.76,445.83l-1.37,30.09,30.09,1.37,1.37-30.09-30.09-1.37Z"/>
  <path class="cls-1" d="M586.34,446.17l-3.42,27.35,27.35,3.42,3.42-27.35-27.35-3.42Z"/>
  <path class="cls-1" d="M683.78,446.17l32.48-1.71,1.71,32.48-32.48,1.71-1.71-32.48Z"/>
  <path class="cls-1" d="M994.22,445.83l-1.37,30.09,30.09,1.37,1.37-30.09-30.09-1.37Z"/>
  <path class="cls-1" d="M1062.6,445.83l-1.37,30.09,30.09,1.37,1.37-30.09-30.09-1.37Z"/>
  <path class="cls-1" d="M104.28,487.2l23.93-6.84,6.84,23.93-23.93,6.84-6.84-23.93Z"/>
  <path class="cls-1" d="M139.49,480.02l-1.37,30.09,30.09,1.37,1.37-30.09-30.09-1.37Z"/>
  <path class="cls-1" d="M173.68,480.02l-1.37,30.09,30.09,1.37,1.37-30.09-30.09-1.37Z"/>
  <path class="cls-1" d="M207.87,480.02l-1.37,30.09,30.09,1.37,1.37-30.09-30.09-1.37Z"/>
  <path class="cls-1" d="M275.22,487.2l23.93-6.84,6.84,23.93-23.93,6.84-6.84-23.93Z"/>
  <path class="cls-1" d="M310.44,480.02l-1.37,30.09,30.09,1.37,1.37-30.09-30.09-1.37Z"/>
  <path class="cls-1" d="M349.41,478.65l-7.52,26.67,26.67,7.52,7.52-26.67-26.67-7.52Z"/>
  <path class="cls-1" d="M478.65,482.07l30.77-3.42,3.42,30.77-30.77,3.42-3.42-30.77Z"/>
  <path class="cls-1" d="M686.52,480.02l-1.37,30.09,30.09,1.37,1.37-30.09-30.09-1.37Z"/>
  <path class="cls-1" d="M822.25,487.2l23.93-6.84,6.84,23.93-23.93,6.84-6.84-23.93Z"/>
  <path class="cls-1" d="M857.46,480.02l-1.36,30.09,30.08,1.37,1.37-30.09-30.09-1.37Z"/>
  <path class="cls-1" d="M891.65,480.02l-1.36,30.09,30.08,1.37,1.37-30.09-30.09-1.37Z"/>
  <path class="cls-1" d="M930.63,478.65l-7.52,26.67,26.67,7.52,7.52-26.67-26.67-7.52Z"/>
  <path class="cls-1" d="M994.22,480.02l-1.37,30.09,30.09,1.37,1.37-30.09-30.09-1.37Z"/>
  <path class="cls-1" d="M1028.41,480.02l-1.37,30.09,30.09,1.37,1.37-30.09-30.09-1.37Z"/>
  <path class="cls-1" d="M1062.6,480.02l-1.37,30.09,30.09,1.37,1.37-30.09-30.09-1.37Z"/>
  <path class="cls-1" d="M1128.24,480.36l32.48-1.71,1.71,32.48-32.48,1.71-1.71-32.48Z"/>
  <path class="cls-1" d="M68.38,514.55l32.48-1.71,1.71,32.48-32.48,1.71-1.71-32.48Z"/>
  <path class="cls-1" d="M139.49,514.21l-1.37,30.09,30.09,1.37,1.37-30.09-30.09-1.37Z"/>
  <path class="cls-1" d="M173.68,514.21l-1.37,30.09,30.09,1.37,1.37-30.09-30.09-1.37Z"/>
  <path class="cls-1" d="M207.87,514.21l-1.37,30.09,30.09,1.37,1.37-30.09-30.09-1.37Z"/>
  <path class="cls-1" d="M246.85,512.84l-7.52,26.67,26.67,7.52,7.52-26.67-26.67-7.52Z"/>
  <path class="cls-1" d="M344.63,514.21l-1.37,30.09,30.09,1.37,1.37-30.09-30.09-1.37Z"/>
  <path class="cls-1" d="M410.27,517.97l29.06-5.13,5.13,29.06-29.06,5.13-5.13-29.06Z"/>
  <path class="cls-1" d="M512.84,517.97l29.06-5.13,5.13,29.06-29.06,5.13-5.13-29.06Z"/>
  <path class="cls-1" d="M615.41,516.94l30.09-4.1,4.1,30.09-30.09,4.1-4.1-30.09Z"/>
  <path class="cls-1" d="M652.33,514.21l-1.37,30.09,30.09,1.37,1.37-30.09-30.09-1.37Z"/>
  <path class="cls-1" d="M683.78,518.65l28.38-5.81,5.81,28.38-28.37,5.81-5.82-28.38Z"/>
  <path class="cls-1" d="M786.35,514.55l32.48-1.71,1.71,32.48-32.48,1.71-1.71-32.48Z"/>
  <path class="cls-1" d="M893.36,512.84l-4.44,29.74,29.74,4.45,4.45-29.74-29.75-4.44Z"/>
  <path class="cls-1" d="M923.11,518.65l28.38-5.81,5.81,28.38-28.38,5.81-5.81-28.38Z"/>
  <path class="cls-1" d="M991.49,516.26l30.77-3.42,3.42,30.77-30.77,3.42-3.42-30.77Z"/>
  <path class="cls-1" d="M1059.86,516.26l30.78-3.42,3.41,30.77-30.77,3.42-3.42-30.77Z"/>
  <path class="cls-1" d="M1128.24,516.26l30.77-3.42,3.42,30.77-30.77,3.42-3.42-30.77Z"/>
  <path class="cls-1" d="M68.38,550.45l30.77-3.42,3.42,30.77-30.77,3.42-3.42-30.77Z"/>
  <path class="cls-1" d="M139.49,548.4l-1.37,30.09,30.09,1.37,1.37-30.09-30.09-1.37Z"/>
  <path class="cls-1" d="M243.77,547.03l-4.45,29.74,29.74,4.44,4.45-29.74-29.74-4.45Z"/>
  <path class="cls-1" d="M276.25,548.4l-1.37,30.09,30.09,1.37,1.37-30.09-30.09-1.37Z"/>
  <path class="cls-1" d="M310.44,548.4l-1.37,30.09,30.09,1.37,1.37-30.09-30.09-1.37Z"/>
  <path class="cls-1" d="M341.89,552.84l28.38-5.81,5.81,28.38-28.38,5.81-5.81-28.38Z"/>
  <path class="cls-1" d="M582.93,555.57l23.93-6.84,6.84,23.93-23.93,6.84-6.84-23.93Z"/>
  <path class="cls-1" d="M618.14,548.4l-1.37,30.09,30.09,1.37,1.37-30.09-30.09-1.37Z"/>
  <path class="cls-1" d="M649.59,552.84l28.38-5.81,5.81,28.38-28.37,5.81-5.81-28.38Z"/>
  <path class="cls-1" d="M789.09,548.4l-1.37,30.09,30.09,1.37,1.36-30.09-30.08-1.37Z"/>
  <path class="cls-1" d="M957.3,548.74l32.48-1.71,1.71,32.48-32.48,1.71-1.71-32.48Z"/>
  <path class="cls-1" d="M1094.05,548.74l32.48-1.71,1.71,32.48-32.48,1.71-1.71-32.48Z"/>
  <path class="cls-1" d="M102.57,585.32l30.09-4.1,4.1,30.09-30.09,4.1-4.1-30.09Z"/>
  <path class="cls-1" d="M139.49,582.58l-1.37,30.09,30.09,1.37,1.37-30.09-30.09-1.37Z"/>
  <path class="cls-1" d="M205.14,586.34l29.06-5.13,5.13,29.06-29.06,5.13-5.13-29.06Z"/>
  <path class="cls-1" d="M512.84,585.32l30.09-4.1,4.1,30.09-30.09,4.1-4.1-30.09Z"/>
  <path class="cls-1" d="M554.55,581.22l-7.52,26.67,26.67,7.52,7.52-26.67-26.67-7.52Z"/>
  <path class="cls-1" d="M615.41,584.64l30.77-3.42,3.42,30.77-30.77,3.42-3.42-30.77Z"/>
  <path class="cls-1" d="M717.97,585.32l30.09-4.1,4.1,30.09-30.08,4.1-4.11-30.09Z"/>
  <path class="cls-1" d="M754.9,582.58l-1.37,30.09,30.09,1.37,1.36-30.09-30.08-1.37Z"/>
  <path class="cls-1" d="M789.09,582.58l-1.37,30.09,30.09,1.37,1.36-30.09-30.08-1.37Z"/>
  <path class="cls-1" d="M923.11,585.32l30.08-4.1,4.11,30.09-30.09,4.1-4.1-30.09Z"/>
  <path class="cls-1" d="M960.03,582.58l-1.37,30.09,30.09,1.37,1.37-30.09-30.09-1.37Z"/>
  <path class="cls-1" d="M996.61,582.93l-3.41,27.35,27.35,3.42,3.42-27.35-27.36-3.42Z"/>
  <path class="cls-1" d="M1096.79,582.58l-1.37,30.09,30.09,1.37,1.37-30.09-30.09-1.37Z"/>
  <path class="cls-1" d="M107.01,615.41l-4.44,29.74,29.74,4.44,4.44-29.74-29.74-4.44Z"/>
  <path class="cls-1" d="M136.76,621.22l28.38-5.81,5.81,28.38-28.38,5.81-5.81-28.37Z"/>
  <path class="cls-1" d="M275.22,623.95l23.93-6.84,6.84,23.93-23.93,6.84-6.84-23.93Z"/>
  <path class="cls-1" d="M310.44,616.77l-1.37,30.09,30.09,1.37,1.37-30.09-30.09-1.37Z"/>
  <path class="cls-1" d="M347.02,617.11l-3.42,27.35,27.35,3.42,3.42-27.35-27.35-3.42Z"/>
  <path class="cls-1" d="M480.36,623.95l23.93-6.84,6.84,23.93-23.93,6.84-6.84-23.93Z"/>
  <path class="cls-1" d="M515.57,616.77l-1.37,30.09,30.09,1.37,1.37-30.09-30.09-1.37Z"/>
  <path class="cls-1" d="M549.76,616.77l-1.37,30.09,30.09,1.37,1.37-30.09-30.09-1.37Z"/>
  <path class="cls-1" d="M588.74,615.41l-7.52,26.67,26.67,7.52,7.52-26.66-26.67-7.52Z"/>
  <path class="cls-1" d="M685.49,623.95l23.94-6.84,6.83,23.93-23.93,6.84-6.84-23.93Z"/>
  <path class="cls-1" d="M720.71,616.77l-1.37,30.09,30.09,1.37,1.36-30.09-30.08-1.37Z"/>
  <path class="cls-1" d="M754.9,616.77l-1.37,30.09,30.09,1.37,1.36-30.09-30.08-1.37Z"/>
  <path class="cls-1" d="M789.09,616.77l-1.37,30.09,30.09,1.37,1.36-30.09-30.08-1.37Z"/>
  <path class="cls-1" d="M823.28,616.77l-1.37,30.09,30.08,1.37,1.37-30.09-30.08-1.37Z"/>
  <path class="cls-1" d="M862.25,615.41l-7.52,26.67,26.67,7.52,7.52-26.66-26.67-7.52Z"/>
  <path class="cls-1" d="M925.84,616.77l-1.36,30.09,30.08,1.37,1.37-30.09-30.09-1.37Z"/>
  <path class="cls-1" d="M960.03,616.77l-1.37,30.09,30.09,1.37,1.37-30.09-30.09-1.37Z"/>
  <path class="cls-1" d="M1025.68,617.11l32.48-1.71,1.7,32.48-32.47,1.71-1.71-32.48Z"/>
  <path class="cls-1" d="M1094.05,618.82l30.77-3.42,3.42,30.77-30.77,3.41-3.42-30.77Z"/>
  <path class="cls-1" d="M239.32,651.3l32.48-1.71,1.71,32.48-32.48,1.71-1.71-32.48Z"/>
  <path class="cls-1" d="M411.98,658.14l23.93-6.84,6.84,23.94-23.93,6.83-6.84-23.93Z"/>
  <path class="cls-1" d="M449.59,651.3l-3.42,27.36,27.35,3.41,3.42-27.35-27.35-3.42Z"/>
  <path class="cls-1" d="M515.57,650.96l-1.37,30.09,30.09,1.37,1.37-30.09-30.09-1.37Z"/>
  <path class="cls-1" d="M549.76,650.96l-1.37,30.09,30.09,1.37,1.37-30.09-30.09-1.37Z"/>
  <path class="cls-1" d="M583.95,650.96l-1.37,30.09,30.09,1.37,1.37-30.09-30.09-1.37Z"/>
  <path class="cls-1" d="M618.14,650.96l-1.37,30.09,30.09,1.37,1.37-30.09-30.09-1.37Z"/>
  <path class="cls-1" d="M657.12,649.59l-7.52,26.67,26.67,7.52,7.52-26.66-26.66-7.53Z"/>
  <path class="cls-1" d="M754.9,650.96l-1.37,30.09,30.09,1.37,1.36-30.09-30.08-1.37Z"/>
  <path class="cls-1" d="M789.09,650.96l-1.37,30.09,30.09,1.37,1.36-30.09-30.08-1.37Z"/>
  <path class="cls-1" d="M823.28,650.96l-1.37,30.09,30.08,1.37,1.37-30.09-30.08-1.37Z"/>
  <path class="cls-1" d="M857.46,650.96l-1.36,30.09,30.08,1.37,1.37-30.09-30.09-1.37Z"/>
  <path class="cls-1" d="M891.65,650.96l-1.36,30.09,30.08,1.37,1.37-30.09-30.09-1.37Z"/>
  <path class="cls-1" d="M925.84,650.96l-1.36,30.09,30.08,1.37,1.37-30.09-30.09-1.37Z"/>
  <path class="cls-1" d="M957.3,655.41l28.37-5.82,5.82,28.38-28.38,5.81-5.81-28.37Z"/>
  <path class="cls-1" d="M1028.41,650.96l-1.37,30.09,30.09,1.37,1.37-30.09-30.09-1.37Z"/>
  <path class="cls-1" d="M1064.99,651.3l-3.42,27.36,27.36,3.41,3.41-27.35-27.35-3.42Z"/>
  <path class="cls-1" d="M1128.24,653.7l30.09-4.11,4.1,30.09-30.08,4.1-4.11-30.08Z"/>
  <path class="cls-1" d="M1167.56,651.3l-3.42,27.36,27.35,3.41,3.42-27.35-27.35-3.42Z"/>
  <path class="cls-1" d="M102.57,688.91l29.06-5.13,5.13,29.06-29.06,5.13-5.13-29.06Z"/>
  <path class="cls-1" d="M243.77,683.78l-4.45,29.75,29.74,4.44,4.45-29.74-29.74-4.45Z"/>
  <path class="cls-1" d="M278.64,685.49l-3.42,27.35,27.35,3.42,3.42-27.35-27.35-3.42Z"/>
  <path class="cls-1" d="M341.89,687.89l30.09-4.11,4.1,30.09-30.09,4.1-4.1-30.08Z"/>
  <path class="cls-1" d="M383.6,683.78l-7.52,26.67,26.67,7.52,7.52-26.66-26.67-7.53Z"/>
  <path class="cls-1" d="M478.65,687.89l30.09-4.11,4.1,30.09-30.09,4.1-4.1-30.08Z"/>
  <path class="cls-1" d="M515.57,685.15l-1.37,30.09,30.09,1.37,1.37-30.09-30.09-1.37Z"/>
  <path class="cls-1" d="M581.22,687.2l30.77-3.42,3.42,30.77-30.77,3.42-3.42-30.77Z"/>
  <path class="cls-1" d="M649.59,687.2l30.77-3.42,3.42,30.77-30.77,3.42-3.42-30.77Z"/>
  <path class="cls-1" d="M752.16,687.2l30.77-3.42,3.42,30.77-30.77,3.42-3.42-30.77Z"/>
  <path class="cls-1" d="M823.28,685.15l-1.37,30.09,30.08,1.37,1.37-30.09-30.08-1.37Z"/>
  <path class="cls-1" d="M891.65,685.15l-1.36,30.09,30.08,1.37,1.37-30.09-30.09-1.37Z"/>
  <path class="cls-1" d="M993.2,692.33l23.93-6.84,6.84,23.94-23.94,6.83-6.83-23.93Z"/>
  <path class="cls-1" d="M1028.41,685.15l-1.37,30.09,30.09,1.37,1.37-30.09-30.09-1.37Z"/>
  <path class="cls-1" d="M1095.76,692.33l23.94-6.84,6.83,23.94-23.93,6.83-6.84-23.93Z"/>
  <path class="cls-1" d="M1130.98,685.15l-1.37,30.09,30.09,1.37,1.36-30.09-30.08-1.37Z"/>
  <path class="cls-1" d="M346.34,717.97l-4.44,29.75,29.74,4.44,4.44-29.74-29.74-4.45Z"/>
  <path class="cls-1" d="M378.82,719.34l-1.37,30.09,30.09,1.36,1.37-30.08-30.09-1.37Z"/>
  <path class="cls-1" d="M413.01,719.34l-1.37,30.09,30.09,1.36,1.37-30.08-30.09-1.37Z"/>
  <path class="cls-1" d="M447.2,719.34l-1.37,30.09,30.09,1.36,1.37-30.08-30.09-1.37Z"/>
  <path class="cls-1" d="M481.38,719.34l-1.37,30.09,30.09,1.36,1.37-30.08-30.09-1.37Z"/>
  <path class="cls-1" d="M515.57,719.34l-1.37,30.09,30.09,1.36,1.37-30.08-30.09-1.37Z"/>
  <path class="cls-1" d="M552.16,719.68l-3.42,27.35,27.35,3.42,3.42-27.35-27.35-3.42Z"/>
  <path class="cls-1" d="M615.41,723.1l29.06-5.13,5.13,29.06-29.06,5.13-5.13-29.06Z"/>
  <path class="cls-1" d="M717.97,723.1l29.06-5.13,5.13,29.06-29.06,5.13-5.13-29.06Z"/>
  <path class="cls-1" d="M824.99,717.97l-4.45,29.75,29.75,4.44,4.44-29.74-29.74-4.45Z"/>
  <path class="cls-1" d="M857.46,719.34l-1.36,30.09,30.08,1.36,1.37-30.08-30.09-1.37Z"/>
  <path class="cls-1" d="M891.65,719.34l-1.36,30.09,30.08,1.36,1.37-30.08-30.09-1.37Z"/>
  <path class="cls-1" d="M928.24,719.68l-3.42,27.35,27.35,3.42,3.42-27.35-27.35-3.42Z"/>
  <path class="cls-1" d="M1025.68,721.39l30.77-3.42,3.41,30.77-30.77,3.42-3.41-30.77Z"/>
  <path class="cls-1" d="M1130.98,719.34l-1.37,30.09,30.09,1.36,1.36-30.08-30.08-1.37Z"/>
  <path class="cls-1" d="M68.38,756.26l30.09-4.1,4.1,30.09-30.09,4.1-4.1-30.09Z"/>
  <path class="cls-1" d="M107.7,753.87l-3.42,27.35,27.35,3.42,3.42-27.35-27.35-3.42Z"/>
  <path class="cls-1" d="M205.14,757.29l29.06-5.13,5.13,29.06-29.06,5.13-5.13-29.06Z"/>
  <path class="cls-1" d="M275.22,760.71l23.93-6.84,6.84,23.93-23.93,6.84-6.84-23.93Z"/>
  <path class="cls-1" d="M312.83,753.87l-3.42,27.35,27.35,3.42,3.42-27.35-27.35-3.42Z"/>
  <path class="cls-1" d="M410.27,755.58l30.77-3.42,3.42,30.77-30.77,3.42-3.42-30.77Z"/>
  <path class="cls-1" d="M483.09,752.16l-4.44,29.75,29.74,4.44,4.45-29.74-29.74-4.45Z"/>
  <path class="cls-1" d="M515.57,753.53l-1.37,30.09,30.09,1.36,1.37-30.08-30.09-1.37Z"/>
  <path class="cls-1" d="M683.78,753.87l32.48-1.71,1.71,32.48-32.48,1.71-1.71-32.48Z"/>
  <path class="cls-1" d="M753.87,760.71l23.93-6.84,6.84,23.93-23.93,6.84-6.84-23.93Z"/>
  <path class="cls-1" d="M793.87,752.16l-7.52,26.67,26.67,7.52,7.52-26.67-26.67-7.52Z"/>
  <path class="cls-1" d="M888.92,755.58l30.77-3.42,3.42,30.77-30.77,3.42-3.42-30.77Z"/>
  <path class="cls-1" d="M991.49,757.29l29.06-5.13,5.13,29.06-29.07,5.13-5.12-29.06Z"/>
  <path class="cls-1" d="M1059.86,756.26l30.09-4.1,4.1,30.09-30.08,4.1-4.11-30.09Z"/>
  <path class="cls-1" d="M1096.79,753.53l-1.37,30.09,30.09,1.36,1.37-30.08-30.09-1.37Z"/>
  <path class="cls-1" d="M1128.24,757.97l28.38-5.81,5.81,28.38-28.37,5.81-5.82-28.38Z"/>
  <path class="cls-1" d="M68.38,789.77l30.77-3.42,3.42,30.77-30.77,3.42-3.42-30.77Z"/>
  <path class="cls-1" d="M170.95,788.06l32.48-1.71,1.71,32.48-32.48,1.71-1.71-32.48Z"/>
  <path class="cls-1" d="M376.08,788.06l32.48-1.71,1.71,32.48-32.48,1.71-1.71-32.48Z"/>
  <path class="cls-1" d="M515.57,787.72l-1.37,30.09,30.09,1.36,1.37-30.08-30.09-1.37Z"/>
  <path class="cls-1" d="M581.22,791.48l29.06-5.13,5.13,29.06-29.06,5.13-5.13-29.06Z"/>
  <path class="cls-1" d="M651.3,794.9l23.93-6.84,6.83,23.93-23.93,6.84-6.84-23.93Z"/>
  <path class="cls-1" d="M683.78,792.16l28.38-5.81,5.81,28.38-28.37,5.81-5.82-28.38Z"/>
  <path class="cls-1" d="M789.09,787.72l-1.37,30.09,30.09,1.36,1.36-30.08-30.08-1.37Z"/>
  <path class="cls-1" d="M854.73,788.06l32.48-1.71,1.71,32.48-32.48,1.71-1.71-32.48Z"/>
  <path class="cls-1" d="M957.3,788.06l32.48-1.71,1.71,32.48-32.48,1.71-1.71-32.48Z"/>
  <path class="cls-1" d="M1062.6,787.72l-1.37,30.09,30.09,1.36,1.37-30.08-30.09-1.37Z"/>
  <path class="cls-1" d="M1094.05,792.16l28.38-5.81,5.81,28.38-28.37,5.81-5.82-28.38Z"/>
  <path class="cls-1" d="M1162.43,788.06l32.48-1.71,1.71,32.48-32.48,1.71-1.71-32.48Z"/>
  <path class="cls-1" d="M138.47,829.09l23.93-6.84,6.84,23.93-23.93,6.84-6.84-23.93Z"/>
  <path class="cls-1" d="M173.68,821.91l-1.37,30.08,30.09,1.37,1.37-30.08-30.09-1.37Z"/>
  <path class="cls-1" d="M207.87,821.91l-1.37,30.08,30.09,1.37,1.37-30.08-30.09-1.37Z"/>
  <path class="cls-1" d="M242.06,821.91l-1.37,30.08,30.09,1.37,1.37-30.08-30.09-1.37Z"/>
  <path class="cls-1" d="M276.25,821.91l-1.37,30.08,30.09,1.37,1.37-30.08-30.09-1.37Z"/>
  <path class="cls-1" d="M310.44,821.91l-1.37,30.08,30.09,1.37,1.37-30.08-30.09-1.37Z"/>
  <path class="cls-1" d="M344.63,821.91l-1.37,30.08,30.09,1.37,1.37-30.08-30.09-1.37Z"/>
  <path class="cls-1" d="M378.82,821.91l-1.37,30.08,30.09,1.37,1.37-30.08-30.09-1.37Z"/>
  <path class="cls-1" d="M480.36,829.09l23.93-6.84,6.84,23.93-23.93,6.84-6.84-23.93Z"/>
  <path class="cls-1" d="M515.57,821.91l-1.37,30.08,30.09,1.37,1.37-30.08-30.09-1.37Z"/>
  <path class="cls-1" d="M552.16,822.25l-3.42,27.35,27.35,3.42,3.42-27.35-27.35-3.42Z"/>
  <path class="cls-1" d="M615.41,822.25l32.48-1.71,1.71,32.48-32.48,1.71-1.71-32.48Z"/>
  <path class="cls-1" d="M786.35,823.96l30.77-3.42,3.42,30.77-30.77,3.42-3.42-30.77Z"/>
  <path class="cls-1" d="M857.46,821.91l-1.36,30.08,30.08,1.37,1.37-30.08-30.09-1.37Z"/>
  <path class="cls-1" d="M924.82,829.09l23.93-6.84,6.84,23.93-23.93,6.84-6.84-23.93Z"/>
  <path class="cls-1" d="M960.03,821.91l-1.37,30.08,30.09,1.37,1.37-30.08-30.09-1.37Z"/>
  <path class="cls-1" d="M1059.86,823.96l30.78-3.42,3.41,30.77-30.77,3.42-3.42-30.77Z"/>
  <path class="cls-1" d="M1128.24,824.64l30.09-4.1,4.1,30.09-30.08,4.1-4.11-30.09Z"/>
  <path class="cls-1" d="M1162.43,826.35l28.38-5.81,5.81,28.38-28.38,5.81-5.81-28.38Z"/>
  <path class="cls-1" d="M102.57,859.86l29.06-5.13,5.13,29.06-29.06,5.13-5.13-29.06Z"/>
  <path class="cls-1" d="M170.95,858.15l30.77-3.42,3.42,30.77-30.77,3.42-3.42-30.77Z"/>
  <path class="cls-1" d="M310.44,856.1l-1.37,30.08,30.09,1.37,1.37-30.09-30.09-1.36Z"/>
  <path class="cls-1" d="M344.63,856.1l-1.37,30.08,30.09,1.37,1.37-30.09-30.09-1.36Z"/>
  <path class="cls-1" d="M378.82,856.1l-1.37,30.08,30.09,1.37,1.37-30.09-30.09-1.36Z"/>
  <path class="cls-1" d="M413.01,856.1l-1.37,30.08,30.09,1.37,1.37-30.09-30.09-1.36Z"/>
  <path class="cls-1" d="M451.98,854.73l-7.52,26.67,26.67,7.52,7.52-26.67-26.67-7.52Z"/>
  <path class="cls-1" d="M515.57,856.1l-1.37,30.08,30.09,1.37,1.37-30.09-30.09-1.36Z"/>
  <path class="cls-1" d="M618.14,856.1l-1.37,30.08,30.09,1.37,1.37-30.09-30.09-1.36Z"/>
  <path class="cls-1" d="M685.49,863.28l23.94-6.84,6.83,23.93-23.93,6.84-6.84-23.93Z"/>
  <path class="cls-1" d="M723.1,856.44l-3.42,27.35,27.35,3.42,3.42-27.35-27.35-3.42Z"/>
  <path class="cls-1" d="M857.46,856.1l-1.36,30.08,30.08,1.37,1.37-30.09-30.09-1.36Z"/>
  <path class="cls-1" d="M896.44,854.73l-7.52,26.67,26.67,7.52,7.52-26.67-26.67-7.52Z"/>
  <path class="cls-1" d="M960.03,856.1l-1.37,30.08,30.09,1.37,1.37-30.09-30.09-1.36Z"/>
  <path class="cls-1" d="M1025.68,856.44l32.48-1.71,1.7,32.48-32.47,1.71-1.71-32.48Z"/>
  <path class="cls-1" d="M1128.24,858.15l30.77-3.42,3.42,30.77-30.77,3.42-3.42-30.77Z"/>
  <path class="cls-1" d="M68.38,894.05l29.06-5.13,5.13,29.06-29.06,5.13-5.13-29.06Z"/>
  <path class="cls-1" d="M136.76,894.05l29.06-5.13,5.13,29.06-29.06,5.13-5.13-29.06Z"/>
  <path class="cls-1" d="M275.22,897.47l23.93-6.84,6.84,23.93-23.93,6.84-6.84-23.93Z"/>
  <path class="cls-1" d="M307.7,894.73l28.38-5.81,5.81,28.38-28.38,5.81-5.81-28.38Z"/>
  <path class="cls-1" d="M378.82,890.29l-1.37,30.08,30.09,1.37,1.37-30.09-30.09-1.36Z"/>
  <path class="cls-1" d="M413.01,890.29l-1.37,30.08,30.09,1.37,1.37-30.09-30.09-1.36Z"/>
  <path class="cls-1" d="M447.2,890.29l-1.37,30.08,30.09,1.37,1.37-30.09-30.09-1.36Z"/>
  <path class="cls-1" d="M481.38,890.29l-1.37,30.08,30.09,1.37,1.37-30.09-30.09-1.36Z"/>
  <path class="cls-1" d="M512.84,894.73l28.38-5.81,5.81,28.38-28.38,5.81-5.81-28.38Z"/>
  <path class="cls-1" d="M581.22,893.02l30.09-4.1,4.1,30.09-30.09,4.1-4.1-30.09Z"/>
  <path class="cls-1" d="M618.14,890.29l-1.37,30.08,30.09,1.37,1.37-30.09-30.09-1.36Z"/>
  <path class="cls-1" d="M657.12,888.92l-7.52,26.67,26.67,7.52,7.52-26.67-26.66-7.52Z"/>
  <path class="cls-1" d="M822.25,897.47l23.93-6.84,6.84,23.93-23.93,6.84-6.84-23.93Z"/>
  <path class="cls-1" d="M857.46,890.29l-1.36,30.08,30.08,1.37,1.37-30.09-30.09-1.36Z"/>
  <path class="cls-1" d="M891.65,890.29l-1.36,30.08,30.08,1.37,1.37-30.09-30.09-1.36Z"/>
  <path class="cls-1" d="M925.84,890.29l-1.36,30.08,30.08,1.37,1.37-30.09-30.09-1.36Z"/>
  <path class="cls-1" d="M960.03,890.29l-1.37,30.08,30.09,1.37,1.37-30.09-30.09-1.36Z"/>
  <path class="cls-1" d="M994.22,890.29l-1.37,30.08,30.09,1.37,1.37-30.09-30.09-1.36Z"/>
  <path class="cls-1" d="M1028.41,890.29l-1.37,30.08,30.09,1.37,1.37-30.09-30.09-1.36Z"/>
  <path class="cls-1" d="M341.89,927.21l30.09-4.1,4.1,30.08-30.09,4.11-4.1-30.09Z"/>
  <path class="cls-1" d="M378.82,924.48l-1.37,30.08,30.09,1.37,1.37-30.09-30.09-1.36Z"/>
  <path class="cls-1" d="M410.27,928.92l28.38-5.81,5.81,28.38-28.38,5.81-5.81-28.38Z"/>
  <path class="cls-1" d="M478.65,926.53l30.77-3.42,3.42,30.77-30.77,3.42-3.42-30.77Z"/>
  <path class="cls-1" d="M585.66,923.11l-4.45,29.74,29.74,4.45,4.45-29.75-29.74-4.44Z"/>
  <path class="cls-1" d="M618.14,924.48l-1.37,30.08,30.09,1.37,1.37-30.09-30.09-1.36Z"/>
  <path class="cls-1" d="M649.59,928.92l28.38-5.81,5.81,28.38-28.37,5.81-5.81-28.38Z"/>
  <path class="cls-1" d="M717.97,927.21l30.09-4.1,4.1,30.08-30.08,4.11-4.11-30.09Z"/>
  <path class="cls-1" d="M754.9,924.48l-1.37,30.08,30.09,1.37,1.36-30.09-30.08-1.36Z"/>
  <path class="cls-1" d="M793.87,923.11l-7.52,26.67,26.67,7.52,7.52-26.67-26.67-7.52Z"/>
  <path class="cls-1" d="M891.65,924.48l-1.36,30.08,30.08,1.37,1.37-30.09-30.09-1.36Z"/>
  <path class="cls-1" d="M1028.41,924.48l-1.37,30.08,30.09,1.37,1.37-30.09-30.09-1.36Z"/>
  <path class="cls-1" d="M1064.99,924.82l-3.42,27.35,27.36,3.42,3.41-27.35-27.35-3.42Z"/>
  <path class="cls-1" d="M1128.24,928.24l29.06-5.13,5.13,29.06-29.06,5.13-5.13-29.06Z"/>
  <path class="cls-1" d="M344.63,958.66l-1.37,30.09,30.09,1.37,1.37-30.09-30.09-1.37Z"/>
  <path class="cls-1" d="M376.08,963.11l28.38-5.81,5.81,28.37-28.38,5.82-5.81-28.38Z"/>
  <path class="cls-1" d="M444.46,959.01l32.48-1.71,1.71,32.48-32.48,1.71-1.71-32.48Z"/>
  <path class="cls-1" d="M512.84,961.4l30.09-4.1,4.1,30.08-30.09,4.11-4.1-30.09Z"/>
  <path class="cls-1" d="M554.55,957.3l-7.52,26.66,26.67,7.53,7.52-26.67-26.67-7.52Z"/>
  <path class="cls-1" d="M722.42,957.3l-4.45,29.74,29.75,4.45,4.44-29.75-29.74-4.44Z"/>
  <path class="cls-1" d="M754.9,958.66l-1.37,30.09,30.09,1.37,1.36-30.09-30.08-1.37Z"/>
  <path class="cls-1" d="M789.09,958.66l-1.37,30.09,30.09,1.37,1.36-30.09-30.08-1.37Z"/>
  <path class="cls-1" d="M854.73,961.4l30.09-4.1,4.1,30.08-30.09,4.11-4.1-30.09Z"/>
  <path class="cls-1" d="M891.65,958.66l-1.36,30.09,30.08,1.37,1.37-30.09-30.09-1.37Z"/>
  <path class="cls-1" d="M957.3,962.43l29.06-5.13,5.13,29.06-29.06,5.13-5.13-29.06Z"/>
  <path class="cls-1" d="M1028.41,958.66l-1.37,30.09,30.09,1.37,1.37-30.09-30.09-1.37Z"/>
  <path class="cls-1" d="M341.89,994.91l30.77-3.42,3.42,30.77-30.77,3.42-3.42-30.77Z"/>
  <path class="cls-1" d="M410.27,995.59l30.09-4.1,4.1,30.08-30.09,4.11-4.1-30.09Z"/>
  <path class="cls-1" d="M447.2,992.85l-1.37,30.09,30.09,1.37,1.37-30.09-30.09-1.37Z"/>
  <path class="cls-1" d="M517.28,991.49l-4.44,29.74,29.74,4.45,4.45-29.75-29.74-4.44Z"/>
  <path class="cls-1" d="M549.76,992.85l-1.37,30.09,30.09,1.37,1.37-30.09-30.09-1.37Z"/>
  <path class="cls-1" d="M615.41,996.61l29.06-5.12,5.13,29.06-29.06,5.13-5.13-29.07Z"/>
  <path class="cls-1" d="M754.9,992.85l-1.37,30.09,30.09,1.37,1.36-30.09-30.08-1.37Z"/>
  <path class="cls-1" d="M786.35,997.3l28.38-5.81,5.81,28.37-28.38,5.82-5.81-28.38Z"/>
  <path class="cls-1" d="M857.46,992.85l-1.36,30.09,30.08,1.37,1.37-30.09-30.09-1.37Z"/>
  <path class="cls-1" d="M891.65,992.85l-1.36,30.09,30.08,1.37,1.37-30.09-30.09-1.37Z"/>
  <path class="cls-1" d="M1028.41,992.85l-1.37,30.09,30.09,1.37,1.37-30.09-30.09-1.37Z"/>
  <path class="cls-1" d="M1062.6,992.85l-1.37,30.09,30.09,1.37,1.37-30.09-30.09-1.37Z"/>
  <path class="cls-1" d="M1101.58,991.49l-7.53,26.66,26.67,7.53,7.52-26.67-26.66-7.52Z"/>
  <path class="cls-1" d="M1162.43,993.2l32.48-1.71,1.71,32.48-32.48,1.71-1.71-32.48Z"/>
  <path class="cls-1" d="M414.72,1025.68l-4.45,29.74,29.74,4.44,4.45-29.74-29.74-4.44Z"/>
  <path class="cls-1" d="M447.2,1027.04l-1.37,30.09,30.09,1.37,1.37-30.09-30.09-1.37Z"/>
  <path class="cls-1" d="M486.17,1025.68l-7.52,26.66,26.67,7.52,7.52-26.66-26.67-7.52Z"/>
  <path class="cls-1" d="M547.03,1029.09l30.77-3.41,3.42,30.77-30.77,3.41-3.42-30.77Z"/>
  <path class="cls-1" d="M649.59,1030.8l29.06-5.12,5.12,29.06-29.06,5.12-5.13-29.06Z"/>
  <path class="cls-1" d="M717.97,1029.78l30.09-4.1,4.1,30.08-30.08,4.1-4.11-30.08Z"/>
  <path class="cls-1" d="M754.9,1027.04l-1.37,30.09,30.09,1.37,1.36-30.09-30.08-1.37Z"/>
  <path class="cls-1" d="M857.46,1027.04l-1.36,30.09,30.08,1.37,1.37-30.09-30.09-1.37Z"/>
  <path class="cls-1" d="M891.65,1027.04l-1.36,30.09,30.08,1.37,1.37-30.09-30.09-1.37Z"/>
  <path class="cls-1" d="M925.84,1027.04l-1.36,30.09,30.08,1.37,1.37-30.09-30.09-1.37Z"/>
  <path class="cls-1" d="M960.03,1027.04l-1.37,30.09,30.09,1.37,1.37-30.09-30.09-1.37Z"/>
  <path class="cls-1" d="M994.22,1027.04l-1.37,30.09,30.09,1.37,1.37-30.09-30.09-1.37Z"/>
  <path class="cls-1" d="M1025.68,1031.49l28.37-5.81,5.81,28.37-28.37,5.81-5.81-28.37Z"/>
  <path class="cls-1" d="M1096.79,1027.04l-1.37,30.09,30.09,1.37,1.37-30.09-30.09-1.37Z"/>
  <path class="cls-1" d="M1165.17,1027.04l-1.37,30.09,30.09,1.37,1.36-30.09-30.08-1.37Z"/>
  <path class="cls-1" d="M341.89,1061.57l32.48-1.71,1.71,32.48-32.48,1.71-1.71-32.48Z"/>
  <path class="cls-1" d="M448.9,1059.86l-4.44,29.75,29.74,4.44,4.45-29.74-29.74-4.45Z"/>
  <path class="cls-1" d="M481.38,1061.23l-1.37,30.09,30.09,1.37,1.37-30.09-30.09-1.37Z"/>
  <path class="cls-1" d="M517.97,1061.57l-3.42,27.36,27.35,3.41,3.42-27.35-27.35-3.42Z"/>
  <path class="cls-1" d="M685.49,1068.41l23.94-6.84,6.83,23.94-23.93,6.83-6.84-23.93Z"/>
  <path class="cls-1" d="M720.71,1061.23l-1.37,30.09,30.09,1.37,1.36-30.09-30.08-1.37Z"/>
  <path class="cls-1" d="M754.9,1061.23l-1.37,30.09,30.09,1.37,1.36-30.09-30.08-1.37Z"/>
  <path class="cls-1" d="M789.09,1061.23l-1.37,30.09,30.09,1.37,1.36-30.09-30.08-1.37Z"/>
  <path class="cls-1" d="M823.28,1061.23l-1.37,30.09,30.08,1.37,1.37-30.09-30.08-1.37Z"/>
  <path class="cls-1" d="M854.73,1065.68l28.38-5.82,5.81,28.38-28.38,5.81-5.81-28.37Z"/>
  <path class="cls-1" d="M994.22,1061.23l-1.37,30.09,30.09,1.37,1.37-30.09-30.09-1.37Z"/>
  <path class="cls-1" d="M1059.86,1063.97l30.09-4.11,4.1,30.09-30.08,4.1-4.11-30.08Z"/>
  <path class="cls-1" d="M1096.79,1061.23l-1.37,30.09,30.09,1.37,1.37-30.09-30.09-1.37Z"/>
  <path class="cls-1" d="M1162.43,1063.28l30.77-3.42,3.42,30.78-30.77,3.41-3.42-30.77Z"/>
  <path class="cls-1" d="M346.34,1094.05l-4.44,29.75,29.74,4.44,4.44-29.74-29.74-4.45Z"/>
  <path class="cls-1" d="M378.82,1095.42l-1.37,30.09,30.09,1.37,1.37-30.09-30.09-1.37Z"/>
  <path class="cls-1" d="M417.79,1094.05l-7.52,26.67,26.67,7.52,7.52-26.66-26.67-7.53Z"/>
  <path class="cls-1" d="M478.65,1097.47l30.77-3.42,3.42,30.77-30.77,3.42-3.42-30.77Z"/>
  <path class="cls-1" d="M547.03,1099.18l29.06-5.13,5.13,29.06-29.06,5.13-5.13-29.06Z"/>
  <path class="cls-1" d="M720.71,1095.42l-1.37,30.09,30.09,1.37,1.36-30.09-30.08-1.37Z"/>
  <path class="cls-1" d="M823.28,1095.42l-1.37,30.09,30.08,1.37,1.37-30.09-30.08-1.37Z"/>
  <path class="cls-1" d="M957.3,1098.16l30.08-4.11,4.11,30.09-30.09,4.1-4.1-30.08Z"/>
  <path class="cls-1" d="M994.22,1095.42l-1.37,30.09,30.09,1.37,1.37-30.09-30.09-1.37Z"/>
  <path class="cls-1" d="M1064.31,1094.05l-4.45,29.75,29.75,4.44,4.44-29.74-29.74-4.45Z"/>
  <path class="cls-1" d="M1094.05,1099.87l28.38-5.82,5.81,28.38-28.37,5.81-5.82-28.37Z"/>
  <path class="cls-1" d="M414.72,1128.24l-4.45,29.75,29.74,4.44,4.45-29.74-29.74-4.45Z"/>
  <path class="cls-1" d="M449.59,1129.95l-3.42,27.35,27.35,3.42,3.42-27.35-27.35-3.42Z"/>
  <path class="cls-1" d="M581.22,1132.35l30.09-4.11,4.1,30.09-30.09,4.1-4.1-30.08Z"/>
  <path class="cls-1" d="M618.14,1129.61l-1.37,30.09,30.09,1.36,1.37-30.08-30.09-1.37Z"/>
  <path class="cls-1" d="M657.12,1128.24l-7.52,26.67,26.67,7.52,7.52-26.67-26.66-7.52Z"/>
  <path class="cls-1" d="M717.97,1131.66l30.77-3.42,3.42,30.77-30.77,3.42-3.42-30.77Z"/>
  <path class="cls-1" d="M824.99,1128.24l-4.45,29.75,29.75,4.44,4.44-29.74-29.74-4.45Z"/>
  <path class="cls-1" d="M857.46,1129.61l-1.36,30.09,30.08,1.36,1.37-30.08-30.09-1.37Z"/>
  <path class="cls-1" d="M891.65,1129.61l-1.36,30.09,30.08,1.36,1.37-30.08-30.09-1.37Z"/>
  <path class="cls-1" d="M925.84,1129.61l-1.36,30.09,30.08,1.36,1.37-30.08-30.09-1.37Z"/>
  <path class="cls-1" d="M960.03,1129.61l-1.37,30.09,30.09,1.36,1.37-30.08-30.09-1.37Z"/>
  <path class="cls-1" d="M994.22,1129.61l-1.37,30.09,30.09,1.36,1.37-30.08-30.09-1.37Z"/>
  <path class="cls-1" d="M1033.2,1128.24l-7.52,26.67,26.66,7.52,7.52-26.67-26.66-7.52Z"/>
  <path class="cls-1" d="M1162.43,1133.37l29.06-5.13,5.13,29.06-29.06,5.13-5.13-29.06Z"/>
  <path class="cls-1" d="M343.6,1170.98l23.93-6.84,6.84,23.93-23.93,6.84-6.84-23.93Z"/>
  <path class="cls-1" d="M381.21,1164.14l-3.42,27.35,27.35,3.42,3.42-27.35-27.35-3.42Z"/>
  <path class="cls-1" d="M548.74,1170.98l23.93-6.84,6.84,23.93-23.93,6.84-6.84-23.93Z"/>
  <path class="cls-1" d="M583.95,1163.8l-1.37,30.09,30.09,1.36,1.37-30.08-30.09-1.37Z"/>
  <path class="cls-1" d="M618.14,1163.8l-1.37,30.09,30.09,1.36,1.37-30.08-30.09-1.37Z"/>
  <path class="cls-1" d="M652.33,1163.8l-1.37,30.09,30.09,1.36,1.37-30.08-30.09-1.37Z"/>
  <path class="cls-1" d="M688.91,1164.14l-3.42,27.35,27.35,3.42,3.42-27.35-27.35-3.42Z"/>
  <path class="cls-1" d="M786.35,1167.56l29.06-5.13,5.13,29.06-29.06,5.13-5.13-29.06Z"/>
  <path class="cls-1" d="M854.73,1165.85l30.77-3.42,3.42,30.77-30.77,3.42-3.42-30.77Z"/>
  <path class="cls-1" d="M1030.12,1162.43l-4.44,29.75,29.74,4.44,4.44-29.74-29.74-4.45Z"/>
  <path class="cls-1" d="M1062.6,1163.8l-1.37,30.09,30.09,1.36,1.37-30.08-30.09-1.37Z"/>
  <path class="cls-1" d="M1099.18,1164.14l-3.42,27.35,27.35,3.42,3.42-27.35-27.35-3.42Z"/>
  <path class="cls-1" d="M271.8,68.38H68.38v239.33h239.33V68.38h-35.9ZM271.8,271.8H104.28V104.28h167.53v167.53Z"/>
  <path class="cls-1" d="M1160.72,68.38h-203.42v239.33h239.32V68.38h-35.9ZM1160.72,271.8h-167.52V104.28h167.52v167.53Z"/>
  <path class="cls-1" d="M271.8,957.3H68.38v239.32h239.33v-239.32h-35.9ZM271.8,1160.72H104.28v-167.52h167.53v167.52Z"/>
  <path class="cls-1" d="M239.39,136.77v102.55h-102.57l.03-74.23c0-15.62,12.49-28.34,27.83-28.34h46.7c4.8,0,11.8,0,17.61.02h10.4Z"/>
  <path class="cls-1" d="M1025.61,136.77v102.55h102.57l-.03-74.23c0-15.62-12.49-28.34-27.83-28.34h-46.7c-4.8,0-11.8,0-17.61.02h-10.4Z"/>
  <path class="cls-1" d="M239.39,1128.23v-102.55h-102.57l.03,74.22c0,15.63,12.49,28.34,27.83,28.34h46.7c4.8,0,11.8,0,17.61-.01h10.4Z"/>
</svg>